M48
;GenerationSoftware,Autodesk,EAGLE,9.1.1*%
;CreationDate,2018-07-17T22:26:03Z*%
FMAT,2
ICI,OFF
INCH,TZ,00.0000
T7C0.0138
T6C0.0315
T5C0.0380
T4C0.0433
T3C0.0472
T2C0.0512
T1C0.0906
%
G90
M72
T1
X43703Y41310
X4173Y45641
X2126Y41310
X4252Y40444
X10000Y45641
X93898Y40444
X91772Y41310
X93819Y45641
X88079Y40444
X85953Y41310
X88000Y45641
X82079Y40444
X79953Y41310
X82000Y45641
X76079Y40444
X73953Y41310
X76000Y45641
X70079Y40444
X67953Y41310
X70000Y45641
X64079Y40444
X61953Y41310
X64000Y45641
X58079Y40444
X55953Y41310
X58000Y45641
X52329Y40444
X50203Y41310
X52250Y45641
X45829Y40444
X7953Y41310
X45750Y45641
X40079Y40444
X37953Y41310
X40000Y45641
X34079Y40444
X31953Y41310
X34000Y45641
X28079Y40444
X25953Y41310
X28000Y45641
X22079Y40444
X19953Y41310
X22000Y45641
X16079Y40444
X13953Y41310
X16000Y45641
X10079Y40444
T2
X21844Y3969
X19875Y2000
X18891Y3969
X17906Y3969
X20859Y3969
X94488Y7874
X94488Y6890
X94488Y3937
X94488Y4921
X96457Y5906
T3
X90811Y2250
X87189Y2250
T4
X74524Y11220
X44524Y11220
X2524Y11220
X2524Y38780
X3508Y38780
X4492Y38780
X5476Y38780
X10492Y11220
X8524Y11220
X8524Y38780
X9508Y38780
X10492Y38780
X11476Y38780
X16492Y11220
X14524Y11220
X14524Y38780
X15508Y38780
X16492Y38780
X17476Y38780
X22492Y11220
X20524Y11220
X20524Y38780
X21508Y38780
X22492Y38780
X23476Y38780
X28492Y11220
X26524Y11220
X26524Y38780
X27508Y38780
X28492Y38780
X29476Y38780
X34492Y11220
X32524Y11220
X32524Y38780
X33508Y38780
X34492Y38780
X35476Y38780
X40492Y11220
X38524Y11220
X38524Y38780
X39508Y38780
X40492Y38780
X41476Y38780
X46492Y11220
X4492Y11220
X44524Y38780
X45508Y38780
X46492Y38780
X47476Y38780
X52492Y11220
X50524Y11220
X50524Y38780
X51508Y38780
X52492Y38780
X53476Y38780
X58492Y11220
X56524Y11220
X56524Y38780
X95476Y38780
X94492Y38780
X93508Y38780
X92524Y38780
X92524Y11220
X94492Y11220
X89476Y38780
X88492Y38780
X87508Y38780
X86524Y38780
X86524Y11220
X88492Y11220
X83476Y38780
X82492Y38780
X81508Y38780
X80524Y38780
X80524Y11220
X82492Y11220
X77476Y38780
X76492Y38780
X75508Y38780
X74524Y38780
X57508Y38780
X76492Y11220
X71476Y38780
X70492Y38780
X69508Y38780
X68524Y38780
X68524Y11220
X70492Y11220
X65476Y38780
X64492Y38780
X63508Y38780
X62524Y38780
X62524Y11220
X64492Y11220
X59476Y38780
X58492Y38780
T5
X10000Y8750
X7000Y5750
X8000Y5750
X7000Y6750
X8000Y6750
X9000Y6750
X10000Y6750
X11000Y6750
X12000Y6750
X9000Y5750
X10000Y5750
X11000Y5750
X12000Y5750
X13000Y6750
X13000Y5750
X6000Y7750
X5000Y7750
X4000Y7750
X2000Y7750
X1000Y8750
X2000Y8750
X3000Y8750
X4000Y8750
X5000Y8750
X6000Y8750
X7000Y8750
X8000Y8750
X9000Y8750
X1000Y2750
X11000Y8750
X12000Y8750
X13000Y8750
X14000Y8750
X14000Y7750
X14000Y6750
X14000Y5750
X14000Y4750
X14000Y3750
X14000Y2750
X13000Y2750
X12000Y2750
X11000Y2750
X10000Y2750
X9000Y2750
X8000Y2750
X7000Y2750
X6000Y2750
X5000Y2750
X4000Y2750
X3000Y2750
X2000Y2750
T6
X89787Y1856
X89787Y2644
X89000Y1856
X89000Y2644
X88213Y1856
X88213Y2644
T7
X68000Y6000
X59750Y6000
X39125Y5750
X38500Y5000
X52125Y6250
X51500Y6000
X60375Y6375
X85125Y6375
X84500Y6000
X76875Y6625
X76250Y6000
X68676Y6301
X43875Y6375
X43250Y6000
X35625Y6500
X35000Y5971
X27375Y6500
X26750Y5971
X19250Y7250
X21032Y5532
X82750Y7625
X82750Y3000
X74500Y7625
X74500Y3000
X66250Y7625
X66250Y3000
X58000Y7500
X58000Y3000
X49750Y7500
X49750Y3000
X41500Y7500
X41500Y3000
X33250Y7500
X33250Y3000
X25000Y7500
X25000Y3000
X549Y10000
X80000Y5750
X4500Y10125
X79500Y5000
X5000Y10500
X72000Y5750
X71500Y5000
X63500Y6000
X63000Y5000
X55625Y5750
X55000Y5000
X47750Y6000
X46500Y5000
X30500Y5750
X30000Y5000
X22875Y6000
X15250Y8000
X22375Y5500
X19875Y5250
X25125Y8000
X26875Y6625
X59875Y6625
X68125Y6625
X84625Y6625
X76250Y6625
X49125Y10500
X51500Y6625
X35000Y6750
X33375Y8375
X70375Y4875
X74500Y10500
M30