M48
;GenerationSoftware,Autodesk,EAGLE,9.1.1*%
;CreationDate,2018-07-17T22:26:03Z*%
FMAT,2
ICI,OFF
INCH,TZ,00.0000
T3C0.0472
T2C0.0787
T1C0.0984
%
G90
M72
T1
X49000Y46500
X49000Y1000
X73000Y25000
X25000Y25000
X97000Y46500
X1000Y46500
X97000Y1000
X1000Y1000
T2
X70000Y34843
X70000Y16142
X64000Y34843
X64000Y16142
X58000Y34843
X58000Y16142
X52000Y34843
X52000Y16142
X46000Y34843
X46000Y16142
X40000Y34843
X40000Y16142
X34000Y34843
X34000Y16142
X28000Y34843
X28000Y16142
X22000Y34843
X94000Y34843
X16000Y34843
X16000Y16142
X10000Y34843
X10000Y16142
X4000Y34843
X4000Y16142
X22000Y16142
X94000Y16142
X88000Y34843
X88000Y16142
X82000Y34843
X82000Y16142
X76000Y34843
X76000Y16142
T3
X21844Y2000
X19875Y3969
X21844Y1016
X17906Y1016
X17906Y2000
X94488Y5906
X96457Y7874
X97441Y7874
X97441Y3937
X96457Y3937
M30