G04 EAGLE Gerber X2 export*
%TF.Part,Single*%
%TF.FileFunction,Legend,Top,1*%
%TF.FilePolarity,Positive*%
%TF.GenerationSoftware,Autodesk,EAGLE,9.1.1*%
%TF.CreationDate,2018-07-17T22:26:14Z*%
G75*
%MOIN*%
%FSLAX36Y36*%
%LPD*%
%AMOC8*
5,1,8,0,0,1.08239X$1,22.5*%
G01*
%ADD10C,0.012000*%
%ADD11C,0.016000*%
%ADD12C,0.004000*%
%ADD13C,0.006000*%
%ADD14C,0.003000*%
%ADD15C,0.005000*%
%ADD16C,0.019000*%
%ADD17C,0.082000*%
%ADD18C,0.008000*%
%ADD19C,0.010000*%

G36*
X1824996Y832540D02*
X1824996Y832540D01*
X1825454Y832542D01*
X1825458Y832544D01*
X1825462Y832544D01*
X1825877Y832702D01*
X1826281Y832854D01*
X1826284Y832857D01*
X1826288Y832858D01*
X1826860Y833331D01*
X1861860Y872331D01*
X1862009Y872572D01*
X1862188Y872792D01*
X1862240Y872945D01*
X1862325Y873082D01*
X1862381Y873360D01*
X1862472Y873629D01*
X1862467Y873790D01*
X1862499Y873949D01*
X1862454Y874229D01*
X1862446Y874512D01*
X1862386Y874662D01*
X1862360Y874822D01*
X1862221Y875069D01*
X1862115Y875332D01*
X1862006Y875451D01*
X1861927Y875592D01*
X1861710Y875775D01*
X1861519Y875984D01*
X1861376Y876058D01*
X1861252Y876163D01*
X1860986Y876259D01*
X1860734Y876389D01*
X1860551Y876417D01*
X1860421Y876463D01*
X1860248Y876462D01*
X1860000Y876499D01*
X1793000Y876499D01*
X1792775Y876459D01*
X1792546Y876458D01*
X1792343Y876381D01*
X1792130Y876343D01*
X1791933Y876227D01*
X1791719Y876146D01*
X1791556Y876004D01*
X1791369Y875894D01*
X1791225Y875716D01*
X1791052Y875566D01*
X1790949Y875376D01*
X1790812Y875208D01*
X1790739Y874991D01*
X1790629Y874790D01*
X1790598Y874576D01*
X1790528Y874371D01*
X1790535Y874142D01*
X1790502Y873916D01*
X1790548Y873704D01*
X1790554Y873488D01*
X1790640Y873276D01*
X1790688Y873052D01*
X1790819Y872831D01*
X1790885Y872668D01*
X1790976Y872569D01*
X1791068Y872415D01*
X1823068Y833415D01*
X1823071Y833412D01*
X1823073Y833408D01*
X1823409Y833124D01*
X1823740Y832841D01*
X1823744Y832840D01*
X1823748Y832837D01*
X1824152Y832691D01*
X1824570Y832538D01*
X1824575Y832538D01*
X1824579Y832537D01*
X1824996Y832540D01*
G37*
G36*
X1924996Y832540D02*
X1924996Y832540D01*
X1925454Y832542D01*
X1925458Y832544D01*
X1925462Y832544D01*
X1925877Y832702D01*
X1926281Y832854D01*
X1926284Y832857D01*
X1926288Y832858D01*
X1926860Y833331D01*
X1961860Y872331D01*
X1962009Y872572D01*
X1962188Y872792D01*
X1962240Y872945D01*
X1962325Y873082D01*
X1962381Y873360D01*
X1962472Y873629D01*
X1962467Y873790D01*
X1962499Y873949D01*
X1962454Y874229D01*
X1962446Y874512D01*
X1962386Y874662D01*
X1962360Y874822D01*
X1962221Y875069D01*
X1962115Y875332D01*
X1962006Y875451D01*
X1961927Y875592D01*
X1961710Y875775D01*
X1961519Y875984D01*
X1961376Y876058D01*
X1961252Y876163D01*
X1960986Y876259D01*
X1960734Y876389D01*
X1960551Y876417D01*
X1960421Y876463D01*
X1960248Y876462D01*
X1960000Y876499D01*
X1893000Y876499D01*
X1892775Y876459D01*
X1892546Y876458D01*
X1892343Y876381D01*
X1892130Y876343D01*
X1891933Y876227D01*
X1891719Y876146D01*
X1891556Y876004D01*
X1891369Y875894D01*
X1891225Y875716D01*
X1891052Y875566D01*
X1890949Y875376D01*
X1890812Y875208D01*
X1890739Y874991D01*
X1890629Y874790D01*
X1890598Y874576D01*
X1890528Y874371D01*
X1890535Y874142D01*
X1890502Y873916D01*
X1890548Y873704D01*
X1890554Y873488D01*
X1890640Y873276D01*
X1890688Y873052D01*
X1890819Y872831D01*
X1890885Y872668D01*
X1890976Y872569D01*
X1891068Y872415D01*
X1923068Y833415D01*
X1923071Y833412D01*
X1923073Y833408D01*
X1923409Y833124D01*
X1923740Y832841D01*
X1923744Y832840D01*
X1923748Y832837D01*
X1924152Y832691D01*
X1924570Y832538D01*
X1924575Y832538D01*
X1924579Y832537D01*
X1924996Y832540D01*
G37*
G36*
X2124996Y832540D02*
X2124996Y832540D01*
X2125454Y832542D01*
X2125458Y832544D01*
X2125462Y832544D01*
X2125877Y832702D01*
X2126281Y832854D01*
X2126284Y832857D01*
X2126288Y832858D01*
X2126860Y833331D01*
X2161860Y872331D01*
X2162009Y872572D01*
X2162188Y872792D01*
X2162240Y872945D01*
X2162325Y873082D01*
X2162381Y873360D01*
X2162472Y873629D01*
X2162467Y873790D01*
X2162499Y873949D01*
X2162454Y874229D01*
X2162446Y874512D01*
X2162386Y874662D01*
X2162360Y874822D01*
X2162221Y875069D01*
X2162115Y875332D01*
X2162006Y875451D01*
X2161927Y875592D01*
X2161710Y875775D01*
X2161519Y875984D01*
X2161376Y876058D01*
X2161252Y876163D01*
X2160986Y876259D01*
X2160734Y876389D01*
X2160551Y876417D01*
X2160421Y876463D01*
X2160248Y876462D01*
X2160000Y876499D01*
X2093000Y876499D01*
X2092775Y876459D01*
X2092546Y876458D01*
X2092343Y876381D01*
X2092130Y876343D01*
X2091933Y876227D01*
X2091719Y876146D01*
X2091556Y876004D01*
X2091369Y875894D01*
X2091225Y875716D01*
X2091052Y875566D01*
X2090949Y875376D01*
X2090812Y875208D01*
X2090739Y874991D01*
X2090629Y874790D01*
X2090598Y874576D01*
X2090528Y874371D01*
X2090535Y874142D01*
X2090502Y873916D01*
X2090548Y873704D01*
X2090554Y873488D01*
X2090640Y873276D01*
X2090688Y873052D01*
X2090819Y872831D01*
X2090885Y872668D01*
X2090976Y872569D01*
X2091068Y872415D01*
X2123068Y833415D01*
X2123071Y833412D01*
X2123073Y833408D01*
X2123409Y833124D01*
X2123740Y832841D01*
X2123744Y832840D01*
X2123748Y832837D01*
X2124152Y832691D01*
X2124570Y832538D01*
X2124575Y832538D01*
X2124579Y832537D01*
X2124996Y832540D01*
G37*
G36*
X2024996Y832540D02*
X2024996Y832540D01*
X2025454Y832542D01*
X2025458Y832544D01*
X2025462Y832544D01*
X2025877Y832702D01*
X2026281Y832854D01*
X2026284Y832857D01*
X2026288Y832858D01*
X2026860Y833331D01*
X2061860Y872331D01*
X2062009Y872572D01*
X2062188Y872792D01*
X2062240Y872945D01*
X2062325Y873082D01*
X2062381Y873360D01*
X2062472Y873629D01*
X2062467Y873790D01*
X2062499Y873949D01*
X2062454Y874229D01*
X2062446Y874512D01*
X2062386Y874662D01*
X2062360Y874822D01*
X2062221Y875069D01*
X2062115Y875332D01*
X2062006Y875451D01*
X2061927Y875592D01*
X2061710Y875775D01*
X2061519Y875984D01*
X2061376Y876058D01*
X2061252Y876163D01*
X2060986Y876259D01*
X2060734Y876389D01*
X2060551Y876417D01*
X2060421Y876463D01*
X2060248Y876462D01*
X2060000Y876499D01*
X1993000Y876499D01*
X1992775Y876459D01*
X1992546Y876458D01*
X1992343Y876381D01*
X1992130Y876343D01*
X1991933Y876227D01*
X1991719Y876146D01*
X1991556Y876004D01*
X1991369Y875894D01*
X1991225Y875716D01*
X1991052Y875566D01*
X1990949Y875376D01*
X1990812Y875208D01*
X1990739Y874991D01*
X1990629Y874790D01*
X1990598Y874576D01*
X1990528Y874371D01*
X1990535Y874142D01*
X1990502Y873916D01*
X1990548Y873704D01*
X1990554Y873488D01*
X1990640Y873276D01*
X1990688Y873052D01*
X1990819Y872831D01*
X1990885Y872668D01*
X1990976Y872569D01*
X1991068Y872415D01*
X2023068Y833415D01*
X2023071Y833412D01*
X2023073Y833408D01*
X2023409Y833124D01*
X2023740Y832841D01*
X2023744Y832840D01*
X2023748Y832837D01*
X2024152Y832691D01*
X2024570Y832538D01*
X2024575Y832538D01*
X2024579Y832537D01*
X2024996Y832540D01*
G37*
D10*
X9210823Y81000D02*
X9210823Y139717D01*
X9240181Y169075D01*
X9269540Y139717D01*
X9269540Y81000D01*
X9269540Y125038D02*
X9210823Y125038D01*
X8530213Y169075D02*
X8530213Y81000D01*
X8530213Y110358D02*
X8588929Y169075D01*
X8544892Y125038D02*
X8588929Y81000D01*
D11*
X7641366Y58000D02*
X7641366Y134065D01*
X7679399Y172097D01*
X7717431Y134065D01*
X7717431Y58000D01*
X7717431Y115049D02*
X7641366Y115049D01*
D12*
X7800712Y127000D02*
X7800712Y173039D01*
X7785366Y173039D02*
X7816059Y173039D01*
X7831405Y157693D02*
X7839078Y157693D01*
X7839078Y127000D01*
X7831405Y127000D02*
X7846752Y127000D01*
X7839078Y173039D02*
X7839078Y180712D01*
X7862098Y157693D02*
X7862098Y111654D01*
X7862098Y157693D02*
X7885118Y157693D01*
X7892791Y150020D01*
X7892791Y134673D01*
X7885118Y127000D01*
X7862098Y127000D01*
X7954177Y157693D02*
X7961850Y157693D01*
X7961850Y127000D01*
X7954177Y127000D02*
X7969523Y127000D01*
X7961850Y173039D02*
X7961850Y180712D01*
X7984869Y127000D02*
X8007889Y127000D01*
X8015562Y134673D01*
X8007889Y142346D01*
X7992543Y142346D01*
X7984869Y150020D01*
X7992543Y157693D01*
X8015562Y157693D01*
X8076948Y150020D02*
X8107641Y150020D01*
X8092294Y165366D02*
X8092294Y134673D01*
X8122987Y173039D02*
X8153680Y173039D01*
X8122987Y173039D02*
X8122987Y150020D01*
X8138334Y157693D01*
X8146007Y157693D01*
X8153680Y150020D01*
X8153680Y134673D01*
X8146007Y127000D01*
X8130660Y127000D01*
X8122987Y134673D01*
X8169026Y142346D02*
X8169026Y173039D01*
X8169026Y142346D02*
X8184373Y127000D01*
X8199719Y142346D01*
X8199719Y173039D01*
X7785366Y98039D02*
X7785366Y52000D01*
X7785366Y98039D02*
X7808386Y98039D01*
X7816059Y90366D01*
X7816059Y75020D01*
X7808386Y67346D01*
X7785366Y67346D01*
X7800712Y67346D02*
X7816059Y52000D01*
X7831405Y82693D02*
X7839078Y82693D01*
X7839078Y52000D01*
X7831405Y52000D02*
X7846752Y52000D01*
X7839078Y98039D02*
X7839078Y105712D01*
X7862098Y82693D02*
X7862098Y52000D01*
X7862098Y82693D02*
X7885118Y82693D01*
X7892791Y75020D01*
X7892791Y52000D01*
X7923484Y36654D02*
X7931157Y36654D01*
X7938830Y44327D01*
X7938830Y82693D01*
X7915811Y82693D01*
X7908137Y75020D01*
X7908137Y59673D01*
X7915811Y52000D01*
X7938830Y52000D01*
X8000216Y82693D02*
X8007889Y82693D01*
X8007889Y52000D01*
X8000216Y52000D02*
X8015562Y52000D01*
X8007889Y98039D02*
X8007889Y105712D01*
X8030909Y52000D02*
X8053928Y52000D01*
X8061602Y59673D01*
X8053928Y67346D01*
X8038582Y67346D01*
X8030909Y75020D01*
X8038582Y82693D01*
X8061602Y82693D01*
X8130660Y98039D02*
X8146007Y98039D01*
X8130660Y98039D02*
X8122987Y90366D01*
X8122987Y59673D01*
X8130660Y52000D01*
X8146007Y52000D01*
X8153680Y59673D01*
X8153680Y90366D01*
X8146007Y98039D01*
X8169026Y82693D02*
X8169026Y59673D01*
X8176700Y52000D01*
X8199719Y52000D01*
X8199719Y82693D01*
X8222739Y90366D02*
X8222739Y59673D01*
X8230412Y52000D01*
X8230412Y82693D02*
X8215066Y82693D01*
X7800712Y327000D02*
X7800712Y373039D01*
X7785366Y373039D02*
X7816059Y373039D01*
X7831405Y357693D02*
X7839078Y357693D01*
X7839078Y327000D01*
X7831405Y327000D02*
X7846752Y327000D01*
X7839078Y373039D02*
X7839078Y380712D01*
X7862098Y357693D02*
X7862098Y311654D01*
X7862098Y357693D02*
X7885118Y357693D01*
X7892791Y350020D01*
X7892791Y334673D01*
X7885118Y327000D01*
X7862098Y327000D01*
X7954177Y357693D02*
X7961850Y357693D01*
X7961850Y327000D01*
X7954177Y327000D02*
X7969523Y327000D01*
X7961850Y373039D02*
X7961850Y380712D01*
X7984869Y327000D02*
X8007889Y327000D01*
X8015562Y334673D01*
X8007889Y342346D01*
X7992543Y342346D01*
X7984869Y350020D01*
X7992543Y357693D01*
X8015562Y357693D01*
X8084621Y373039D02*
X8099968Y373039D01*
X8084621Y373039D02*
X8076948Y365366D01*
X8076948Y334673D01*
X8084621Y327000D01*
X8099968Y327000D01*
X8107641Y334673D01*
X8107641Y365366D01*
X8099968Y373039D01*
X8122987Y357693D02*
X8122987Y334673D01*
X8130660Y327000D01*
X8153680Y327000D01*
X8153680Y357693D01*
X8176700Y365366D02*
X8176700Y334673D01*
X8184373Y327000D01*
X8184373Y357693D02*
X8169026Y357693D01*
X7785366Y298039D02*
X7785366Y252000D01*
X7785366Y298039D02*
X7808386Y298039D01*
X7816059Y290366D01*
X7816059Y275020D01*
X7808386Y267346D01*
X7785366Y267346D01*
X7800712Y267346D02*
X7816059Y252000D01*
X7831405Y282693D02*
X7839078Y282693D01*
X7839078Y252000D01*
X7831405Y252000D02*
X7846752Y252000D01*
X7839078Y298039D02*
X7839078Y305712D01*
X7862098Y282693D02*
X7862098Y252000D01*
X7862098Y282693D02*
X7885118Y282693D01*
X7892791Y275020D01*
X7892791Y252000D01*
X7923484Y236654D02*
X7931157Y236654D01*
X7938830Y244327D01*
X7938830Y282693D01*
X7915811Y282693D01*
X7908137Y275020D01*
X7908137Y259673D01*
X7915811Y252000D01*
X7938830Y252000D01*
X8000216Y282693D02*
X8007889Y282693D01*
X8007889Y252000D01*
X8000216Y252000D02*
X8015562Y252000D01*
X8007889Y298039D02*
X8007889Y305712D01*
X8030909Y252000D02*
X8053928Y252000D01*
X8061602Y259673D01*
X8053928Y267346D01*
X8038582Y267346D01*
X8030909Y275020D01*
X8038582Y282693D01*
X8061602Y282693D01*
X8122987Y275020D02*
X8153680Y275020D01*
X8138334Y290366D02*
X8138334Y259673D01*
X8169026Y298039D02*
X8199719Y298039D01*
X8169026Y298039D02*
X8169026Y275020D01*
X8184373Y282693D01*
X8192046Y282693D01*
X8199719Y275020D01*
X8199719Y259673D01*
X8192046Y252000D01*
X8176700Y252000D01*
X8169026Y259673D01*
X8215066Y267346D02*
X8215066Y298039D01*
X8215066Y267346D02*
X8230412Y252000D01*
X8245758Y267346D01*
X8245758Y298039D01*
D11*
X7641366Y245500D02*
X7641366Y359597D01*
X7641366Y283532D02*
X7717431Y359597D01*
X7660382Y302549D02*
X7717431Y245500D01*
D13*
X7758366Y370000D02*
X7758366Y50000D01*
D14*
X6822877Y239000D02*
X6809866Y252011D01*
X6809866Y265022D01*
X6822877Y278033D01*
X6835648Y278033D02*
X6835648Y239000D01*
X6835648Y252011D02*
X6861670Y278033D01*
X6842154Y258517D02*
X6861670Y239000D01*
X6880827Y239000D02*
X6893838Y239000D01*
X6900343Y245506D01*
X6900343Y258517D01*
X6893838Y265022D01*
X6880827Y265022D01*
X6874321Y258517D01*
X6874321Y245506D01*
X6880827Y239000D01*
X6912994Y239000D02*
X6912994Y265022D01*
X6912994Y252011D02*
X6926005Y265022D01*
X6932511Y265022D01*
X6958233Y225989D02*
X6964738Y225989D01*
X6971244Y232494D01*
X6971244Y265022D01*
X6951727Y265022D01*
X6945222Y258517D01*
X6945222Y245506D01*
X6951727Y239000D01*
X6971244Y239000D01*
X6983895Y225989D02*
X6996906Y239000D01*
X6996906Y245506D01*
X6990400Y245506D01*
X6990400Y239000D01*
X6996906Y239000D01*
X7048350Y239000D02*
X7048350Y278033D01*
X7061361Y265022D01*
X7074372Y278033D01*
X7074372Y239000D01*
X7093528Y265022D02*
X7106539Y265022D01*
X7113045Y258517D01*
X7113045Y239000D01*
X7093528Y239000D01*
X7087023Y245506D01*
X7093528Y252011D01*
X7113045Y252011D01*
X7125695Y239000D02*
X7125695Y278033D01*
X7125695Y252011D02*
X7145212Y239000D01*
X7125695Y252011D02*
X7145212Y265022D01*
X7164429Y239000D02*
X7177440Y239000D01*
X7164429Y239000D02*
X7157923Y245506D01*
X7157923Y258517D01*
X7164429Y265022D01*
X7177440Y265022D01*
X7183945Y258517D01*
X7183945Y252011D01*
X7157923Y252011D01*
X7196596Y239000D02*
X7196596Y265022D01*
X7216113Y265022D01*
X7222618Y258517D01*
X7222618Y239000D01*
X7241774Y239000D02*
X7254786Y239000D01*
X7261291Y245506D01*
X7261291Y258517D01*
X7254786Y265022D01*
X7241774Y265022D01*
X7235269Y258517D01*
X7235269Y245506D01*
X7241774Y239000D01*
X7273942Y265022D02*
X7280447Y265022D01*
X7280447Y239000D01*
X7273942Y239000D02*
X7286953Y239000D01*
X7280447Y278033D02*
X7280447Y284539D01*
X7299724Y239000D02*
X7319241Y239000D01*
X7325746Y245506D01*
X7319241Y252011D01*
X7306229Y252011D01*
X7299724Y258517D01*
X7306229Y265022D01*
X7325746Y265022D01*
X7344902Y239000D02*
X7357914Y239000D01*
X7344902Y239000D02*
X7338397Y245506D01*
X7338397Y258517D01*
X7344902Y265022D01*
X7357914Y265022D01*
X7364419Y258517D01*
X7364419Y252011D01*
X7338397Y252011D01*
X7377070Y225989D02*
X7390081Y239000D01*
X7390081Y245506D01*
X7383575Y245506D01*
X7383575Y239000D01*
X7390081Y239000D01*
X7448030Y239000D02*
X7461041Y239000D01*
X7448030Y239000D02*
X7441525Y245506D01*
X7441525Y258517D01*
X7448030Y265022D01*
X7461041Y265022D01*
X7467547Y258517D01*
X7467547Y252011D01*
X7441525Y252011D01*
X7486703Y245506D02*
X7486703Y271528D01*
X7486703Y245506D02*
X7493209Y239000D01*
X7493209Y265022D02*
X7480198Y265022D01*
X7512485Y265022D02*
X7532002Y265022D01*
X7512485Y265022D02*
X7505980Y258517D01*
X7505980Y245506D01*
X7512485Y239000D01*
X7532002Y239000D01*
X7544653Y239000D02*
X7557664Y252011D01*
X7557664Y265022D01*
X7544653Y278033D01*
X6822877Y51500D02*
X6809866Y64511D01*
X6809866Y77522D01*
X6822877Y90533D01*
X6835648Y77522D02*
X6835648Y51500D01*
X6835648Y77522D02*
X6848659Y90533D01*
X6861670Y77522D01*
X6861670Y51500D01*
X6861670Y71017D02*
X6835648Y71017D01*
X6874321Y77522D02*
X6874321Y51500D01*
X6874321Y64511D02*
X6887332Y77522D01*
X6893838Y77522D01*
X6913054Y84028D02*
X6913054Y58006D01*
X6919560Y51500D01*
X6919560Y77522D02*
X6906549Y77522D01*
X6932331Y77522D02*
X6932331Y58006D01*
X6938836Y51500D01*
X6958353Y51500D01*
X6958353Y77522D01*
X6971004Y77522D02*
X6971004Y51500D01*
X6971004Y64511D02*
X6984015Y77522D01*
X6990520Y77522D01*
X7003231Y77522D02*
X7009737Y77522D01*
X7009737Y51500D01*
X7016242Y51500D02*
X7003231Y51500D01*
X7009737Y90533D02*
X7009737Y97039D01*
X7035519Y77522D02*
X7048530Y77522D01*
X7055035Y71017D01*
X7055035Y51500D01*
X7035519Y51500D01*
X7029013Y58006D01*
X7035519Y64511D01*
X7055035Y64511D01*
X7080697Y51500D02*
X7067686Y38489D01*
X7080697Y51500D02*
X7080697Y58006D01*
X7074192Y58006D01*
X7074192Y51500D01*
X7080697Y51500D01*
X7132141Y51500D02*
X7132141Y90533D01*
X7158163Y51500D01*
X7158163Y90533D01*
X7177320Y51500D02*
X7190331Y51500D01*
X7196836Y58006D01*
X7196836Y71017D01*
X7190331Y77522D01*
X7177320Y77522D01*
X7170814Y71017D01*
X7170814Y58006D01*
X7177320Y51500D01*
X7209487Y77522D02*
X7222498Y51500D01*
X7235509Y77522D01*
X7254665Y77522D02*
X7267677Y77522D01*
X7274182Y71017D01*
X7274182Y51500D01*
X7254665Y51500D01*
X7248160Y58006D01*
X7254665Y64511D01*
X7274182Y64511D01*
X7293338Y58006D02*
X7293338Y84028D01*
X7293338Y58006D02*
X7299844Y51500D01*
X7299844Y77522D02*
X7286833Y77522D01*
X7312615Y77522D02*
X7319120Y77522D01*
X7319120Y51500D01*
X7312615Y51500D02*
X7325626Y51500D01*
X7319120Y90533D02*
X7319120Y97039D01*
X7344902Y51500D02*
X7357914Y51500D01*
X7364419Y58006D01*
X7364419Y71017D01*
X7357914Y77522D01*
X7344902Y77522D01*
X7338397Y71017D01*
X7338397Y58006D01*
X7344902Y51500D01*
X7377070Y51500D02*
X7377070Y77522D01*
X7396586Y77522D01*
X7403092Y71017D01*
X7403092Y51500D01*
X7415743Y38489D02*
X7428754Y51500D01*
X7428754Y58006D01*
X7422248Y58006D01*
X7422248Y51500D01*
X7428754Y51500D01*
X7486703Y51500D02*
X7499714Y51500D01*
X7486703Y51500D02*
X7480198Y58006D01*
X7480198Y71017D01*
X7486703Y77522D01*
X7499714Y77522D01*
X7506220Y71017D01*
X7506220Y64511D01*
X7480198Y64511D01*
X7525376Y58006D02*
X7525376Y84028D01*
X7525376Y58006D02*
X7531882Y51500D01*
X7531882Y77522D02*
X7518871Y77522D01*
X7551158Y77522D02*
X7570675Y77522D01*
X7551158Y77522D02*
X7544653Y71017D01*
X7544653Y58006D01*
X7551158Y51500D01*
X7570675Y51500D01*
X7583326Y51500D02*
X7596337Y64511D01*
X7596337Y77522D01*
X7583326Y90533D01*
D15*
X1906627Y626698D02*
X1897453Y617523D01*
X1897453Y599174D01*
X1906627Y590000D01*
X1915802Y590000D01*
X1924977Y599174D01*
X1924977Y617523D01*
X1934151Y626698D01*
X1943326Y626698D01*
X1952500Y617523D01*
X1952500Y599174D01*
X1943326Y590000D01*
X1897453Y672771D02*
X1906627Y681945D01*
X1897453Y672771D02*
X1897453Y654422D01*
X1906627Y645247D01*
X1943326Y645247D01*
X1952500Y654422D01*
X1952500Y672771D01*
X1943326Y681945D01*
X1952500Y700494D02*
X1897453Y700494D01*
X1952500Y700494D02*
X1952500Y737192D01*
X2006627Y626698D02*
X1997453Y617523D01*
X1997453Y599174D01*
X2006627Y590000D01*
X2015802Y590000D01*
X2024977Y599174D01*
X2024977Y617523D01*
X2034151Y626698D01*
X2043326Y626698D01*
X2052500Y617523D01*
X2052500Y599174D01*
X2043326Y590000D01*
X2052500Y645247D02*
X1997453Y645247D01*
X2052500Y645247D02*
X2052500Y672771D01*
X2043326Y681945D01*
X2006627Y681945D01*
X1997453Y672771D01*
X1997453Y645247D01*
X2015802Y700494D02*
X2052500Y700494D01*
X2015802Y700494D02*
X1997453Y718843D01*
X2015802Y737192D01*
X2052500Y737192D01*
X2024977Y737192D02*
X2024977Y700494D01*
X2097453Y626698D02*
X2097453Y590000D01*
X2124977Y590000D01*
X2115802Y608349D01*
X2115802Y617523D01*
X2124977Y626698D01*
X2143326Y626698D01*
X2152500Y617523D01*
X2152500Y599174D01*
X2143326Y590000D01*
X2134151Y645247D02*
X2097453Y645247D01*
X2134151Y645247D02*
X2152500Y663596D01*
X2134151Y681945D01*
X2097453Y681945D01*
X1806627Y626698D02*
X1797453Y617523D01*
X1797453Y599174D01*
X1806627Y590000D01*
X1843326Y590000D01*
X1852500Y599174D01*
X1852500Y617523D01*
X1843326Y626698D01*
X1824977Y626698D01*
X1824977Y608349D01*
X1852500Y645247D02*
X1797453Y645247D01*
X1852500Y681945D01*
X1797453Y681945D01*
X1797453Y700494D02*
X1852500Y700494D01*
X1852500Y728018D01*
X1843326Y737192D01*
X1806627Y737192D01*
X1797453Y728018D01*
X1797453Y700494D01*
D16*
X4696104Y425377D02*
X4721793Y451066D01*
X4721793Y374000D01*
X4696104Y374000D02*
X4747482Y374000D01*
X4810189Y438221D02*
X4835877Y451066D01*
X4810189Y438221D02*
X4784500Y412533D01*
X4784500Y386844D01*
X4797344Y374000D01*
X4823033Y374000D01*
X4835877Y386844D01*
X4835877Y399689D01*
X4823033Y412533D01*
X4784500Y412533D01*
D17*
X4725000Y312500D02*
X4725000Y87500D01*
X5075000Y87500D02*
X5075000Y287500D01*
X5075000Y350000D01*
X5012500Y412500D01*
X4975000Y412500D01*
X4962500Y412500D02*
X4900000Y412500D01*
D13*
X2299352Y158000D02*
X2278000Y158000D01*
X2288676Y158000D02*
X2288676Y222055D01*
X2278000Y222055D02*
X2299352Y222055D01*
X2320970Y158000D02*
X2363673Y158000D01*
X2320970Y158000D02*
X2363673Y200703D01*
X2363673Y211379D01*
X2352997Y222055D01*
X2331646Y222055D01*
X2320970Y211379D01*
X2417452Y222055D02*
X2428128Y211379D01*
X2417452Y222055D02*
X2396101Y222055D01*
X2385425Y211379D01*
X2385425Y168676D01*
X2396101Y158000D01*
X2417452Y158000D01*
X2428128Y168676D01*
X2449880Y200703D02*
X2460556Y200703D01*
X2460556Y190027D01*
X2449880Y190027D01*
X2449880Y200703D01*
X2449880Y168676D02*
X2460556Y168676D01*
X2460556Y158000D01*
X2449880Y158000D01*
X2449880Y168676D01*
X2567914Y158000D02*
X2567914Y222055D01*
X2546562Y222055D02*
X2589266Y222055D01*
X2611017Y200703D02*
X2621693Y200703D01*
X2621693Y158000D01*
X2611017Y158000D02*
X2632369Y158000D01*
X2621693Y222055D02*
X2621693Y232730D01*
X2653987Y200703D02*
X2653987Y136648D01*
X2653987Y200703D02*
X2686015Y200703D01*
X2696690Y190027D01*
X2696690Y168676D01*
X2686015Y158000D01*
X2653987Y158000D01*
X2814925Y222055D02*
X2825600Y211379D01*
X2814925Y222055D02*
X2793573Y222055D01*
X2782897Y211379D01*
X2782897Y200703D01*
X2793573Y190027D01*
X2814925Y190027D01*
X2825600Y179352D01*
X2825600Y168676D01*
X2814925Y158000D01*
X2793573Y158000D01*
X2782897Y168676D01*
X2847352Y158000D02*
X2847352Y222055D01*
X2847352Y158000D02*
X2879380Y158000D01*
X2890055Y168676D01*
X2890055Y211379D01*
X2879380Y222055D01*
X2847352Y222055D01*
X2911807Y200703D02*
X2911807Y158000D01*
X2911807Y200703D02*
X2933159Y222055D01*
X2954510Y200703D01*
X2954510Y158000D01*
X2954510Y190027D02*
X2911807Y190027D01*
X2976262Y136648D02*
X2997614Y158000D01*
X2997614Y168676D01*
X2986938Y168676D01*
X2986938Y158000D01*
X2997614Y158000D01*
X3083687Y158000D02*
X3083687Y222055D01*
X3115714Y222055D01*
X3126390Y211379D01*
X3126390Y190027D01*
X3115714Y179352D01*
X3083687Y179352D01*
X3105039Y179352D02*
X3126390Y158000D01*
X3148142Y200703D02*
X3158818Y200703D01*
X3158818Y158000D01*
X3148142Y158000D02*
X3169494Y158000D01*
X3158818Y222055D02*
X3158818Y232730D01*
X3191112Y200703D02*
X3191112Y158000D01*
X3191112Y200703D02*
X3223139Y200703D01*
X3233815Y190027D01*
X3233815Y158000D01*
X3276919Y136648D02*
X3287594Y136648D01*
X3298270Y147324D01*
X3298270Y200703D01*
X3266243Y200703D01*
X3255567Y190027D01*
X3255567Y168676D01*
X3266243Y158000D01*
X3298270Y158000D01*
X3416504Y222055D02*
X3427180Y211379D01*
X3416504Y222055D02*
X3395153Y222055D01*
X3384477Y211379D01*
X3384477Y200703D01*
X3395153Y190027D01*
X3416504Y190027D01*
X3427180Y179352D01*
X3427180Y168676D01*
X3416504Y158000D01*
X3395153Y158000D01*
X3384477Y168676D01*
X3480959Y222055D02*
X3491635Y211379D01*
X3480959Y222055D02*
X3459608Y222055D01*
X3448932Y211379D01*
X3448932Y168676D01*
X3459608Y158000D01*
X3480959Y158000D01*
X3491635Y168676D01*
X3513387Y158000D02*
X3513387Y222055D01*
X3513387Y158000D02*
X3556090Y158000D01*
X2278000Y117055D02*
X2278000Y53000D01*
X2310027Y53000D01*
X2320703Y63676D01*
X2320703Y106379D01*
X2310027Y117055D01*
X2278000Y117055D01*
X2353131Y117055D02*
X2374482Y117055D01*
X2353131Y117055D02*
X2342455Y106379D01*
X2342455Y63676D01*
X2353131Y53000D01*
X2374482Y53000D01*
X2385158Y63676D01*
X2385158Y106379D01*
X2374482Y117055D01*
X2471365Y117055D02*
X2471365Y53000D01*
X2514068Y53000D02*
X2471365Y117055D01*
X2514068Y117055D02*
X2514068Y53000D01*
X2546496Y117055D02*
X2567847Y117055D01*
X2546496Y117055D02*
X2535820Y106379D01*
X2535820Y63676D01*
X2546496Y53000D01*
X2567847Y53000D01*
X2578523Y63676D01*
X2578523Y106379D01*
X2567847Y117055D01*
X2621626Y117055D02*
X2621626Y53000D01*
X2600275Y117055D02*
X2642978Y117055D01*
X2729185Y117055D02*
X2729185Y53000D01*
X2729185Y85027D02*
X2771888Y85027D01*
X2771888Y53000D02*
X2771888Y117055D01*
X2804315Y117055D02*
X2825667Y117055D01*
X2804315Y117055D02*
X2793640Y106379D01*
X2793640Y63676D01*
X2804315Y53000D01*
X2825667Y53000D01*
X2836343Y63676D01*
X2836343Y106379D01*
X2825667Y117055D01*
X2879446Y117055D02*
X2879446Y53000D01*
X2858095Y117055D02*
X2900798Y117055D01*
X2987005Y117055D02*
X2987005Y53000D01*
X2987005Y117055D02*
X3019032Y117055D01*
X3029708Y106379D01*
X3029708Y85027D01*
X3019032Y74352D01*
X2987005Y74352D01*
X3051460Y53000D02*
X3051460Y117055D01*
X3051460Y53000D02*
X3094163Y53000D01*
X3115915Y63676D02*
X3115915Y117055D01*
X3115915Y63676D02*
X3126590Y53000D01*
X3147942Y53000D01*
X3158618Y63676D01*
X3158618Y117055D01*
X3212397Y117055D02*
X3223073Y106379D01*
X3212397Y117055D02*
X3191045Y117055D01*
X3180370Y106379D01*
X3180370Y63676D01*
X3191045Y53000D01*
X3212397Y53000D01*
X3223073Y63676D01*
X3223073Y85027D01*
X3201721Y85027D01*
X9578000Y865500D02*
X9578000Y929555D01*
X9599352Y908203D01*
X9620703Y929555D01*
X9620703Y865500D01*
X9642455Y865500D02*
X9663806Y865500D01*
X9653131Y865500D02*
X9653131Y929555D01*
X9663806Y929555D02*
X9642455Y929555D01*
X9685425Y929555D02*
X9685425Y865500D01*
X9717452Y865500D01*
X9728128Y876176D01*
X9728128Y918879D01*
X9717452Y929555D01*
X9685425Y929555D01*
X9749880Y865500D02*
X9771231Y865500D01*
X9760556Y865500D02*
X9760556Y929555D01*
X9771231Y929555D02*
X9749880Y929555D01*
X1688411Y70500D02*
X1667060Y70500D01*
X1677736Y70500D02*
X1677736Y134555D01*
X1688411Y134555D02*
X1667060Y134555D01*
X1710030Y70500D02*
X1731381Y70500D01*
X1720706Y70500D02*
X1720706Y134555D01*
X1731381Y134555D02*
X1710030Y134555D01*
D18*
X100000Y525000D02*
X100000Y625000D01*
X50000Y625000D01*
X50000Y925000D01*
X1450000Y925000D01*
X1450000Y225000D01*
X50000Y225000D01*
X50000Y525000D01*
X100000Y525000D01*
D15*
X9222835Y1023622D02*
X9222835Y3976378D01*
X9577165Y3976378D01*
X9577165Y1023622D01*
X9222835Y1023622D01*
X8622835Y1023622D02*
X8622835Y3976378D01*
X8977165Y3976378D01*
X8977165Y1023622D01*
X8622835Y1023622D01*
X8022835Y1023622D02*
X8022835Y3976378D01*
X8377165Y3976378D01*
X8377165Y1023622D01*
X8022835Y1023622D01*
X7422835Y1023622D02*
X7422835Y3976378D01*
X7777165Y3976378D01*
X7777165Y1023622D01*
X7422835Y1023622D01*
X6822835Y1023622D02*
X6822835Y3976378D01*
X7177165Y3976378D01*
X7177165Y1023622D01*
X6822835Y1023622D01*
X6222835Y1023622D02*
X6222835Y3976378D01*
X6577165Y3976378D01*
X6577165Y1023622D01*
X6222835Y1023622D01*
X5622835Y1023622D02*
X5622835Y3976378D01*
X5977165Y3976378D01*
X5977165Y1023622D01*
X5622835Y1023622D01*
X5022835Y1023622D02*
X5022835Y3976378D01*
X5377165Y3976378D01*
X5377165Y1023622D01*
X5022835Y1023622D01*
X4422835Y1023622D02*
X4422835Y3976378D01*
X4777165Y3976378D01*
X4777165Y1023622D01*
X4422835Y1023622D01*
X3822835Y1023622D02*
X3822835Y3976378D01*
X4177165Y3976378D01*
X4177165Y1023622D01*
X3822835Y1023622D01*
X3222835Y1023622D02*
X3222835Y3976378D01*
X3577165Y3976378D01*
X3577165Y1023622D01*
X3222835Y1023622D01*
X2622835Y1023622D02*
X2622835Y3976378D01*
X2977165Y3976378D01*
X2977165Y1023622D01*
X2622835Y1023622D01*
X2022835Y1023622D02*
X2022835Y3976378D01*
X2377165Y3976378D01*
X2377165Y1023622D01*
X2022835Y1023622D01*
X1422835Y1023622D02*
X1422835Y3976378D01*
X1777165Y3976378D01*
X1777165Y1023622D01*
X1422835Y1023622D01*
X822835Y1023622D02*
X822835Y3976378D01*
X1177165Y3976378D01*
X1177165Y1023622D01*
X822835Y1023622D01*
X222835Y1023622D02*
X222835Y3976378D01*
X577165Y3976378D01*
X577165Y1023622D01*
X222835Y1023622D01*
D12*
X8962520Y585539D02*
X8962520Y539500D01*
X8939500Y562520D02*
X8962520Y585539D01*
X8970193Y562520D02*
X8939500Y562520D01*
X8985539Y585539D02*
X9016232Y585539D01*
X9016232Y577866D01*
X8985539Y547173D01*
X8985539Y539500D01*
X8812520Y539500D02*
X8812520Y585539D01*
X8789500Y562520D01*
X8820193Y562520D01*
X8835539Y585539D02*
X8866232Y585539D01*
X8866232Y577866D01*
X8835539Y547173D01*
X8835539Y539500D01*
D18*
X9350394Y354331D02*
X9350394Y826772D01*
X9507874Y354331D02*
X9783465Y354331D01*
X9389764Y354331D02*
X9350394Y354331D01*
X9783465Y354331D02*
X9783465Y826772D01*
X9507874Y826772D01*
X9389764Y826772D02*
X9350394Y826772D01*
D12*
X2164500Y952000D02*
X2164500Y998039D01*
X2164500Y952000D02*
X2187520Y952000D01*
X2195193Y959673D01*
X2195193Y990366D01*
X2187520Y998039D01*
X2164500Y998039D01*
X2210539Y998039D02*
X2210539Y952000D01*
X2241232Y952000D02*
X2210539Y998039D01*
X2241232Y998039D02*
X2241232Y952000D01*
X2256578Y952000D02*
X2256578Y998039D01*
X2279598Y998039D01*
X2287271Y990366D01*
X2287271Y975020D01*
X2279598Y967346D01*
X2256578Y967346D01*
X1664500Y952000D02*
X1664500Y998039D01*
X1664500Y952000D02*
X1687520Y952000D01*
X1695193Y959673D01*
X1695193Y990366D01*
X1687520Y998039D01*
X1664500Y998039D01*
X1710539Y998039D02*
X1710539Y952000D01*
X1741232Y952000D02*
X1710539Y998039D01*
X1741232Y998039D02*
X1741232Y952000D01*
X1756578Y952000D02*
X1756578Y998039D01*
X1779598Y998039D01*
X1787271Y990366D01*
X1787271Y975020D01*
X1779598Y967346D01*
X1756578Y967346D01*
D19*
X1991488Y828300D02*
X2058512Y828300D01*
X2091488Y828300D02*
X2158512Y828300D01*
X1958512Y828300D02*
X1891488Y828300D01*
X1858512Y828300D02*
X1791488Y828300D01*
D12*
X664500Y3932693D02*
X679846Y3948039D01*
X679846Y3902000D01*
X664500Y3902000D02*
X695193Y3902000D01*
X710539Y3902000D02*
X710539Y3948039D01*
X710539Y3917346D02*
X741232Y3948039D01*
X718212Y3925020D02*
X741232Y3902000D01*
X2788673Y854846D02*
X2804020Y839500D01*
X2788673Y854846D02*
X2834713Y854846D01*
X2834713Y839500D02*
X2834713Y870193D01*
X2827039Y885539D02*
X2796347Y885539D01*
X2788673Y893212D01*
X2788673Y908559D01*
X2796347Y916232D01*
X2827039Y916232D01*
X2834713Y908559D01*
X2834713Y893212D01*
X2827039Y885539D01*
X2796347Y916232D01*
X2788673Y931578D02*
X2834713Y931578D01*
X2819366Y931578D02*
X2788673Y962271D01*
X2811693Y939252D02*
X2834713Y962271D01*
X2701961Y870193D02*
X2701961Y839500D01*
X2724980Y839500D01*
X2717307Y854846D01*
X2717307Y862520D01*
X2724980Y870193D01*
X2740327Y870193D01*
X2748000Y862520D01*
X2748000Y847173D01*
X2740327Y839500D01*
X2740327Y885539D02*
X2748000Y885539D01*
X2740327Y885539D02*
X2740327Y893212D01*
X2748000Y893212D01*
X2748000Y885539D01*
X2709634Y923905D02*
X2701961Y939252D01*
X2709634Y923905D02*
X2724980Y908559D01*
X2740327Y908559D01*
X2748000Y916232D01*
X2748000Y931578D01*
X2740327Y939252D01*
X2732654Y939252D01*
X2724980Y931578D01*
X2724980Y908559D01*
X2701961Y954598D02*
X2748000Y954598D01*
X2732654Y954598D02*
X2701961Y985291D01*
X2724980Y962271D02*
X2748000Y985291D01*
X3614461Y854846D02*
X3629807Y839500D01*
X3614461Y854846D02*
X3660500Y854846D01*
X3660500Y839500D02*
X3660500Y870193D01*
X3652827Y885539D02*
X3622134Y885539D01*
X3614461Y893212D01*
X3614461Y908559D01*
X3622134Y916232D01*
X3652827Y916232D01*
X3660500Y908559D01*
X3660500Y893212D01*
X3652827Y885539D01*
X3622134Y916232D01*
X3614461Y931578D02*
X3660500Y931578D01*
X3645154Y931578D02*
X3614461Y962271D01*
X3637480Y939252D02*
X3660500Y962271D01*
X3526961Y870193D02*
X3526961Y839500D01*
X3549980Y839500D01*
X3542307Y854846D01*
X3542307Y862520D01*
X3549980Y870193D01*
X3565327Y870193D01*
X3573000Y862520D01*
X3573000Y847173D01*
X3565327Y839500D01*
X3565327Y885539D02*
X3573000Y885539D01*
X3565327Y885539D02*
X3565327Y893212D01*
X3573000Y893212D01*
X3573000Y885539D01*
X3534634Y923905D02*
X3526961Y939252D01*
X3534634Y923905D02*
X3549980Y908559D01*
X3565327Y908559D01*
X3573000Y916232D01*
X3573000Y931578D01*
X3565327Y939252D01*
X3557654Y939252D01*
X3549980Y931578D01*
X3549980Y908559D01*
X3526961Y954598D02*
X3573000Y954598D01*
X3557654Y954598D02*
X3526961Y985291D01*
X3549980Y962271D02*
X3573000Y985291D01*
X3064500Y3932693D02*
X3079846Y3948039D01*
X3079846Y3902000D01*
X3064500Y3902000D02*
X3095193Y3902000D01*
X3110539Y3902000D02*
X3110539Y3948039D01*
X3110539Y3917346D02*
X3141232Y3948039D01*
X3118212Y3925020D02*
X3141232Y3902000D01*
X4439461Y854846D02*
X4454807Y839500D01*
X4439461Y854846D02*
X4485500Y854846D01*
X4485500Y839500D02*
X4485500Y870193D01*
X4477827Y885539D02*
X4447134Y885539D01*
X4439461Y893212D01*
X4439461Y908559D01*
X4447134Y916232D01*
X4477827Y916232D01*
X4485500Y908559D01*
X4485500Y893212D01*
X4477827Y885539D01*
X4447134Y916232D01*
X4439461Y931578D02*
X4485500Y931578D01*
X4470154Y931578D02*
X4439461Y962271D01*
X4462480Y939252D02*
X4485500Y962271D01*
X4351961Y870193D02*
X4351961Y839500D01*
X4374980Y839500D01*
X4367307Y854846D01*
X4367307Y862520D01*
X4374980Y870193D01*
X4390327Y870193D01*
X4398000Y862520D01*
X4398000Y847173D01*
X4390327Y839500D01*
X4390327Y885539D02*
X4398000Y885539D01*
X4390327Y885539D02*
X4390327Y893212D01*
X4398000Y893212D01*
X4398000Y885539D01*
X4359634Y923905D02*
X4351961Y939252D01*
X4359634Y923905D02*
X4374980Y908559D01*
X4390327Y908559D01*
X4398000Y916232D01*
X4398000Y931578D01*
X4390327Y939252D01*
X4382654Y939252D01*
X4374980Y931578D01*
X4374980Y908559D01*
X4351961Y954598D02*
X4398000Y954598D01*
X4382654Y954598D02*
X4351961Y985291D01*
X4374980Y962271D02*
X4398000Y985291D01*
X4264500Y3932693D02*
X4279846Y3948039D01*
X4279846Y3902000D01*
X4264500Y3902000D02*
X4295193Y3902000D01*
X4310539Y3902000D02*
X4310539Y3948039D01*
X4310539Y3917346D02*
X4341232Y3948039D01*
X4318212Y3925020D02*
X4341232Y3902000D01*
X5264461Y854846D02*
X5279807Y839500D01*
X5264461Y854846D02*
X5310500Y854846D01*
X5310500Y839500D02*
X5310500Y870193D01*
X5302827Y885539D02*
X5272134Y885539D01*
X5264461Y893212D01*
X5264461Y908559D01*
X5272134Y916232D01*
X5302827Y916232D01*
X5310500Y908559D01*
X5310500Y893212D01*
X5302827Y885539D01*
X5272134Y916232D01*
X5264461Y931578D02*
X5310500Y931578D01*
X5295154Y931578D02*
X5264461Y962271D01*
X5287480Y939252D02*
X5310500Y962271D01*
X5176961Y870193D02*
X5176961Y839500D01*
X5199980Y839500D01*
X5192307Y854846D01*
X5192307Y862520D01*
X5199980Y870193D01*
X5215327Y870193D01*
X5223000Y862520D01*
X5223000Y847173D01*
X5215327Y839500D01*
X5215327Y885539D02*
X5223000Y885539D01*
X5215327Y885539D02*
X5215327Y893212D01*
X5223000Y893212D01*
X5223000Y885539D01*
X5184634Y923905D02*
X5176961Y939252D01*
X5184634Y923905D02*
X5199980Y908559D01*
X5215327Y908559D01*
X5223000Y916232D01*
X5223000Y931578D01*
X5215327Y939252D01*
X5207654Y939252D01*
X5199980Y931578D01*
X5199980Y908559D01*
X5176961Y954598D02*
X5223000Y954598D01*
X5207654Y954598D02*
X5176961Y985291D01*
X5199980Y962271D02*
X5223000Y985291D01*
X5464500Y3932693D02*
X5479846Y3948039D01*
X5479846Y3902000D01*
X5464500Y3902000D02*
X5495193Y3902000D01*
X5510539Y3902000D02*
X5510539Y3948039D01*
X5510539Y3917346D02*
X5541232Y3948039D01*
X5518212Y3925020D02*
X5541232Y3902000D01*
X6089461Y854846D02*
X6104807Y839500D01*
X6089461Y854846D02*
X6135500Y854846D01*
X6135500Y839500D02*
X6135500Y870193D01*
X6127827Y885539D02*
X6097134Y885539D01*
X6089461Y893212D01*
X6089461Y908559D01*
X6097134Y916232D01*
X6127827Y916232D01*
X6135500Y908559D01*
X6135500Y893212D01*
X6127827Y885539D01*
X6097134Y916232D01*
X6089461Y931578D02*
X6135500Y931578D01*
X6120154Y931578D02*
X6089461Y962271D01*
X6112480Y939252D02*
X6135500Y962271D01*
X6001961Y870193D02*
X6001961Y839500D01*
X6024980Y839500D01*
X6017307Y854846D01*
X6017307Y862520D01*
X6024980Y870193D01*
X6040327Y870193D01*
X6048000Y862520D01*
X6048000Y847173D01*
X6040327Y839500D01*
X6040327Y885539D02*
X6048000Y885539D01*
X6040327Y885539D02*
X6040327Y893212D01*
X6048000Y893212D01*
X6048000Y885539D01*
X6009634Y923905D02*
X6001961Y939252D01*
X6009634Y923905D02*
X6024980Y908559D01*
X6040327Y908559D01*
X6048000Y916232D01*
X6048000Y931578D01*
X6040327Y939252D01*
X6032654Y939252D01*
X6024980Y931578D01*
X6024980Y908559D01*
X6001961Y954598D02*
X6048000Y954598D01*
X6032654Y954598D02*
X6001961Y985291D01*
X6024980Y962271D02*
X6048000Y985291D01*
X6664500Y3932693D02*
X6679846Y3948039D01*
X6679846Y3902000D01*
X6664500Y3902000D02*
X6695193Y3902000D01*
X6710539Y3902000D02*
X6710539Y3948039D01*
X6710539Y3917346D02*
X6741232Y3948039D01*
X6718212Y3925020D02*
X6741232Y3902000D01*
X6914461Y854846D02*
X6929807Y839500D01*
X6914461Y854846D02*
X6960500Y854846D01*
X6960500Y839500D02*
X6960500Y870193D01*
X6952827Y885539D02*
X6922134Y885539D01*
X6914461Y893212D01*
X6914461Y908559D01*
X6922134Y916232D01*
X6952827Y916232D01*
X6960500Y908559D01*
X6960500Y893212D01*
X6952827Y885539D01*
X6922134Y916232D01*
X6914461Y931578D02*
X6960500Y931578D01*
X6945154Y931578D02*
X6914461Y962271D01*
X6937480Y939252D02*
X6960500Y962271D01*
X6826961Y870193D02*
X6826961Y839500D01*
X6849980Y839500D01*
X6842307Y854846D01*
X6842307Y862520D01*
X6849980Y870193D01*
X6865327Y870193D01*
X6873000Y862520D01*
X6873000Y847173D01*
X6865327Y839500D01*
X6865327Y885539D02*
X6873000Y885539D01*
X6865327Y885539D02*
X6865327Y893212D01*
X6873000Y893212D01*
X6873000Y885539D01*
X6834634Y923905D02*
X6826961Y939252D01*
X6834634Y923905D02*
X6849980Y908559D01*
X6865327Y908559D01*
X6873000Y916232D01*
X6873000Y931578D01*
X6865327Y939252D01*
X6857654Y939252D01*
X6849980Y931578D01*
X6849980Y908559D01*
X6826961Y954598D02*
X6873000Y954598D01*
X6857654Y954598D02*
X6826961Y985291D01*
X6849980Y962271D02*
X6873000Y985291D01*
X7864500Y3932693D02*
X7879846Y3948039D01*
X7879846Y3902000D01*
X7864500Y3902000D02*
X7895193Y3902000D01*
X7910539Y3902000D02*
X7910539Y3948039D01*
X7910539Y3917346D02*
X7941232Y3948039D01*
X7918212Y3925020D02*
X7941232Y3902000D01*
X7739461Y854846D02*
X7754807Y839500D01*
X7739461Y854846D02*
X7785500Y854846D01*
X7785500Y839500D02*
X7785500Y870193D01*
X7777827Y885539D02*
X7747134Y885539D01*
X7739461Y893212D01*
X7739461Y908559D01*
X7747134Y916232D01*
X7777827Y916232D01*
X7785500Y908559D01*
X7785500Y893212D01*
X7777827Y885539D01*
X7747134Y916232D01*
X7739461Y931578D02*
X7785500Y931578D01*
X7770154Y931578D02*
X7739461Y962271D01*
X7762480Y939252D02*
X7785500Y962271D01*
X7651961Y870193D02*
X7651961Y839500D01*
X7674980Y839500D01*
X7667307Y854846D01*
X7667307Y862520D01*
X7674980Y870193D01*
X7690327Y870193D01*
X7698000Y862520D01*
X7698000Y847173D01*
X7690327Y839500D01*
X7690327Y885539D02*
X7698000Y885539D01*
X7690327Y885539D02*
X7690327Y893212D01*
X7698000Y893212D01*
X7698000Y885539D01*
X7659634Y923905D02*
X7651961Y939252D01*
X7659634Y923905D02*
X7674980Y908559D01*
X7690327Y908559D01*
X7698000Y916232D01*
X7698000Y931578D01*
X7690327Y939252D01*
X7682654Y939252D01*
X7674980Y931578D01*
X7674980Y908559D01*
X7651961Y954598D02*
X7698000Y954598D01*
X7682654Y954598D02*
X7651961Y985291D01*
X7674980Y962271D02*
X7698000Y985291D01*
X9064500Y3932693D02*
X9079846Y3948039D01*
X9079846Y3902000D01*
X9064500Y3902000D02*
X9095193Y3902000D01*
X9110539Y3902000D02*
X9110539Y3948039D01*
X9110539Y3917346D02*
X9141232Y3948039D01*
X9118212Y3925020D02*
X9141232Y3902000D01*
X8564461Y854846D02*
X8579807Y839500D01*
X8564461Y854846D02*
X8610500Y854846D01*
X8610500Y839500D02*
X8610500Y870193D01*
X8602827Y885539D02*
X8572134Y885539D01*
X8564461Y893212D01*
X8564461Y908559D01*
X8572134Y916232D01*
X8602827Y916232D01*
X8610500Y908559D01*
X8610500Y893212D01*
X8602827Y885539D01*
X8572134Y916232D01*
X8564461Y931578D02*
X8610500Y931578D01*
X8595154Y931578D02*
X8564461Y962271D01*
X8587480Y939252D02*
X8610500Y962271D01*
X8476961Y870193D02*
X8476961Y839500D01*
X8499980Y839500D01*
X8492307Y854846D01*
X8492307Y862520D01*
X8499980Y870193D01*
X8515327Y870193D01*
X8523000Y862520D01*
X8523000Y847173D01*
X8515327Y839500D01*
X8515327Y885539D02*
X8523000Y885539D01*
X8515327Y885539D02*
X8515327Y893212D01*
X8523000Y893212D01*
X8523000Y885539D01*
X8484634Y923905D02*
X8476961Y939252D01*
X8484634Y923905D02*
X8499980Y908559D01*
X8515327Y908559D01*
X8523000Y916232D01*
X8523000Y931578D01*
X8515327Y939252D01*
X8507654Y939252D01*
X8499980Y931578D01*
X8499980Y908559D01*
X8476961Y954598D02*
X8523000Y954598D01*
X8507654Y954598D02*
X8476961Y985291D01*
X8499980Y962271D02*
X8523000Y985291D01*
X2442346Y998039D02*
X2427000Y982693D01*
X2442346Y998039D02*
X2442346Y952000D01*
X2427000Y952000D02*
X2457693Y952000D01*
X2473039Y959673D02*
X2473039Y990366D01*
X2480712Y998039D01*
X2496059Y998039D01*
X2503732Y990366D01*
X2503732Y959673D01*
X2496059Y952000D01*
X2480712Y952000D01*
X2473039Y959673D01*
X2503732Y990366D01*
X2519078Y990366D02*
X2519078Y959673D01*
X2519078Y990366D02*
X2526752Y998039D01*
X2542098Y998039D01*
X2549771Y990366D01*
X2549771Y959673D01*
X2542098Y952000D01*
X2526752Y952000D01*
X2519078Y959673D01*
X2549771Y990366D01*
X2565118Y982693D02*
X2565118Y952000D01*
X2565118Y982693D02*
X2588137Y982693D01*
X2595811Y975020D01*
X2595811Y952000D01*
X3252000Y982693D02*
X3267346Y998039D01*
X3267346Y952000D01*
X3252000Y952000D02*
X3282693Y952000D01*
X3298039Y959673D02*
X3298039Y990366D01*
X3305712Y998039D01*
X3321059Y998039D01*
X3328732Y990366D01*
X3328732Y959673D01*
X3321059Y952000D01*
X3305712Y952000D01*
X3298039Y959673D01*
X3328732Y990366D01*
X3344078Y990366D02*
X3344078Y959673D01*
X3344078Y990366D02*
X3351752Y998039D01*
X3367098Y998039D01*
X3374771Y990366D01*
X3374771Y959673D01*
X3367098Y952000D01*
X3351752Y952000D01*
X3344078Y959673D01*
X3374771Y990366D01*
X3390118Y982693D02*
X3390118Y952000D01*
X3390118Y982693D02*
X3413137Y982693D01*
X3420811Y975020D01*
X3420811Y952000D01*
X4077000Y982693D02*
X4092346Y998039D01*
X4092346Y952000D01*
X4077000Y952000D02*
X4107693Y952000D01*
X4123039Y959673D02*
X4123039Y990366D01*
X4130712Y998039D01*
X4146059Y998039D01*
X4153732Y990366D01*
X4153732Y959673D01*
X4146059Y952000D01*
X4130712Y952000D01*
X4123039Y959673D01*
X4153732Y990366D01*
X4169078Y990366D02*
X4169078Y959673D01*
X4169078Y990366D02*
X4176752Y998039D01*
X4192098Y998039D01*
X4199771Y990366D01*
X4199771Y959673D01*
X4192098Y952000D01*
X4176752Y952000D01*
X4169078Y959673D01*
X4199771Y990366D01*
X4215118Y982693D02*
X4215118Y952000D01*
X4215118Y982693D02*
X4238137Y982693D01*
X4245811Y975020D01*
X4245811Y952000D01*
X4902000Y982693D02*
X4917346Y998039D01*
X4917346Y952000D01*
X4902000Y952000D02*
X4932693Y952000D01*
X4948039Y959673D02*
X4948039Y990366D01*
X4955712Y998039D01*
X4971059Y998039D01*
X4978732Y990366D01*
X4978732Y959673D01*
X4971059Y952000D01*
X4955712Y952000D01*
X4948039Y959673D01*
X4978732Y990366D01*
X4994078Y990366D02*
X4994078Y959673D01*
X4994078Y990366D02*
X5001752Y998039D01*
X5017098Y998039D01*
X5024771Y990366D01*
X5024771Y959673D01*
X5017098Y952000D01*
X5001752Y952000D01*
X4994078Y959673D01*
X5024771Y990366D01*
X5040118Y982693D02*
X5040118Y952000D01*
X5040118Y982693D02*
X5063137Y982693D01*
X5070811Y975020D01*
X5070811Y952000D01*
X5702000Y982693D02*
X5717346Y998039D01*
X5717346Y952000D01*
X5702000Y952000D02*
X5732693Y952000D01*
X5748039Y959673D02*
X5748039Y990366D01*
X5755712Y998039D01*
X5771059Y998039D01*
X5778732Y990366D01*
X5778732Y959673D01*
X5771059Y952000D01*
X5755712Y952000D01*
X5748039Y959673D01*
X5778732Y990366D01*
X5794078Y990366D02*
X5794078Y959673D01*
X5794078Y990366D02*
X5801752Y998039D01*
X5817098Y998039D01*
X5824771Y990366D01*
X5824771Y959673D01*
X5817098Y952000D01*
X5801752Y952000D01*
X5794078Y959673D01*
X5824771Y990366D01*
X5840118Y982693D02*
X5840118Y952000D01*
X5840118Y982693D02*
X5863137Y982693D01*
X5870811Y975020D01*
X5870811Y952000D01*
X6552000Y982693D02*
X6567346Y998039D01*
X6567346Y952000D01*
X6552000Y952000D02*
X6582693Y952000D01*
X6598039Y959673D02*
X6598039Y990366D01*
X6605712Y998039D01*
X6621059Y998039D01*
X6628732Y990366D01*
X6628732Y959673D01*
X6621059Y952000D01*
X6605712Y952000D01*
X6598039Y959673D01*
X6628732Y990366D01*
X6644078Y990366D02*
X6644078Y959673D01*
X6644078Y990366D02*
X6651752Y998039D01*
X6667098Y998039D01*
X6674771Y990366D01*
X6674771Y959673D01*
X6667098Y952000D01*
X6651752Y952000D01*
X6644078Y959673D01*
X6674771Y990366D01*
X6690118Y982693D02*
X6690118Y952000D01*
X6690118Y982693D02*
X6713137Y982693D01*
X6720811Y975020D01*
X6720811Y952000D01*
X7377000Y982693D02*
X7392346Y998039D01*
X7392346Y952000D01*
X7377000Y952000D02*
X7407693Y952000D01*
X7423039Y959673D02*
X7423039Y990366D01*
X7430712Y998039D01*
X7446059Y998039D01*
X7453732Y990366D01*
X7453732Y959673D01*
X7446059Y952000D01*
X7430712Y952000D01*
X7423039Y959673D01*
X7453732Y990366D01*
X7469078Y990366D02*
X7469078Y959673D01*
X7469078Y990366D02*
X7476752Y998039D01*
X7492098Y998039D01*
X7499771Y990366D01*
X7499771Y959673D01*
X7492098Y952000D01*
X7476752Y952000D01*
X7469078Y959673D01*
X7499771Y990366D01*
X7515118Y982693D02*
X7515118Y952000D01*
X7515118Y982693D02*
X7538137Y982693D01*
X7545811Y975020D01*
X7545811Y952000D01*
X8202000Y982693D02*
X8217346Y998039D01*
X8217346Y952000D01*
X8202000Y952000D02*
X8232693Y952000D01*
X8248039Y959673D02*
X8248039Y990366D01*
X8255712Y998039D01*
X8271059Y998039D01*
X8278732Y990366D01*
X8278732Y959673D01*
X8271059Y952000D01*
X8255712Y952000D01*
X8248039Y959673D01*
X8278732Y990366D01*
X8294078Y990366D02*
X8294078Y959673D01*
X8294078Y990366D02*
X8301752Y998039D01*
X8317098Y998039D01*
X8324771Y990366D01*
X8324771Y959673D01*
X8317098Y952000D01*
X8301752Y952000D01*
X8294078Y959673D01*
X8324771Y990366D01*
X8340118Y982693D02*
X8340118Y952000D01*
X8340118Y982693D02*
X8363137Y982693D01*
X8370811Y975020D01*
X8370811Y952000D01*
X1279846Y3948039D02*
X1264500Y3932693D01*
X1279846Y3948039D02*
X1279846Y3902000D01*
X1264500Y3902000D02*
X1295193Y3902000D01*
X1310539Y3902000D02*
X1310539Y3948039D01*
X1310539Y3917346D02*
X1341232Y3948039D01*
X1318212Y3925020D02*
X1341232Y3902000D01*
X2464500Y3932693D02*
X2479846Y3948039D01*
X2479846Y3902000D01*
X2464500Y3902000D02*
X2495193Y3902000D01*
X2510539Y3902000D02*
X2510539Y3948039D01*
X2510539Y3917346D02*
X2541232Y3948039D01*
X2518212Y3925020D02*
X2541232Y3902000D01*
X4864500Y3932693D02*
X4879846Y3948039D01*
X4879846Y3902000D01*
X4864500Y3902000D02*
X4895193Y3902000D01*
X4910539Y3902000D02*
X4910539Y3948039D01*
X4910539Y3917346D02*
X4941232Y3948039D01*
X4918212Y3925020D02*
X4941232Y3902000D01*
X3679846Y3948039D02*
X3664500Y3932693D01*
X3679846Y3948039D02*
X3679846Y3902000D01*
X3664500Y3902000D02*
X3695193Y3902000D01*
X3710539Y3902000D02*
X3710539Y3948039D01*
X3710539Y3917346D02*
X3741232Y3948039D01*
X3718212Y3925020D02*
X3741232Y3902000D01*
X6064500Y3932693D02*
X6079846Y3948039D01*
X6079846Y3902000D01*
X6064500Y3902000D02*
X6095193Y3902000D01*
X6110539Y3902000D02*
X6110539Y3948039D01*
X6110539Y3917346D02*
X6141232Y3948039D01*
X6118212Y3925020D02*
X6141232Y3902000D01*
X7264500Y3932693D02*
X7279846Y3948039D01*
X7279846Y3902000D01*
X7264500Y3902000D02*
X7295193Y3902000D01*
X7310539Y3902000D02*
X7310539Y3948039D01*
X7310539Y3917346D02*
X7341232Y3948039D01*
X7318212Y3925020D02*
X7341232Y3902000D01*
X8464500Y3932693D02*
X8479846Y3948039D01*
X8479846Y3902000D01*
X8464500Y3902000D02*
X8495193Y3902000D01*
X8510539Y3902000D02*
X8510539Y3948039D01*
X8510539Y3917346D02*
X8541232Y3948039D01*
X8518212Y3925020D02*
X8541232Y3902000D01*
X9614500Y3532693D02*
X9629846Y3548039D01*
X9629846Y3502000D01*
X9614500Y3502000D02*
X9645193Y3502000D01*
X9660539Y3502000D02*
X9660539Y3548039D01*
X9660539Y3517346D02*
X9691232Y3548039D01*
X9668212Y3525020D02*
X9691232Y3502000D01*
X1879846Y3948039D02*
X1864500Y3932693D01*
X1879846Y3948039D02*
X1879846Y3902000D01*
X1864500Y3902000D02*
X1895193Y3902000D01*
X1910539Y3902000D02*
X1910539Y3948039D01*
X1910539Y3917346D02*
X1941232Y3948039D01*
X1918212Y3925020D02*
X1941232Y3902000D01*
D18*
X1751280Y495276D02*
X2223720Y495276D01*
X1751280Y337795D02*
X1751280Y62205D01*
X1751280Y455906D02*
X1751280Y495276D01*
X1751280Y62205D02*
X2223720Y62205D01*
X2223720Y337795D01*
X2223720Y455906D02*
X2223720Y495276D01*
M02*
