G04 EAGLE Gerber X2 export*
%TF.Part,Single*%
%TF.FileFunction,Paste,Top*%
%TF.FilePolarity,Positive*%
%TF.GenerationSoftware,Autodesk,EAGLE,9.1.1*%
%TF.CreationDate,2018-07-17T22:26:14Z*%
G75*
%MOIN*%
%FSLAX36Y36*%
%LPD*%
%AMOC8*
5,1,8,0,0,1.08239X$1,22.5*%
G01*
%ADD10R,0.059055X0.051181*%
%ADD11R,0.070866X0.062992*%
%ADD12R,0.086614X0.023622*%
%ADD13R,0.051181X0.059055*%


D10*
X8975000Y412598D03*
X8975000Y487402D03*
X8825000Y412598D03*
X8825000Y487402D03*
X2225000Y887402D03*
X2225000Y812598D03*
X1725000Y887402D03*
X1725000Y812598D03*
D11*
X2025000Y787992D03*
X2025000Y912008D03*
X2125000Y787992D03*
X2125000Y912008D03*
X1925000Y787992D03*
X1925000Y912008D03*
X1825000Y787992D03*
X1825000Y912008D03*
D12*
X2397638Y750000D03*
X2602362Y750000D03*
X2397638Y800000D03*
X2397638Y700000D03*
X2397638Y650000D03*
X2602362Y800000D03*
X2602362Y700000D03*
X2602362Y650000D03*
X2397638Y550000D03*
X2602362Y550000D03*
X2397638Y600000D03*
X2397638Y500000D03*
X2602362Y600000D03*
X2602362Y500000D03*
D10*
X2737500Y562402D03*
X2737500Y487598D03*
X2825787Y562402D03*
X2825787Y487598D03*
D13*
X662598Y4000000D03*
X737402Y4000000D03*
D10*
X2825787Y787402D03*
X2825787Y712598D03*
X2737500Y787402D03*
X2737500Y712598D03*
D12*
X3222638Y750000D03*
X3427362Y750000D03*
X3222638Y800000D03*
X3222638Y700000D03*
X3222638Y650000D03*
X3427362Y800000D03*
X3427362Y700000D03*
X3427362Y650000D03*
X3222638Y550000D03*
X3427362Y550000D03*
X3222638Y600000D03*
X3222638Y500000D03*
X3427362Y600000D03*
X3427362Y500000D03*
D10*
X3562500Y562402D03*
X3562500Y487598D03*
X3650000Y562402D03*
X3650000Y487598D03*
X3650000Y787402D03*
X3650000Y712598D03*
X3562500Y787402D03*
X3562500Y712598D03*
D12*
X4047638Y750000D03*
X4252362Y750000D03*
X4047638Y800000D03*
X4047638Y700000D03*
X4047638Y650000D03*
X4252362Y800000D03*
X4252362Y700000D03*
X4252362Y650000D03*
X4047638Y550000D03*
X4252362Y550000D03*
X4047638Y600000D03*
X4047638Y500000D03*
X4252362Y600000D03*
X4252362Y500000D03*
D10*
X4387500Y562402D03*
X4387500Y487598D03*
X4475000Y562402D03*
X4475000Y487598D03*
D13*
X3062598Y4000000D03*
X3137402Y4000000D03*
D10*
X4475000Y787402D03*
X4475000Y712598D03*
X4387500Y787402D03*
X4387500Y712598D03*
D12*
X4872638Y750000D03*
X5077362Y750000D03*
X4872638Y800000D03*
X4872638Y700000D03*
X4872638Y650000D03*
X5077362Y800000D03*
X5077362Y700000D03*
X5077362Y650000D03*
X4872638Y550000D03*
X5077362Y550000D03*
X4872638Y600000D03*
X4872638Y500000D03*
X5077362Y600000D03*
X5077362Y500000D03*
D10*
X5212500Y562402D03*
X5212500Y487598D03*
X5300000Y562402D03*
X5300000Y487598D03*
D13*
X4262598Y4000000D03*
X4337402Y4000000D03*
D10*
X5300000Y787402D03*
X5300000Y712598D03*
X5212500Y787402D03*
X5212500Y712598D03*
D12*
X5697638Y750000D03*
X5902362Y750000D03*
X5697638Y800000D03*
X5697638Y700000D03*
X5697638Y650000D03*
X5902362Y800000D03*
X5902362Y700000D03*
X5902362Y650000D03*
X5697638Y550000D03*
X5902362Y550000D03*
X5697638Y600000D03*
X5697638Y500000D03*
X5902362Y600000D03*
X5902362Y500000D03*
D10*
X6037500Y562402D03*
X6037500Y487598D03*
X6125000Y562402D03*
X6125000Y487598D03*
D13*
X5462598Y4000000D03*
X5537402Y4000000D03*
D10*
X6125000Y787402D03*
X6125000Y712598D03*
X6037500Y787402D03*
X6037500Y712598D03*
D12*
X6522638Y750000D03*
X6727362Y750000D03*
X6522638Y800000D03*
X6522638Y700000D03*
X6522638Y650000D03*
X6727362Y800000D03*
X6727362Y700000D03*
X6727362Y650000D03*
X6522638Y550000D03*
X6727362Y550000D03*
X6522638Y600000D03*
X6522638Y500000D03*
X6727362Y600000D03*
X6727362Y500000D03*
D10*
X6862500Y562402D03*
X6862500Y487598D03*
X6950000Y562402D03*
X6950000Y487598D03*
D13*
X6662598Y4000000D03*
X6737402Y4000000D03*
D10*
X6950000Y787402D03*
X6950000Y712598D03*
X6862500Y787402D03*
X6862500Y712598D03*
D12*
X7347638Y750000D03*
X7552362Y750000D03*
X7347638Y800000D03*
X7347638Y700000D03*
X7347638Y650000D03*
X7552362Y800000D03*
X7552362Y700000D03*
X7552362Y650000D03*
X7347638Y550000D03*
X7552362Y550000D03*
X7347638Y600000D03*
X7347638Y500000D03*
X7552362Y600000D03*
X7552362Y500000D03*
D10*
X7687500Y562402D03*
X7687500Y487598D03*
X7775000Y562402D03*
X7775000Y487598D03*
D13*
X7862598Y4000000D03*
X7937402Y4000000D03*
D10*
X7775000Y787402D03*
X7775000Y712598D03*
X7687500Y787402D03*
X7687500Y712598D03*
D12*
X8172638Y750000D03*
X8377362Y750000D03*
X8172638Y800000D03*
X8172638Y700000D03*
X8172638Y650000D03*
X8377362Y800000D03*
X8377362Y700000D03*
X8377362Y650000D03*
X8172638Y550000D03*
X8377362Y550000D03*
X8172638Y600000D03*
X8172638Y500000D03*
X8377362Y600000D03*
X8377362Y500000D03*
D10*
X8512500Y562402D03*
X8512500Y487598D03*
X8600000Y562402D03*
X8600000Y487598D03*
D13*
X9062598Y4000000D03*
X9137402Y4000000D03*
D10*
X8600000Y787402D03*
X8600000Y712598D03*
X8512500Y787402D03*
X8512500Y712598D03*
D13*
X2462598Y900000D03*
X2537402Y900000D03*
X3287598Y900000D03*
X3362402Y900000D03*
X4112598Y900000D03*
X4187402Y900000D03*
X4937598Y900000D03*
X5012402Y900000D03*
X5762598Y900000D03*
X5837402Y900000D03*
X6587598Y900000D03*
X6662402Y900000D03*
X7412598Y900000D03*
X7487402Y900000D03*
X8237598Y900000D03*
X8312402Y900000D03*
X1262598Y4000000D03*
X1337402Y4000000D03*
X2462598Y4000000D03*
X2537402Y4000000D03*
X4862598Y4000000D03*
X4937402Y4000000D03*
X3662598Y4000000D03*
X3737402Y4000000D03*
X6062598Y4000000D03*
X6137402Y4000000D03*
X7262598Y4000000D03*
X7337402Y4000000D03*
X8462598Y4000000D03*
X8537402Y4000000D03*
D10*
X9650000Y3612598D03*
X9650000Y3687402D03*
D13*
X1862598Y4000000D03*
X1937402Y4000000D03*
M02*
