G04 EAGLE Gerber X2 export*
%TF.Part,Single*%
%TF.FileFunction,Soldermask,Top*%
%TF.FilePolarity,Negative*%
%TF.GenerationSoftware,Autodesk,EAGLE,9.1.3*%
%TF.CreationDate,2018-09-30T16:15:48Z*%
G75*
%MOIN*%
%FSLAX36Y36*%
%LPD*%
%AMOC8*
5,1,8,0,0,1.08239X$1,22.5*%
G01*
%ADD10C,0.103425*%
%ADD11C,0.083740*%
%ADD12P,0.075725X8X292.500000*%
%ADD13R,0.056181X0.064055*%
%ADD14C,0.091000*%
%ADD15C,0.052244*%
%ADD16C,0.075866*%
%ADD17R,0.064055X0.056181*%
%ADD18R,0.075866X0.067992*%
%ADD19P,0.146719X8X202.500000*%
%ADD20P,0.146719X8X292.500000*%
%ADD21P,0.146719X8X22.500000*%
%ADD22R,0.091614X0.028622*%
%ADD23R,0.085945X0.028697*%
%ADD24C,0.062000*%
%ADD25C,0.032780*%

G36*
X107054Y4458738D02*
X107054Y4458738D01*
X107225Y4458785D01*
X107483Y4458814D01*
X114112Y4460590D01*
X114272Y4460665D01*
X114522Y4460739D01*
X120741Y4463639D01*
X120886Y4463742D01*
X121119Y4463857D01*
X126740Y4467794D01*
X126865Y4467919D01*
X127074Y4468074D01*
X131926Y4472926D01*
X132027Y4473071D01*
X132206Y4473260D01*
X136143Y4478881D01*
X136217Y4479042D01*
X136361Y4479259D01*
X139261Y4485478D01*
X139306Y4485650D01*
X139410Y4485888D01*
X141186Y4492517D01*
X141197Y4492647D01*
X141232Y4492749D01*
X141230Y4492814D01*
X141262Y4492946D01*
X141860Y4499782D01*
X141844Y4499959D01*
X141860Y4500218D01*
X141262Y4507054D01*
X141215Y4507225D01*
X141186Y4507483D01*
X139410Y4514112D01*
X139335Y4514272D01*
X139261Y4514522D01*
X136361Y4520741D01*
X136258Y4520886D01*
X136143Y4521119D01*
X132206Y4526740D01*
X132081Y4526865D01*
X131926Y4527074D01*
X127074Y4531926D01*
X126929Y4532027D01*
X126740Y4532206D01*
X121119Y4536143D01*
X120958Y4536217D01*
X120741Y4536361D01*
X114522Y4539261D01*
X114350Y4539306D01*
X114112Y4539410D01*
X107483Y4541186D01*
X107307Y4541201D01*
X107054Y4541262D01*
X100218Y4541860D01*
X100041Y4541844D01*
X99782Y4541860D01*
X92946Y4541262D01*
X92775Y4541215D01*
X92517Y4541186D01*
X85888Y4539410D01*
X85728Y4539335D01*
X85478Y4539261D01*
X79259Y4536361D01*
X79114Y4536258D01*
X78881Y4536143D01*
X73260Y4532206D01*
X73135Y4532081D01*
X72926Y4531926D01*
X68074Y4527074D01*
X67973Y4526929D01*
X67794Y4526740D01*
X63857Y4521119D01*
X63783Y4520958D01*
X63639Y4520741D01*
X60739Y4514522D01*
X60694Y4514350D01*
X60590Y4514112D01*
X58814Y4507483D01*
X58799Y4507307D01*
X58738Y4507054D01*
X58140Y4500218D01*
X58156Y4500041D01*
X58140Y4499782D01*
X58738Y4492946D01*
X58785Y4492775D01*
X58790Y4492727D01*
X58794Y4492608D01*
X58808Y4492573D01*
X58814Y4492517D01*
X60590Y4485888D01*
X60665Y4485728D01*
X60739Y4485478D01*
X63639Y4479259D01*
X63742Y4479114D01*
X63857Y4478881D01*
X67794Y4473260D01*
X67919Y4473135D01*
X68074Y4472926D01*
X72926Y4468074D01*
X73071Y4467973D01*
X73260Y4467794D01*
X78881Y4463857D01*
X79042Y4463783D01*
X79259Y4463639D01*
X85478Y4460739D01*
X85650Y4460694D01*
X85888Y4460590D01*
X92517Y4458814D01*
X92693Y4458799D01*
X92946Y4458738D01*
X99782Y4458140D01*
X99959Y4458156D01*
X100218Y4458140D01*
X107054Y4458738D01*
G37*
G36*
X9707054Y208738D02*
X9707054Y208738D01*
X9707225Y208785D01*
X9707483Y208814D01*
X9714112Y210590D01*
X9714272Y210665D01*
X9714522Y210739D01*
X9720741Y213639D01*
X9720886Y213742D01*
X9721119Y213857D01*
X9726740Y217794D01*
X9726865Y217919D01*
X9727074Y218074D01*
X9731926Y222926D01*
X9732027Y223071D01*
X9732206Y223260D01*
X9736143Y228881D01*
X9736217Y229042D01*
X9736361Y229259D01*
X9739261Y235478D01*
X9739306Y235650D01*
X9739410Y235888D01*
X9741186Y242517D01*
X9741197Y242647D01*
X9741232Y242749D01*
X9741230Y242814D01*
X9741262Y242946D01*
X9741860Y249782D01*
X9741844Y249959D01*
X9741860Y250218D01*
X9741262Y257054D01*
X9741215Y257225D01*
X9741186Y257483D01*
X9739410Y264112D01*
X9739335Y264272D01*
X9739261Y264522D01*
X9736361Y270741D01*
X9736258Y270886D01*
X9736143Y271119D01*
X9732206Y276740D01*
X9732081Y276865D01*
X9731926Y277074D01*
X9727074Y281926D01*
X9726929Y282027D01*
X9726740Y282206D01*
X9721119Y286143D01*
X9720958Y286217D01*
X9720741Y286361D01*
X9714522Y289261D01*
X9714350Y289306D01*
X9714112Y289410D01*
X9707483Y291186D01*
X9707307Y291201D01*
X9707054Y291262D01*
X9700218Y291860D01*
X9700041Y291844D01*
X9699782Y291860D01*
X9692946Y291262D01*
X9692775Y291215D01*
X9692517Y291186D01*
X9685888Y289410D01*
X9685728Y289335D01*
X9685478Y289261D01*
X9679259Y286361D01*
X9679114Y286258D01*
X9678881Y286143D01*
X9673260Y282206D01*
X9673135Y282081D01*
X9672926Y281926D01*
X9668074Y277074D01*
X9667973Y276929D01*
X9667794Y276740D01*
X9663857Y271119D01*
X9663783Y270958D01*
X9663639Y270741D01*
X9660739Y264522D01*
X9660694Y264350D01*
X9660590Y264112D01*
X9658814Y257483D01*
X9658799Y257307D01*
X9658738Y257054D01*
X9658140Y250218D01*
X9658156Y250041D01*
X9658140Y249782D01*
X9658738Y242946D01*
X9658785Y242775D01*
X9658790Y242727D01*
X9658794Y242608D01*
X9658808Y242573D01*
X9658814Y242517D01*
X9660590Y235888D01*
X9660665Y235728D01*
X9660739Y235478D01*
X9663639Y229259D01*
X9663742Y229114D01*
X9663857Y228881D01*
X9667794Y223260D01*
X9667919Y223135D01*
X9668074Y222926D01*
X9672926Y218074D01*
X9673071Y217973D01*
X9673260Y217794D01*
X9678881Y213857D01*
X9679042Y213783D01*
X9679259Y213639D01*
X9685478Y210739D01*
X9685650Y210694D01*
X9685888Y210590D01*
X9692517Y208814D01*
X9692693Y208799D01*
X9692946Y208738D01*
X9699782Y208140D01*
X9699959Y208156D01*
X9700218Y208140D01*
X9707054Y208738D01*
G37*
D10*
X100000Y100000D03*
X9700000Y100000D03*
X100000Y4650000D03*
X9700000Y4650000D03*
X2500000Y2500000D03*
X7300000Y2500000D03*
X4900000Y100000D03*
X4900000Y4650000D03*
D11*
X9400000Y3484252D03*
X9400000Y1614173D03*
D12*
X9547638Y3877953D03*
X9449213Y3877953D03*
X9350787Y3877953D03*
X9252362Y3877953D03*
X9252362Y1122047D03*
X9449213Y1122047D03*
D11*
X8800000Y3484252D03*
X8800000Y1614173D03*
D12*
X8947638Y3877953D03*
X8849213Y3877953D03*
X8750787Y3877953D03*
X8652362Y3877953D03*
X8652362Y1122047D03*
X8849213Y1122047D03*
D11*
X8200000Y3484252D03*
X8200000Y1614173D03*
D12*
X8347638Y3877953D03*
X8249213Y3877953D03*
X8150787Y3877953D03*
X8052362Y3877953D03*
X8052362Y1122047D03*
X8249213Y1122047D03*
D11*
X7600000Y3484252D03*
X7600000Y1614173D03*
D12*
X7747638Y3877953D03*
X7649213Y3877953D03*
X7550787Y3877953D03*
X7452362Y3877953D03*
X7452362Y1122047D03*
X7649213Y1122047D03*
D11*
X7000000Y3484252D03*
X7000000Y1614173D03*
D12*
X7147638Y3877953D03*
X7049213Y3877953D03*
X6950787Y3877953D03*
X6852362Y3877953D03*
X6852362Y1122047D03*
X7049213Y1122047D03*
D11*
X6400000Y3484252D03*
X6400000Y1614173D03*
D12*
X6547638Y3877953D03*
X6449213Y3877953D03*
X6350787Y3877953D03*
X6252362Y3877953D03*
X6252362Y1122047D03*
X6449213Y1122047D03*
D11*
X5800000Y3484252D03*
X5800000Y1614173D03*
D12*
X5947638Y3877953D03*
X5849213Y3877953D03*
X5750787Y3877953D03*
X5652362Y3877953D03*
X5652362Y1122047D03*
X5849213Y1122047D03*
D11*
X5200000Y3484252D03*
X5200000Y1614173D03*
D12*
X5347638Y3877953D03*
X5249213Y3877953D03*
X5150787Y3877953D03*
X5052362Y3877953D03*
X5052362Y1122047D03*
X5249213Y1122047D03*
D11*
X4600000Y3484252D03*
X4600000Y1614173D03*
D12*
X4747638Y3877953D03*
X4649213Y3877953D03*
X4550787Y3877953D03*
X4452362Y3877953D03*
X4452362Y1122047D03*
X4649213Y1122047D03*
D11*
X4000000Y3484252D03*
X4000000Y1614173D03*
D12*
X4147638Y3877953D03*
X4049213Y3877953D03*
X3950787Y3877953D03*
X3852362Y3877953D03*
X3852362Y1122047D03*
X4049213Y1122047D03*
D11*
X3400000Y3484252D03*
X3400000Y1614173D03*
D12*
X3547638Y3877953D03*
X3449213Y3877953D03*
X3350787Y3877953D03*
X3252362Y3877953D03*
X3252362Y1122047D03*
X3449213Y1122047D03*
D11*
X2800000Y3484252D03*
X2800000Y1614173D03*
D12*
X2947638Y3877953D03*
X2849213Y3877953D03*
X2750787Y3877953D03*
X2652362Y3877953D03*
X2652362Y1122047D03*
X2849213Y1122047D03*
D11*
X2200000Y3484252D03*
X2200000Y1614173D03*
D12*
X2347638Y3877953D03*
X2249213Y3877953D03*
X2150787Y3877953D03*
X2052362Y3877953D03*
X2052362Y1122047D03*
X2249213Y1122047D03*
D11*
X1600000Y3484252D03*
X1600000Y1614173D03*
D12*
X1747638Y3877953D03*
X1649213Y3877953D03*
X1550787Y3877953D03*
X1452362Y3877953D03*
X1452362Y1122047D03*
X1649213Y1122047D03*
D11*
X1000000Y3484252D03*
X1000000Y1614173D03*
D12*
X1147638Y3877953D03*
X1049213Y3877953D03*
X950787Y3877953D03*
X852362Y3877953D03*
X852362Y1122047D03*
X1049213Y1122047D03*
D11*
X400000Y3484252D03*
X400000Y1614173D03*
D12*
X547638Y3877953D03*
X449213Y3877953D03*
X350787Y3877953D03*
X252362Y3877953D03*
X252362Y1122047D03*
X449213Y1122047D03*
D13*
X8387402Y100000D03*
X8312598Y100000D03*
X8387402Y225000D03*
X8312598Y225000D03*
D14*
X9645669Y590551D03*
X9448819Y492126D03*
X9448819Y393701D03*
X9448819Y688976D03*
X9448819Y787402D03*
D15*
X9645669Y393701D03*
X9744094Y393701D03*
X9744094Y787402D03*
X9645669Y787402D03*
X9448819Y590551D03*
X8978740Y185630D03*
X8978740Y264370D03*
X8900000Y185630D03*
X8900000Y264370D03*
X8821260Y185630D03*
X8821260Y264370D03*
D16*
X8718898Y225000D03*
X9081102Y225000D03*
D17*
X2225000Y887402D03*
X2225000Y812598D03*
X1725000Y887402D03*
X1725000Y812598D03*
D18*
X2025000Y787992D03*
X2025000Y912008D03*
X2125000Y787992D03*
X2125000Y912008D03*
X1925000Y787992D03*
X1925000Y912008D03*
X1825000Y787992D03*
X1825000Y912008D03*
D19*
X417323Y4564075D03*
D20*
X212598Y4131004D03*
D21*
X425197Y4044390D03*
D19*
X1000000Y4564075D03*
D20*
X795276Y4131004D03*
D21*
X1007874Y4044390D03*
D19*
X1600000Y4564075D03*
D20*
X1395276Y4131004D03*
D21*
X1607874Y4044390D03*
D19*
X2200000Y4564075D03*
D20*
X1995276Y4131004D03*
D21*
X2207874Y4044390D03*
D19*
X2800000Y4564075D03*
D20*
X2595276Y4131004D03*
D21*
X2807874Y4044390D03*
D19*
X3400000Y4564075D03*
D20*
X3195276Y4131004D03*
D21*
X3407874Y4044390D03*
D19*
X4000000Y4564075D03*
D20*
X3795276Y4131004D03*
D21*
X4007874Y4044390D03*
D19*
X4575000Y4564075D03*
D20*
X4370276Y4131004D03*
D21*
X4582874Y4044390D03*
D19*
X5225000Y4564075D03*
D20*
X5020276Y4131004D03*
D21*
X5232874Y4044390D03*
D19*
X5800000Y4564075D03*
D20*
X5595276Y4131004D03*
D21*
X5807874Y4044390D03*
D19*
X6400000Y4564075D03*
D20*
X6195276Y4131004D03*
D21*
X6407874Y4044390D03*
D19*
X7000000Y4564075D03*
D20*
X6795276Y4131004D03*
D21*
X7007874Y4044390D03*
D19*
X7600000Y4564075D03*
D20*
X7395276Y4131004D03*
D21*
X7607874Y4044390D03*
D19*
X8200000Y4564075D03*
D20*
X7995276Y4131004D03*
D21*
X8207874Y4044390D03*
D19*
X8800000Y4564075D03*
D20*
X8595276Y4131004D03*
D21*
X8807874Y4044390D03*
D19*
X9381890Y4564075D03*
D20*
X9177165Y4131004D03*
D21*
X9389764Y4044390D03*
D22*
X3222638Y750000D03*
X3427362Y750000D03*
X3222638Y800000D03*
X3222638Y700000D03*
X3222638Y650000D03*
X3427362Y800000D03*
X3427362Y700000D03*
X3427362Y650000D03*
X3222638Y550000D03*
X3427362Y550000D03*
X3222638Y600000D03*
X3222638Y500000D03*
X3427362Y600000D03*
X3427362Y500000D03*
D17*
X3562500Y562402D03*
X3562500Y487598D03*
X3650000Y562402D03*
X3650000Y487598D03*
D13*
X662598Y4000000D03*
X737402Y4000000D03*
D17*
X3650000Y787402D03*
X3650000Y712598D03*
X3562500Y787402D03*
X3562500Y712598D03*
D22*
X4047638Y750000D03*
X4252362Y750000D03*
X4047638Y800000D03*
X4047638Y700000D03*
X4047638Y650000D03*
X4252362Y800000D03*
X4252362Y700000D03*
X4252362Y650000D03*
X4047638Y550000D03*
X4252362Y550000D03*
X4047638Y600000D03*
X4047638Y500000D03*
X4252362Y600000D03*
X4252362Y500000D03*
D17*
X4387500Y562402D03*
X4387500Y487598D03*
X4475000Y562402D03*
X4475000Y487598D03*
X4475000Y787402D03*
X4475000Y712598D03*
X4387500Y787402D03*
X4387500Y712598D03*
D22*
X4872638Y750000D03*
X5077362Y750000D03*
X4872638Y800000D03*
X4872638Y700000D03*
X4872638Y650000D03*
X5077362Y800000D03*
X5077362Y700000D03*
X5077362Y650000D03*
X4872638Y550000D03*
X5077362Y550000D03*
X4872638Y600000D03*
X4872638Y500000D03*
X5077362Y600000D03*
X5077362Y500000D03*
D17*
X5212500Y562402D03*
X5212500Y487598D03*
X5300000Y562402D03*
X5300000Y487598D03*
D13*
X3062598Y4000000D03*
X3137402Y4000000D03*
D17*
X5300000Y787402D03*
X5300000Y712598D03*
X5212500Y787402D03*
X5212500Y712598D03*
D22*
X5697638Y750000D03*
X5902362Y750000D03*
X5697638Y800000D03*
X5697638Y700000D03*
X5697638Y650000D03*
X5902362Y800000D03*
X5902362Y700000D03*
X5902362Y650000D03*
X5697638Y550000D03*
X5902362Y550000D03*
X5697638Y600000D03*
X5697638Y500000D03*
X5902362Y600000D03*
X5902362Y500000D03*
D17*
X6037500Y562402D03*
X6037500Y487598D03*
X6125000Y562402D03*
X6125000Y487598D03*
D13*
X4262598Y4000000D03*
X4337402Y4000000D03*
D17*
X6125000Y787402D03*
X6125000Y712598D03*
X6037500Y787402D03*
X6037500Y712598D03*
D22*
X6522638Y750000D03*
X6727362Y750000D03*
X6522638Y800000D03*
X6522638Y700000D03*
X6522638Y650000D03*
X6727362Y800000D03*
X6727362Y700000D03*
X6727362Y650000D03*
X6522638Y550000D03*
X6727362Y550000D03*
X6522638Y600000D03*
X6522638Y500000D03*
X6727362Y600000D03*
X6727362Y500000D03*
D17*
X6862500Y562402D03*
X6862500Y487598D03*
X6950000Y562402D03*
X6950000Y487598D03*
D13*
X5462598Y4000000D03*
X5537402Y4000000D03*
D17*
X6950000Y787402D03*
X6950000Y712598D03*
X6862500Y787402D03*
X6862500Y712598D03*
D22*
X7347638Y750000D03*
X7552362Y750000D03*
X7347638Y800000D03*
X7347638Y700000D03*
X7347638Y650000D03*
X7552362Y800000D03*
X7552362Y700000D03*
X7552362Y650000D03*
X7347638Y550000D03*
X7552362Y550000D03*
X7347638Y600000D03*
X7347638Y500000D03*
X7552362Y600000D03*
X7552362Y500000D03*
D17*
X7687500Y562402D03*
X7687500Y487598D03*
X7775000Y562402D03*
X7775000Y487598D03*
D13*
X6662598Y4000000D03*
X6737402Y4000000D03*
D17*
X7775000Y787402D03*
X7775000Y712598D03*
X7687500Y787402D03*
X7687500Y712598D03*
D22*
X8172638Y750000D03*
X8377362Y750000D03*
X8172638Y800000D03*
X8172638Y700000D03*
X8172638Y650000D03*
X8377362Y800000D03*
X8377362Y700000D03*
X8377362Y650000D03*
X8172638Y550000D03*
X8377362Y550000D03*
X8172638Y600000D03*
X8172638Y500000D03*
X8377362Y600000D03*
X8377362Y500000D03*
D17*
X8512500Y562402D03*
X8512500Y487598D03*
X8600000Y562402D03*
X8600000Y487598D03*
D13*
X7862598Y4000000D03*
X7937402Y4000000D03*
D17*
X8600000Y787402D03*
X8600000Y712598D03*
X8512500Y787402D03*
X8512500Y712598D03*
D22*
X8997638Y750000D03*
X9202362Y750000D03*
X8997638Y800000D03*
X8997638Y700000D03*
X8997638Y650000D03*
X9202362Y800000D03*
X9202362Y700000D03*
X9202362Y650000D03*
X8997638Y550000D03*
X9202362Y550000D03*
X8997638Y600000D03*
X8997638Y500000D03*
X9202362Y600000D03*
X9202362Y500000D03*
D17*
X9337500Y287402D03*
X9337500Y212598D03*
X9425000Y287402D03*
X9425000Y212598D03*
D13*
X9062598Y4000000D03*
X9137402Y4000000D03*
D17*
X9425000Y962402D03*
X9425000Y887598D03*
X9337500Y962402D03*
X9337500Y887598D03*
D13*
X3287205Y900000D03*
X3362008Y900000D03*
X4112598Y900000D03*
X4187402Y900000D03*
X4937598Y900000D03*
X5012402Y900000D03*
X5762598Y900000D03*
X5837402Y900000D03*
X6587598Y900000D03*
X6662402Y900000D03*
X7412598Y900000D03*
X7487402Y900000D03*
X8237598Y900000D03*
X8312402Y900000D03*
X9062598Y900000D03*
X9137402Y900000D03*
X1262598Y4000000D03*
X1337402Y4000000D03*
X2462598Y4000000D03*
X2537402Y4000000D03*
X4862598Y4000000D03*
X4937402Y4000000D03*
X3662598Y4000000D03*
X3737402Y4000000D03*
X6062598Y4000000D03*
X6137402Y4000000D03*
X7262598Y4000000D03*
X7337402Y4000000D03*
X8462598Y4000000D03*
X8537402Y4000000D03*
D17*
X9650000Y3612598D03*
X9650000Y3687402D03*
D13*
X1862598Y4000000D03*
X1937402Y4000000D03*
D14*
X1987500Y200000D03*
X1889075Y396850D03*
X1790650Y396850D03*
X2085925Y396850D03*
X2184350Y396850D03*
D15*
X1790650Y200000D03*
X1790650Y101575D03*
X2184350Y101575D03*
X2184350Y200000D03*
X1987500Y396850D03*
D23*
X2467256Y925000D03*
X2467256Y875000D03*
X2467256Y825000D03*
X2467256Y775000D03*
X2467256Y725000D03*
X2467256Y675000D03*
X2467256Y625000D03*
X2467256Y575000D03*
X2467256Y525000D03*
X2467256Y475000D03*
X2467256Y425000D03*
X2467256Y375000D03*
X2832744Y375000D03*
X2832744Y425000D03*
X2832744Y475000D03*
X2832744Y525000D03*
X2832744Y575000D03*
X2832744Y625000D03*
X2832744Y675000D03*
X2832744Y725000D03*
X2832744Y775000D03*
X2832744Y825000D03*
X2832744Y875000D03*
X2832744Y925000D03*
D13*
X2537402Y1037500D03*
X2462598Y1037500D03*
D24*
X100000Y275000D03*
X200000Y275000D03*
X300000Y275000D03*
X400000Y275000D03*
X500000Y275000D03*
X600000Y275000D03*
X700000Y275000D03*
X800000Y275000D03*
X900000Y275000D03*
X1000000Y275000D03*
X1100000Y275000D03*
X1200000Y275000D03*
X1300000Y275000D03*
X1400000Y275000D03*
X1400000Y875000D03*
X1300000Y875000D03*
X1200000Y875000D03*
X1100000Y875000D03*
X1000000Y875000D03*
X900000Y875000D03*
X800000Y875000D03*
X700000Y875000D03*
X600000Y875000D03*
X500000Y875000D03*
X400000Y875000D03*
X300000Y875000D03*
X200000Y875000D03*
X100000Y875000D03*
D25*
X7450000Y1050000D03*
X1987500Y525000D03*
X3350000Y1050000D03*
X5100000Y900000D03*
X3162500Y462500D03*
X2550000Y525000D03*
X3375000Y462500D03*
X2550000Y575000D03*
X3987500Y462500D03*
X2550000Y625000D03*
X4200000Y462500D03*
X2550000Y675000D03*
X5637500Y462500D03*
X2550000Y825000D03*
X5812500Y500000D03*
X2550000Y875000D03*
X6462500Y462500D03*
X3012500Y650000D03*
X6637500Y500000D03*
X2962500Y650000D03*
X7287500Y462500D03*
X2900000Y637500D03*
X7462500Y500000D03*
X2900000Y675000D03*
X8112500Y462500D03*
X2900000Y725000D03*
X8287500Y500000D03*
X2900000Y775000D03*
X8937500Y462500D03*
X2900000Y825000D03*
X9112500Y500000D03*
X2900000Y875000D03*
X9050000Y1225000D03*
X8075000Y1225000D03*
X7275000Y1225000D03*
X6437500Y1225000D03*
X5612500Y1225000D03*
X4800000Y1225000D03*
X4037500Y1225000D03*
X3062500Y1225000D03*
X54890Y1000000D03*
X1925000Y725000D03*
X2550000Y725000D03*
X4775000Y462500D03*
X4975000Y500000D03*
X2550000Y775000D03*
X2362500Y925000D03*
M02*
