M48
;GenerationSoftware,Autodesk,EAGLE,9.1.3*%
;CreationDate,2018-09-30T16:15:42Z*%
FMAT,2
ICI,OFF
INCH,TZ,00.0000
T7C0.0138
T6C0.0315
T5C0.0380
T4C0.0433
T3C0.0472
T2C0.0512
T1C0.0906
%
G90
M72
T1
X45829Y40444
X10079Y40444
X7953Y41310
X10000Y45641
X4252Y40444
X2126Y41310
X93898Y40444
X91772Y41310
X93819Y45641
X88079Y40444
X85953Y41310
X88000Y45641
X82079Y40444
X79953Y41310
X82000Y45641
X76079Y40444
X73953Y41310
X76000Y45641
X70079Y40444
X67953Y41310
X70000Y45641
X64079Y40444
X61953Y41310
X64000Y45641
X58079Y40444
X55953Y41310
X58000Y45641
X52329Y40444
X50203Y41310
X52250Y45641
X16000Y45641
X43703Y41310
X45750Y45641
X40079Y40444
X37953Y41310
X40000Y45641
X34079Y40444
X31953Y41310
X34000Y45641
X28079Y40444
X25953Y41310
X28000Y45641
X22079Y40444
X19953Y41310
X22000Y45641
X16079Y40444
X13953Y41310
X4173Y45641
T2
X19875Y2000
X18891Y3969
X17906Y3969
X20859Y3969
X21844Y3969
X94488Y7874
X94488Y6890
X94488Y3937
X94488Y4921
X96457Y5906
T3
X87189Y2250
X90811Y2250
T4
X82492Y38780
X81508Y38780
X80524Y38780
X80524Y11220
X82492Y11220
X77476Y38780
X76492Y38780
X75508Y38780
X74524Y38780
X74524Y11220
X76492Y11220
X71476Y38780
X70492Y38780
X69508Y38780
X68524Y38780
X68524Y11220
X70492Y11220
X65476Y38780
X28492Y11220
X63508Y38780
X62524Y38780
X62524Y11220
X64492Y11220
X59476Y38780
X58492Y38780
X57508Y38780
X56524Y38780
X56524Y11220
X58492Y11220
X53476Y38780
X52492Y38780
X51508Y38780
X50524Y38780
X50524Y11220
X52492Y11220
X47476Y38780
X46492Y38780
X45508Y38780
X44524Y38780
X44524Y11220
X46492Y11220
X41476Y38780
X40492Y38780
X39508Y38780
X38524Y38780
X38524Y11220
X40492Y11220
X35476Y38780
X34492Y38780
X33508Y38780
X32524Y38780
X32524Y11220
X34492Y11220
X29476Y38780
X28492Y38780
X27508Y38780
X26524Y38780
X26524Y11220
X83476Y38780
X23476Y38780
X22492Y38780
X21508Y38780
X20524Y38780
X20524Y11220
X22492Y11220
X17476Y38780
X16492Y38780
X15508Y38780
X14524Y38780
X14524Y11220
X16492Y11220
X11476Y38780
X10492Y38780
X9508Y38780
X8524Y38780
X8524Y11220
X10492Y11220
X5476Y38780
X4492Y38780
X3508Y38780
X2524Y38780
X2524Y11220
X4492Y11220
X88492Y11220
X86524Y11220
X86524Y38780
X87508Y38780
X88492Y38780
X89476Y38780
X94492Y11220
X92524Y11220
X92524Y38780
X93508Y38780
X94492Y38780
X95476Y38780
X64492Y38780
T5
X1000Y8750
X12000Y8750
X2000Y2750
X3000Y2750
X4000Y2750
X5000Y2750
X6000Y2750
X2000Y8750
X3000Y8750
X4000Y8750
X5000Y8750
X6000Y8750
X7000Y8750
X8000Y8750
X9000Y8750
X10000Y8750
X11000Y8750
X1000Y2750
X13000Y8750
X14000Y8750
X14000Y2750
X13000Y2750
X12000Y2750
X11000Y2750
X10000Y2750
X9000Y2750
X8000Y2750
X7000Y2750
T6
X88213Y2644
X89787Y1856
X89787Y2644
X89000Y1856
X89000Y2644
X88213Y1856
T7
X29625Y6500
X66375Y5000
X30125Y6500
X64625Y4625
X25500Y8750
X58125Y5000
X25500Y8250
X56375Y4625
X25500Y6750
X42000Y4625
X25500Y6250
X39875Y4625
X25500Y5750
X33750Y4625
X25500Y5250
X31625Y4625
X51000Y9000
X33500Y10500
X19875Y5250
X72875Y4625
X29000Y6375
X74625Y5000
X29000Y6750
X81125Y4625
X29000Y7250
X82875Y5000
X29000Y7750
X89375Y4625
X29000Y8250
X91125Y5000
X29000Y8750
X90500Y12250
X80750Y12250
X72750Y12250
X64375Y12250
X56125Y12250
X48000Y12250
X40375Y12250
X30625Y12250
X549Y10000
X19250Y7250
X25500Y7250
X47750Y4625
X49750Y5000
X25500Y7750
X23625Y9250
X74500Y10500
M30