G04 EAGLE Gerber X2 export*
%TF.Part,Single*%
%TF.FileFunction,Legend,Top,1*%
%TF.FilePolarity,Positive*%
%TF.GenerationSoftware,Autodesk,EAGLE,9.1.3*%
%TF.CreationDate,2018-09-30T16:15:48Z*%
G75*
%MOIN*%
%FSLAX36Y36*%
%LPD*%
%AMOC8*
5,1,8,0,0,1.08239X$1,22.5*%
G01*
%ADD10C,0.012000*%
%ADD11C,0.016000*%
%ADD12C,0.004000*%
%ADD13C,0.006000*%
%ADD14C,0.003000*%
%ADD15C,0.005000*%
%ADD16C,0.019000*%
%ADD17C,0.082000*%
%ADD18C,0.008000*%
%ADD19C,0.010000*%
%ADD20C,0.019685*%
%ADD21C,0.004724*%

G36*
X1824996Y832540D02*
X1824996Y832540D01*
X1825454Y832542D01*
X1825458Y832544D01*
X1825462Y832544D01*
X1825877Y832702D01*
X1826281Y832854D01*
X1826284Y832857D01*
X1826288Y832858D01*
X1826860Y833331D01*
X1861860Y872331D01*
X1862009Y872572D01*
X1862188Y872792D01*
X1862240Y872945D01*
X1862325Y873082D01*
X1862381Y873360D01*
X1862472Y873629D01*
X1862467Y873790D01*
X1862499Y873949D01*
X1862454Y874229D01*
X1862446Y874512D01*
X1862386Y874662D01*
X1862360Y874822D01*
X1862221Y875069D01*
X1862115Y875332D01*
X1862006Y875451D01*
X1861927Y875592D01*
X1861710Y875775D01*
X1861519Y875984D01*
X1861376Y876058D01*
X1861252Y876163D01*
X1860986Y876259D01*
X1860734Y876389D01*
X1860551Y876417D01*
X1860421Y876463D01*
X1860248Y876462D01*
X1860000Y876499D01*
X1793000Y876499D01*
X1792775Y876459D01*
X1792546Y876458D01*
X1792343Y876381D01*
X1792130Y876343D01*
X1791933Y876227D01*
X1791719Y876146D01*
X1791556Y876004D01*
X1791369Y875894D01*
X1791225Y875716D01*
X1791052Y875566D01*
X1790949Y875376D01*
X1790812Y875208D01*
X1790739Y874991D01*
X1790629Y874790D01*
X1790598Y874576D01*
X1790528Y874371D01*
X1790535Y874142D01*
X1790502Y873916D01*
X1790548Y873704D01*
X1790554Y873488D01*
X1790640Y873276D01*
X1790688Y873052D01*
X1790819Y872831D01*
X1790885Y872668D01*
X1790976Y872569D01*
X1791068Y872415D01*
X1823068Y833415D01*
X1823071Y833412D01*
X1823073Y833408D01*
X1823409Y833124D01*
X1823740Y832841D01*
X1823744Y832840D01*
X1823748Y832837D01*
X1824152Y832691D01*
X1824570Y832538D01*
X1824575Y832538D01*
X1824579Y832537D01*
X1824996Y832540D01*
G37*
G36*
X1924996Y832540D02*
X1924996Y832540D01*
X1925454Y832542D01*
X1925458Y832544D01*
X1925462Y832544D01*
X1925877Y832702D01*
X1926281Y832854D01*
X1926284Y832857D01*
X1926288Y832858D01*
X1926860Y833331D01*
X1961860Y872331D01*
X1962009Y872572D01*
X1962188Y872792D01*
X1962240Y872945D01*
X1962325Y873082D01*
X1962381Y873360D01*
X1962472Y873629D01*
X1962467Y873790D01*
X1962499Y873949D01*
X1962454Y874229D01*
X1962446Y874512D01*
X1962386Y874662D01*
X1962360Y874822D01*
X1962221Y875069D01*
X1962115Y875332D01*
X1962006Y875451D01*
X1961927Y875592D01*
X1961710Y875775D01*
X1961519Y875984D01*
X1961376Y876058D01*
X1961252Y876163D01*
X1960986Y876259D01*
X1960734Y876389D01*
X1960551Y876417D01*
X1960421Y876463D01*
X1960248Y876462D01*
X1960000Y876499D01*
X1893000Y876499D01*
X1892775Y876459D01*
X1892546Y876458D01*
X1892343Y876381D01*
X1892130Y876343D01*
X1891933Y876227D01*
X1891719Y876146D01*
X1891556Y876004D01*
X1891369Y875894D01*
X1891225Y875716D01*
X1891052Y875566D01*
X1890949Y875376D01*
X1890812Y875208D01*
X1890739Y874991D01*
X1890629Y874790D01*
X1890598Y874576D01*
X1890528Y874371D01*
X1890535Y874142D01*
X1890502Y873916D01*
X1890548Y873704D01*
X1890554Y873488D01*
X1890640Y873276D01*
X1890688Y873052D01*
X1890819Y872831D01*
X1890885Y872668D01*
X1890976Y872569D01*
X1891068Y872415D01*
X1923068Y833415D01*
X1923071Y833412D01*
X1923073Y833408D01*
X1923409Y833124D01*
X1923740Y832841D01*
X1923744Y832840D01*
X1923748Y832837D01*
X1924152Y832691D01*
X1924570Y832538D01*
X1924575Y832538D01*
X1924579Y832537D01*
X1924996Y832540D01*
G37*
G36*
X2124996Y832540D02*
X2124996Y832540D01*
X2125454Y832542D01*
X2125458Y832544D01*
X2125462Y832544D01*
X2125877Y832702D01*
X2126281Y832854D01*
X2126284Y832857D01*
X2126288Y832858D01*
X2126860Y833331D01*
X2161860Y872331D01*
X2162009Y872572D01*
X2162188Y872792D01*
X2162240Y872945D01*
X2162325Y873082D01*
X2162381Y873360D01*
X2162472Y873629D01*
X2162467Y873790D01*
X2162499Y873949D01*
X2162454Y874229D01*
X2162446Y874512D01*
X2162386Y874662D01*
X2162360Y874822D01*
X2162221Y875069D01*
X2162115Y875332D01*
X2162006Y875451D01*
X2161927Y875592D01*
X2161710Y875775D01*
X2161519Y875984D01*
X2161376Y876058D01*
X2161252Y876163D01*
X2160986Y876259D01*
X2160734Y876389D01*
X2160551Y876417D01*
X2160421Y876463D01*
X2160248Y876462D01*
X2160000Y876499D01*
X2093000Y876499D01*
X2092775Y876459D01*
X2092546Y876458D01*
X2092343Y876381D01*
X2092130Y876343D01*
X2091933Y876227D01*
X2091719Y876146D01*
X2091556Y876004D01*
X2091369Y875894D01*
X2091225Y875716D01*
X2091052Y875566D01*
X2090949Y875376D01*
X2090812Y875208D01*
X2090739Y874991D01*
X2090629Y874790D01*
X2090598Y874576D01*
X2090528Y874371D01*
X2090535Y874142D01*
X2090502Y873916D01*
X2090548Y873704D01*
X2090554Y873488D01*
X2090640Y873276D01*
X2090688Y873052D01*
X2090819Y872831D01*
X2090885Y872668D01*
X2090976Y872569D01*
X2091068Y872415D01*
X2123068Y833415D01*
X2123071Y833412D01*
X2123073Y833408D01*
X2123409Y833124D01*
X2123740Y832841D01*
X2123744Y832840D01*
X2123748Y832837D01*
X2124152Y832691D01*
X2124570Y832538D01*
X2124575Y832538D01*
X2124579Y832537D01*
X2124996Y832540D01*
G37*
G36*
X2024996Y832540D02*
X2024996Y832540D01*
X2025454Y832542D01*
X2025458Y832544D01*
X2025462Y832544D01*
X2025877Y832702D01*
X2026281Y832854D01*
X2026284Y832857D01*
X2026288Y832858D01*
X2026860Y833331D01*
X2061860Y872331D01*
X2062009Y872572D01*
X2062188Y872792D01*
X2062240Y872945D01*
X2062325Y873082D01*
X2062381Y873360D01*
X2062472Y873629D01*
X2062467Y873790D01*
X2062499Y873949D01*
X2062454Y874229D01*
X2062446Y874512D01*
X2062386Y874662D01*
X2062360Y874822D01*
X2062221Y875069D01*
X2062115Y875332D01*
X2062006Y875451D01*
X2061927Y875592D01*
X2061710Y875775D01*
X2061519Y875984D01*
X2061376Y876058D01*
X2061252Y876163D01*
X2060986Y876259D01*
X2060734Y876389D01*
X2060551Y876417D01*
X2060421Y876463D01*
X2060248Y876462D01*
X2060000Y876499D01*
X1993000Y876499D01*
X1992775Y876459D01*
X1992546Y876458D01*
X1992343Y876381D01*
X1992130Y876343D01*
X1991933Y876227D01*
X1991719Y876146D01*
X1991556Y876004D01*
X1991369Y875894D01*
X1991225Y875716D01*
X1991052Y875566D01*
X1990949Y875376D01*
X1990812Y875208D01*
X1990739Y874991D01*
X1990629Y874790D01*
X1990598Y874576D01*
X1990528Y874371D01*
X1990535Y874142D01*
X1990502Y873916D01*
X1990548Y873704D01*
X1990554Y873488D01*
X1990640Y873276D01*
X1990688Y873052D01*
X1990819Y872831D01*
X1990885Y872668D01*
X1990976Y872569D01*
X1991068Y872415D01*
X2023068Y833415D01*
X2023071Y833412D01*
X2023073Y833408D01*
X2023409Y833124D01*
X2023740Y832841D01*
X2023744Y832840D01*
X2023748Y832837D01*
X2024152Y832691D01*
X2024570Y832538D01*
X2024575Y832538D01*
X2024579Y832537D01*
X2024996Y832540D01*
G37*
D10*
X9173323Y81000D02*
X9173323Y139717D01*
X9202681Y169075D01*
X9232040Y139717D01*
X9232040Y81000D01*
X9232040Y125038D02*
X9173323Y125038D01*
X8580213Y169075D02*
X8580213Y81000D01*
X8580213Y110358D02*
X8638929Y169075D01*
X8594892Y125038D02*
X8638929Y81000D01*
D11*
X7641366Y58000D02*
X7641366Y134065D01*
X7679399Y172097D01*
X7717431Y134065D01*
X7717431Y58000D01*
X7717431Y115049D02*
X7641366Y115049D01*
D12*
X7800712Y127000D02*
X7800712Y173039D01*
X7785366Y173039D02*
X7816059Y173039D01*
X7831405Y157693D02*
X7839078Y157693D01*
X7839078Y127000D01*
X7831405Y127000D02*
X7846752Y127000D01*
X7839078Y173039D02*
X7839078Y180712D01*
X7862098Y157693D02*
X7862098Y111654D01*
X7862098Y157693D02*
X7885118Y157693D01*
X7892791Y150020D01*
X7892791Y134673D01*
X7885118Y127000D01*
X7862098Y127000D01*
X7954177Y157693D02*
X7961850Y157693D01*
X7961850Y127000D01*
X7954177Y127000D02*
X7969523Y127000D01*
X7961850Y173039D02*
X7961850Y180712D01*
X7984869Y127000D02*
X8007889Y127000D01*
X8015562Y134673D01*
X8007889Y142346D01*
X7992543Y142346D01*
X7984869Y150020D01*
X7992543Y157693D01*
X8015562Y157693D01*
X8076948Y150020D02*
X8107641Y150020D01*
X8092294Y165366D02*
X8092294Y134673D01*
X8122987Y173039D02*
X8153680Y173039D01*
X8122987Y173039D02*
X8122987Y150020D01*
X8138334Y157693D01*
X8146007Y157693D01*
X8153680Y150020D01*
X8153680Y134673D01*
X8146007Y127000D01*
X8130660Y127000D01*
X8122987Y134673D01*
X8169026Y142346D02*
X8169026Y173039D01*
X8169026Y142346D02*
X8184373Y127000D01*
X8199719Y142346D01*
X8199719Y173039D01*
X7785366Y98039D02*
X7785366Y52000D01*
X7785366Y98039D02*
X7808386Y98039D01*
X7816059Y90366D01*
X7816059Y75020D01*
X7808386Y67346D01*
X7785366Y67346D01*
X7800712Y67346D02*
X7816059Y52000D01*
X7831405Y82693D02*
X7839078Y82693D01*
X7839078Y52000D01*
X7831405Y52000D02*
X7846752Y52000D01*
X7839078Y98039D02*
X7839078Y105712D01*
X7862098Y82693D02*
X7862098Y52000D01*
X7862098Y82693D02*
X7885118Y82693D01*
X7892791Y75020D01*
X7892791Y52000D01*
X7923484Y36654D02*
X7931157Y36654D01*
X7938830Y44327D01*
X7938830Y82693D01*
X7915811Y82693D01*
X7908137Y75020D01*
X7908137Y59673D01*
X7915811Y52000D01*
X7938830Y52000D01*
X8000216Y82693D02*
X8007889Y82693D01*
X8007889Y52000D01*
X8000216Y52000D02*
X8015562Y52000D01*
X8007889Y98039D02*
X8007889Y105712D01*
X8030909Y52000D02*
X8053928Y52000D01*
X8061602Y59673D01*
X8053928Y67346D01*
X8038582Y67346D01*
X8030909Y75020D01*
X8038582Y82693D01*
X8061602Y82693D01*
X8130660Y98039D02*
X8146007Y98039D01*
X8130660Y98039D02*
X8122987Y90366D01*
X8122987Y59673D01*
X8130660Y52000D01*
X8146007Y52000D01*
X8153680Y59673D01*
X8153680Y90366D01*
X8146007Y98039D01*
X8169026Y82693D02*
X8169026Y59673D01*
X8176700Y52000D01*
X8199719Y52000D01*
X8199719Y82693D01*
X8222739Y90366D02*
X8222739Y59673D01*
X8230412Y52000D01*
X8230412Y82693D02*
X8215066Y82693D01*
X7800712Y327000D02*
X7800712Y373039D01*
X7785366Y373039D02*
X7816059Y373039D01*
X7831405Y357693D02*
X7839078Y357693D01*
X7839078Y327000D01*
X7831405Y327000D02*
X7846752Y327000D01*
X7839078Y373039D02*
X7839078Y380712D01*
X7862098Y357693D02*
X7862098Y311654D01*
X7862098Y357693D02*
X7885118Y357693D01*
X7892791Y350020D01*
X7892791Y334673D01*
X7885118Y327000D01*
X7862098Y327000D01*
X7954177Y357693D02*
X7961850Y357693D01*
X7961850Y327000D01*
X7954177Y327000D02*
X7969523Y327000D01*
X7961850Y373039D02*
X7961850Y380712D01*
X7984869Y327000D02*
X8007889Y327000D01*
X8015562Y334673D01*
X8007889Y342346D01*
X7992543Y342346D01*
X7984869Y350020D01*
X7992543Y357693D01*
X8015562Y357693D01*
X8084621Y373039D02*
X8099968Y373039D01*
X8084621Y373039D02*
X8076948Y365366D01*
X8076948Y334673D01*
X8084621Y327000D01*
X8099968Y327000D01*
X8107641Y334673D01*
X8107641Y365366D01*
X8099968Y373039D01*
X8122987Y357693D02*
X8122987Y334673D01*
X8130660Y327000D01*
X8153680Y327000D01*
X8153680Y357693D01*
X8176700Y365366D02*
X8176700Y334673D01*
X8184373Y327000D01*
X8184373Y357693D02*
X8169026Y357693D01*
X7785366Y298039D02*
X7785366Y252000D01*
X7785366Y298039D02*
X7808386Y298039D01*
X7816059Y290366D01*
X7816059Y275020D01*
X7808386Y267346D01*
X7785366Y267346D01*
X7800712Y267346D02*
X7816059Y252000D01*
X7831405Y282693D02*
X7839078Y282693D01*
X7839078Y252000D01*
X7831405Y252000D02*
X7846752Y252000D01*
X7839078Y298039D02*
X7839078Y305712D01*
X7862098Y282693D02*
X7862098Y252000D01*
X7862098Y282693D02*
X7885118Y282693D01*
X7892791Y275020D01*
X7892791Y252000D01*
X7923484Y236654D02*
X7931157Y236654D01*
X7938830Y244327D01*
X7938830Y282693D01*
X7915811Y282693D01*
X7908137Y275020D01*
X7908137Y259673D01*
X7915811Y252000D01*
X7938830Y252000D01*
X8000216Y282693D02*
X8007889Y282693D01*
X8007889Y252000D01*
X8000216Y252000D02*
X8015562Y252000D01*
X8007889Y298039D02*
X8007889Y305712D01*
X8030909Y252000D02*
X8053928Y252000D01*
X8061602Y259673D01*
X8053928Y267346D01*
X8038582Y267346D01*
X8030909Y275020D01*
X8038582Y282693D01*
X8061602Y282693D01*
X8122987Y275020D02*
X8153680Y275020D01*
X8138334Y290366D02*
X8138334Y259673D01*
X8169026Y298039D02*
X8199719Y298039D01*
X8169026Y298039D02*
X8169026Y275020D01*
X8184373Y282693D01*
X8192046Y282693D01*
X8199719Y275020D01*
X8199719Y259673D01*
X8192046Y252000D01*
X8176700Y252000D01*
X8169026Y259673D01*
X8215066Y267346D02*
X8215066Y298039D01*
X8215066Y267346D02*
X8230412Y252000D01*
X8245758Y267346D01*
X8245758Y298039D01*
D11*
X7641366Y245500D02*
X7641366Y359597D01*
X7641366Y283532D02*
X7717431Y359597D01*
X7660382Y302549D02*
X7717431Y245500D01*
D13*
X7758366Y370000D02*
X7758366Y50000D01*
D14*
X6822877Y239000D02*
X6809866Y252011D01*
X6809866Y265022D01*
X6822877Y278033D01*
X6835648Y278033D02*
X6835648Y239000D01*
X6835648Y252011D02*
X6861670Y278033D01*
X6842154Y258517D02*
X6861670Y239000D01*
X6880827Y239000D02*
X6893838Y239000D01*
X6900343Y245506D01*
X6900343Y258517D01*
X6893838Y265022D01*
X6880827Y265022D01*
X6874321Y258517D01*
X6874321Y245506D01*
X6880827Y239000D01*
X6912994Y239000D02*
X6912994Y265022D01*
X6912994Y252011D02*
X6926005Y265022D01*
X6932511Y265022D01*
X6958233Y225989D02*
X6964738Y225989D01*
X6971244Y232494D01*
X6971244Y265022D01*
X6951727Y265022D01*
X6945222Y258517D01*
X6945222Y245506D01*
X6951727Y239000D01*
X6971244Y239000D01*
X6983895Y225989D02*
X6996906Y239000D01*
X6996906Y245506D01*
X6990400Y245506D01*
X6990400Y239000D01*
X6996906Y239000D01*
X7048350Y239000D02*
X7048350Y278033D01*
X7061361Y265022D01*
X7074372Y278033D01*
X7074372Y239000D01*
X7093528Y265022D02*
X7106539Y265022D01*
X7113045Y258517D01*
X7113045Y239000D01*
X7093528Y239000D01*
X7087023Y245506D01*
X7093528Y252011D01*
X7113045Y252011D01*
X7125695Y239000D02*
X7125695Y278033D01*
X7125695Y252011D02*
X7145212Y239000D01*
X7125695Y252011D02*
X7145212Y265022D01*
X7164429Y239000D02*
X7177440Y239000D01*
X7164429Y239000D02*
X7157923Y245506D01*
X7157923Y258517D01*
X7164429Y265022D01*
X7177440Y265022D01*
X7183945Y258517D01*
X7183945Y252011D01*
X7157923Y252011D01*
X7196596Y239000D02*
X7196596Y265022D01*
X7216113Y265022D01*
X7222618Y258517D01*
X7222618Y239000D01*
X7241774Y239000D02*
X7254786Y239000D01*
X7261291Y245506D01*
X7261291Y258517D01*
X7254786Y265022D01*
X7241774Y265022D01*
X7235269Y258517D01*
X7235269Y245506D01*
X7241774Y239000D01*
X7273942Y265022D02*
X7280447Y265022D01*
X7280447Y239000D01*
X7273942Y239000D02*
X7286953Y239000D01*
X7280447Y278033D02*
X7280447Y284539D01*
X7299724Y239000D02*
X7319241Y239000D01*
X7325746Y245506D01*
X7319241Y252011D01*
X7306229Y252011D01*
X7299724Y258517D01*
X7306229Y265022D01*
X7325746Y265022D01*
X7344902Y239000D02*
X7357914Y239000D01*
X7344902Y239000D02*
X7338397Y245506D01*
X7338397Y258517D01*
X7344902Y265022D01*
X7357914Y265022D01*
X7364419Y258517D01*
X7364419Y252011D01*
X7338397Y252011D01*
X7377070Y225989D02*
X7390081Y239000D01*
X7390081Y245506D01*
X7383575Y245506D01*
X7383575Y239000D01*
X7390081Y239000D01*
X7448030Y239000D02*
X7461041Y239000D01*
X7448030Y239000D02*
X7441525Y245506D01*
X7441525Y258517D01*
X7448030Y265022D01*
X7461041Y265022D01*
X7467547Y258517D01*
X7467547Y252011D01*
X7441525Y252011D01*
X7486703Y245506D02*
X7486703Y271528D01*
X7486703Y245506D02*
X7493209Y239000D01*
X7493209Y265022D02*
X7480198Y265022D01*
X7512485Y265022D02*
X7532002Y265022D01*
X7512485Y265022D02*
X7505980Y258517D01*
X7505980Y245506D01*
X7512485Y239000D01*
X7532002Y239000D01*
X7544653Y239000D02*
X7557664Y252011D01*
X7557664Y265022D01*
X7544653Y278033D01*
X6822877Y51500D02*
X6809866Y64511D01*
X6809866Y77522D01*
X6822877Y90533D01*
X6835648Y77522D02*
X6835648Y51500D01*
X6835648Y77522D02*
X6848659Y90533D01*
X6861670Y77522D01*
X6861670Y51500D01*
X6861670Y71017D02*
X6835648Y71017D01*
X6874321Y77522D02*
X6874321Y51500D01*
X6874321Y64511D02*
X6887332Y77522D01*
X6893838Y77522D01*
X6913054Y84028D02*
X6913054Y58006D01*
X6919560Y51500D01*
X6919560Y77522D02*
X6906549Y77522D01*
X6932331Y77522D02*
X6932331Y58006D01*
X6938836Y51500D01*
X6958353Y51500D01*
X6958353Y77522D01*
X6971004Y77522D02*
X6971004Y51500D01*
X6971004Y64511D02*
X6984015Y77522D01*
X6990520Y77522D01*
X7003231Y77522D02*
X7009737Y77522D01*
X7009737Y51500D01*
X7016242Y51500D02*
X7003231Y51500D01*
X7009737Y90533D02*
X7009737Y97039D01*
X7035519Y77522D02*
X7048530Y77522D01*
X7055035Y71017D01*
X7055035Y51500D01*
X7035519Y51500D01*
X7029013Y58006D01*
X7035519Y64511D01*
X7055035Y64511D01*
X7080697Y51500D02*
X7067686Y38489D01*
X7080697Y51500D02*
X7080697Y58006D01*
X7074192Y58006D01*
X7074192Y51500D01*
X7080697Y51500D01*
X7132141Y51500D02*
X7132141Y90533D01*
X7158163Y51500D01*
X7158163Y90533D01*
X7177320Y51500D02*
X7190331Y51500D01*
X7196836Y58006D01*
X7196836Y71017D01*
X7190331Y77522D01*
X7177320Y77522D01*
X7170814Y71017D01*
X7170814Y58006D01*
X7177320Y51500D01*
X7209487Y77522D02*
X7222498Y51500D01*
X7235509Y77522D01*
X7254665Y77522D02*
X7267677Y77522D01*
X7274182Y71017D01*
X7274182Y51500D01*
X7254665Y51500D01*
X7248160Y58006D01*
X7254665Y64511D01*
X7274182Y64511D01*
X7293338Y58006D02*
X7293338Y84028D01*
X7293338Y58006D02*
X7299844Y51500D01*
X7299844Y77522D02*
X7286833Y77522D01*
X7312615Y77522D02*
X7319120Y77522D01*
X7319120Y51500D01*
X7312615Y51500D02*
X7325626Y51500D01*
X7319120Y90533D02*
X7319120Y97039D01*
X7344902Y51500D02*
X7357914Y51500D01*
X7364419Y58006D01*
X7364419Y71017D01*
X7357914Y77522D01*
X7344902Y77522D01*
X7338397Y71017D01*
X7338397Y58006D01*
X7344902Y51500D01*
X7377070Y51500D02*
X7377070Y77522D01*
X7396586Y77522D01*
X7403092Y71017D01*
X7403092Y51500D01*
X7415743Y38489D02*
X7428754Y51500D01*
X7428754Y58006D01*
X7422248Y58006D01*
X7422248Y51500D01*
X7428754Y51500D01*
X7486703Y51500D02*
X7499714Y51500D01*
X7486703Y51500D02*
X7480198Y58006D01*
X7480198Y71017D01*
X7486703Y77522D01*
X7499714Y77522D01*
X7506220Y71017D01*
X7506220Y64511D01*
X7480198Y64511D01*
X7525376Y58006D02*
X7525376Y84028D01*
X7525376Y58006D02*
X7531882Y51500D01*
X7531882Y77522D02*
X7518871Y77522D01*
X7551158Y77522D02*
X7570675Y77522D01*
X7551158Y77522D02*
X7544653Y71017D01*
X7544653Y58006D01*
X7551158Y51500D01*
X7570675Y51500D01*
X7583326Y51500D02*
X7596337Y64511D01*
X7596337Y77522D01*
X7583326Y90533D01*
D15*
X1906627Y626698D02*
X1897453Y617523D01*
X1897453Y599174D01*
X1906627Y590000D01*
X1915802Y590000D01*
X1924977Y599174D01*
X1924977Y617523D01*
X1934151Y626698D01*
X1943326Y626698D01*
X1952500Y617523D01*
X1952500Y599174D01*
X1943326Y590000D01*
X1897453Y672771D02*
X1906627Y681945D01*
X1897453Y672771D02*
X1897453Y654422D01*
X1906627Y645247D01*
X1943326Y645247D01*
X1952500Y654422D01*
X1952500Y672771D01*
X1943326Y681945D01*
X1952500Y700494D02*
X1897453Y700494D01*
X1952500Y700494D02*
X1952500Y737192D01*
X2006627Y626698D02*
X1997453Y617523D01*
X1997453Y599174D01*
X2006627Y590000D01*
X2015802Y590000D01*
X2024977Y599174D01*
X2024977Y617523D01*
X2034151Y626698D01*
X2043326Y626698D01*
X2052500Y617523D01*
X2052500Y599174D01*
X2043326Y590000D01*
X2052500Y645247D02*
X1997453Y645247D01*
X2052500Y645247D02*
X2052500Y672771D01*
X2043326Y681945D01*
X2006627Y681945D01*
X1997453Y672771D01*
X1997453Y645247D01*
X2015802Y700494D02*
X2052500Y700494D01*
X2015802Y700494D02*
X1997453Y718843D01*
X2015802Y737192D01*
X2052500Y737192D01*
X2024977Y737192D02*
X2024977Y700494D01*
D16*
X4696104Y425377D02*
X4721793Y451066D01*
X4721793Y374000D01*
X4696104Y374000D02*
X4747482Y374000D01*
X4810189Y438221D02*
X4835877Y451066D01*
X4810189Y438221D02*
X4784500Y412533D01*
X4784500Y386844D01*
X4797344Y374000D01*
X4823033Y374000D01*
X4835877Y386844D01*
X4835877Y399689D01*
X4823033Y412533D01*
X4784500Y412533D01*
D17*
X4725000Y312500D02*
X4725000Y87500D01*
X5075000Y87500D02*
X5075000Y287500D01*
X5075000Y350000D01*
X5012500Y412500D01*
X4975000Y412500D01*
X4962500Y412500D02*
X4900000Y412500D01*
D13*
X2299352Y158000D02*
X2278000Y158000D01*
X2288676Y158000D02*
X2288676Y222055D01*
X2278000Y222055D02*
X2299352Y222055D01*
X2320970Y158000D02*
X2363673Y158000D01*
X2320970Y158000D02*
X2363673Y200703D01*
X2363673Y211379D01*
X2352997Y222055D01*
X2331646Y222055D01*
X2320970Y211379D01*
X2417452Y222055D02*
X2428128Y211379D01*
X2417452Y222055D02*
X2396101Y222055D01*
X2385425Y211379D01*
X2385425Y168676D01*
X2396101Y158000D01*
X2417452Y158000D01*
X2428128Y168676D01*
X2449880Y200703D02*
X2460556Y200703D01*
X2460556Y190027D01*
X2449880Y190027D01*
X2449880Y200703D01*
X2449880Y168676D02*
X2460556Y168676D01*
X2460556Y158000D01*
X2449880Y158000D01*
X2449880Y168676D01*
X2567914Y158000D02*
X2567914Y222055D01*
X2546562Y222055D02*
X2589266Y222055D01*
X2611017Y200703D02*
X2621693Y200703D01*
X2621693Y158000D01*
X2611017Y158000D02*
X2632369Y158000D01*
X2621693Y222055D02*
X2621693Y232730D01*
X2653987Y200703D02*
X2653987Y136648D01*
X2653987Y200703D02*
X2686015Y200703D01*
X2696690Y190027D01*
X2696690Y168676D01*
X2686015Y158000D01*
X2653987Y158000D01*
X2814925Y222055D02*
X2825600Y211379D01*
X2814925Y222055D02*
X2793573Y222055D01*
X2782897Y211379D01*
X2782897Y200703D01*
X2793573Y190027D01*
X2814925Y190027D01*
X2825600Y179352D01*
X2825600Y168676D01*
X2814925Y158000D01*
X2793573Y158000D01*
X2782897Y168676D01*
X2847352Y158000D02*
X2847352Y222055D01*
X2847352Y158000D02*
X2879380Y158000D01*
X2890055Y168676D01*
X2890055Y211379D01*
X2879380Y222055D01*
X2847352Y222055D01*
X2911807Y200703D02*
X2911807Y158000D01*
X2911807Y200703D02*
X2933159Y222055D01*
X2954510Y200703D01*
X2954510Y158000D01*
X2954510Y190027D02*
X2911807Y190027D01*
X2976262Y136648D02*
X2997614Y158000D01*
X2997614Y168676D01*
X2986938Y168676D01*
X2986938Y158000D01*
X2997614Y158000D01*
X3083687Y158000D02*
X3083687Y222055D01*
X3115714Y222055D01*
X3126390Y211379D01*
X3126390Y190027D01*
X3115714Y179352D01*
X3083687Y179352D01*
X3105039Y179352D02*
X3126390Y158000D01*
X3148142Y200703D02*
X3158818Y200703D01*
X3158818Y158000D01*
X3148142Y158000D02*
X3169494Y158000D01*
X3158818Y222055D02*
X3158818Y232730D01*
X3191112Y200703D02*
X3191112Y158000D01*
X3191112Y200703D02*
X3223139Y200703D01*
X3233815Y190027D01*
X3233815Y158000D01*
X3276919Y136648D02*
X3287594Y136648D01*
X3298270Y147324D01*
X3298270Y200703D01*
X3266243Y200703D01*
X3255567Y190027D01*
X3255567Y168676D01*
X3266243Y158000D01*
X3298270Y158000D01*
X3416504Y222055D02*
X3427180Y211379D01*
X3416504Y222055D02*
X3395153Y222055D01*
X3384477Y211379D01*
X3384477Y200703D01*
X3395153Y190027D01*
X3416504Y190027D01*
X3427180Y179352D01*
X3427180Y168676D01*
X3416504Y158000D01*
X3395153Y158000D01*
X3384477Y168676D01*
X3480959Y222055D02*
X3491635Y211379D01*
X3480959Y222055D02*
X3459608Y222055D01*
X3448932Y211379D01*
X3448932Y168676D01*
X3459608Y158000D01*
X3480959Y158000D01*
X3491635Y168676D01*
X3513387Y158000D02*
X3513387Y222055D01*
X3513387Y158000D02*
X3556090Y158000D01*
X2278000Y117055D02*
X2278000Y53000D01*
X2310027Y53000D01*
X2320703Y63676D01*
X2320703Y106379D01*
X2310027Y117055D01*
X2278000Y117055D01*
X2353131Y117055D02*
X2374482Y117055D01*
X2353131Y117055D02*
X2342455Y106379D01*
X2342455Y63676D01*
X2353131Y53000D01*
X2374482Y53000D01*
X2385158Y63676D01*
X2385158Y106379D01*
X2374482Y117055D01*
X2471365Y117055D02*
X2471365Y53000D01*
X2514068Y53000D02*
X2471365Y117055D01*
X2514068Y117055D02*
X2514068Y53000D01*
X2546496Y117055D02*
X2567847Y117055D01*
X2546496Y117055D02*
X2535820Y106379D01*
X2535820Y63676D01*
X2546496Y53000D01*
X2567847Y53000D01*
X2578523Y63676D01*
X2578523Y106379D01*
X2567847Y117055D01*
X2621626Y117055D02*
X2621626Y53000D01*
X2600275Y117055D02*
X2642978Y117055D01*
X2729185Y117055D02*
X2729185Y53000D01*
X2729185Y85027D02*
X2771888Y85027D01*
X2771888Y53000D02*
X2771888Y117055D01*
X2804315Y117055D02*
X2825667Y117055D01*
X2804315Y117055D02*
X2793640Y106379D01*
X2793640Y63676D01*
X2804315Y53000D01*
X2825667Y53000D01*
X2836343Y63676D01*
X2836343Y106379D01*
X2825667Y117055D01*
X2879446Y117055D02*
X2879446Y53000D01*
X2858095Y117055D02*
X2900798Y117055D01*
X2987005Y117055D02*
X2987005Y53000D01*
X2987005Y117055D02*
X3019032Y117055D01*
X3029708Y106379D01*
X3029708Y85027D01*
X3019032Y74352D01*
X2987005Y74352D01*
X3051460Y53000D02*
X3051460Y117055D01*
X3051460Y53000D02*
X3094163Y53000D01*
X3115915Y63676D02*
X3115915Y117055D01*
X3115915Y63676D02*
X3126590Y53000D01*
X3147942Y53000D01*
X3158618Y63676D01*
X3158618Y117055D01*
X3212397Y117055D02*
X3223073Y106379D01*
X3212397Y117055D02*
X3191045Y117055D01*
X3180370Y106379D01*
X3180370Y63676D01*
X3191045Y53000D01*
X3212397Y53000D01*
X3223073Y63676D01*
X3223073Y85027D01*
X3201721Y85027D01*
X9578000Y865500D02*
X9578000Y929555D01*
X9599352Y908203D01*
X9620703Y929555D01*
X9620703Y865500D01*
X9642455Y865500D02*
X9663806Y865500D01*
X9653131Y865500D02*
X9653131Y929555D01*
X9663806Y929555D02*
X9642455Y929555D01*
X9685425Y929555D02*
X9685425Y865500D01*
X9717452Y865500D01*
X9728128Y876176D01*
X9728128Y918879D01*
X9717452Y929555D01*
X9685425Y929555D01*
X9749880Y865500D02*
X9771231Y865500D01*
X9760556Y865500D02*
X9760556Y929555D01*
X9771231Y929555D02*
X9749880Y929555D01*
X1688411Y70500D02*
X1667060Y70500D01*
X1677736Y70500D02*
X1677736Y134555D01*
X1688411Y134555D02*
X1667060Y134555D01*
X1710030Y70500D02*
X1731381Y70500D01*
X1720706Y70500D02*
X1720706Y134555D01*
X1731381Y134555D02*
X1710030Y134555D01*
X468190Y543000D02*
X468190Y607055D01*
X489541Y607055D02*
X446838Y607055D01*
X521969Y543000D02*
X543321Y543000D01*
X521969Y543000D02*
X511293Y553676D01*
X511293Y575027D01*
X521969Y585703D01*
X543321Y585703D01*
X553996Y575027D01*
X553996Y564352D01*
X511293Y564352D01*
X586424Y543000D02*
X607776Y543000D01*
X586424Y543000D02*
X575748Y553676D01*
X575748Y575027D01*
X586424Y585703D01*
X607776Y585703D01*
X618451Y575027D01*
X618451Y564352D01*
X575748Y564352D01*
X640203Y543000D02*
X640203Y585703D01*
X672231Y585703D01*
X682906Y575027D01*
X682906Y543000D01*
X704658Y543000D02*
X736686Y543000D01*
X747361Y553676D01*
X736686Y564352D01*
X715334Y564352D01*
X704658Y575027D01*
X715334Y585703D01*
X747361Y585703D01*
X769113Y585703D02*
X769113Y553676D01*
X779789Y543000D01*
X811816Y543000D01*
X811816Y532324D02*
X811816Y585703D01*
X811816Y532324D02*
X801141Y521648D01*
X790465Y521648D01*
X898023Y596379D02*
X908699Y607055D01*
X930050Y607055D01*
X940726Y596379D01*
X940726Y585703D01*
X930050Y575027D01*
X919375Y575027D01*
X930050Y575027D02*
X940726Y564352D01*
X940726Y553676D01*
X930050Y543000D01*
X908699Y543000D01*
X898023Y553676D01*
X962478Y553676D02*
X962478Y543000D01*
X962478Y553676D02*
X973154Y553676D01*
X973154Y543000D01*
X962478Y543000D01*
X994706Y543000D02*
X1037409Y543000D01*
X994706Y543000D02*
X1037409Y585703D01*
X1037409Y596379D01*
X1026733Y607055D01*
X1005381Y607055D01*
X994706Y596379D01*
X2620445Y445703D02*
X2620445Y403000D01*
X2620445Y445703D02*
X2631121Y445703D01*
X2673824Y403000D01*
X2684500Y403000D01*
X2684500Y499482D02*
X2620445Y499482D01*
X2652473Y467455D01*
X2652473Y510158D01*
X2684500Y531910D02*
X2620445Y531910D01*
X2652473Y531910D02*
X2652473Y574613D01*
X2684500Y574613D02*
X2620445Y574613D01*
X2620445Y628392D02*
X2631121Y639068D01*
X2620445Y628392D02*
X2620445Y607041D01*
X2631121Y596365D01*
X2673824Y596365D01*
X2684500Y607041D01*
X2684500Y628392D01*
X2673824Y639068D01*
X2684500Y692847D02*
X2620445Y692847D01*
X2652473Y660820D01*
X2652473Y703523D01*
X2673824Y725275D02*
X2631121Y725275D01*
X2620445Y735951D01*
X2620445Y757302D01*
X2631121Y767978D01*
X2673824Y767978D01*
X2684500Y757302D01*
X2684500Y735951D01*
X2673824Y725275D01*
X2631121Y767978D01*
X2631121Y811081D02*
X2620445Y832433D01*
X2631121Y811081D02*
X2652473Y789730D01*
X2673824Y789730D01*
X2684500Y800406D01*
X2684500Y821757D01*
X2673824Y832433D01*
X2663148Y832433D01*
X2652473Y821757D01*
X2652473Y789730D01*
X2620445Y854185D02*
X2620445Y896888D01*
X2631121Y896888D01*
X2673824Y854185D01*
X2684500Y854185D01*
D15*
X9222835Y1023622D02*
X9222835Y3976378D01*
X9577165Y3976378D01*
X9577165Y1023622D01*
X9222835Y1023622D01*
X8622835Y1023622D02*
X8622835Y3976378D01*
X8977165Y3976378D01*
X8977165Y1023622D01*
X8622835Y1023622D01*
X8022835Y1023622D02*
X8022835Y3976378D01*
X8377165Y3976378D01*
X8377165Y1023622D01*
X8022835Y1023622D01*
X7422835Y1023622D02*
X7422835Y3976378D01*
X7777165Y3976378D01*
X7777165Y1023622D01*
X7422835Y1023622D01*
X6822835Y1023622D02*
X6822835Y3976378D01*
X7177165Y3976378D01*
X7177165Y1023622D01*
X6822835Y1023622D01*
X6222835Y1023622D02*
X6222835Y3976378D01*
X6577165Y3976378D01*
X6577165Y1023622D01*
X6222835Y1023622D01*
X5622835Y1023622D02*
X5622835Y3976378D01*
X5977165Y3976378D01*
X5977165Y1023622D01*
X5622835Y1023622D01*
X5022835Y1023622D02*
X5022835Y3976378D01*
X5377165Y3976378D01*
X5377165Y1023622D01*
X5022835Y1023622D01*
X4422835Y1023622D02*
X4422835Y3976378D01*
X4777165Y3976378D01*
X4777165Y1023622D01*
X4422835Y1023622D01*
X3822835Y1023622D02*
X3822835Y3976378D01*
X4177165Y3976378D01*
X4177165Y1023622D01*
X3822835Y1023622D01*
X3222835Y1023622D02*
X3222835Y3976378D01*
X3577165Y3976378D01*
X3577165Y1023622D01*
X3222835Y1023622D01*
X2622835Y1023622D02*
X2622835Y3976378D01*
X2977165Y3976378D01*
X2977165Y1023622D01*
X2622835Y1023622D01*
X2022835Y1023622D02*
X2022835Y3976378D01*
X2377165Y3976378D01*
X2377165Y1023622D01*
X2022835Y1023622D01*
X1422835Y1023622D02*
X1422835Y3976378D01*
X1777165Y3976378D01*
X1777165Y1023622D01*
X1422835Y1023622D01*
X822835Y1023622D02*
X822835Y3976378D01*
X1177165Y3976378D01*
X1177165Y1023622D01*
X822835Y1023622D01*
X222835Y1023622D02*
X222835Y3976378D01*
X577165Y3976378D01*
X577165Y1023622D01*
X222835Y1023622D01*
D12*
X8288882Y60539D02*
X8288882Y14500D01*
X8288882Y60539D02*
X8311902Y60539D01*
X8319575Y52866D01*
X8319575Y37520D01*
X8311902Y29846D01*
X8288882Y29846D01*
X8304228Y29846D02*
X8319575Y14500D01*
X8334921Y60539D02*
X8365614Y60539D01*
X8334921Y60539D02*
X8334921Y37520D01*
X8350268Y45193D01*
X8357941Y45193D01*
X8365614Y37520D01*
X8365614Y22173D01*
X8357941Y14500D01*
X8342594Y14500D01*
X8334921Y22173D01*
X8380961Y14500D02*
X8411653Y14500D01*
X8380961Y14500D02*
X8411653Y45193D01*
X8411653Y52866D01*
X8403980Y60539D01*
X8388634Y60539D01*
X8380961Y52866D01*
X8288882Y277000D02*
X8288882Y323039D01*
X8311902Y323039D01*
X8319575Y315366D01*
X8319575Y300020D01*
X8311902Y292346D01*
X8288882Y292346D01*
X8304228Y292346D02*
X8319575Y277000D01*
X8357941Y277000D02*
X8357941Y323039D01*
X8334921Y300020D01*
X8365614Y300020D01*
X8380961Y284673D02*
X8388634Y277000D01*
X8403980Y277000D01*
X8411653Y284673D01*
X8411653Y315366D01*
X8403980Y323039D01*
X8388634Y323039D01*
X8380961Y315366D01*
X8380961Y307693D01*
X8388634Y300020D01*
X8411653Y300020D01*
D18*
X9350394Y354331D02*
X9350394Y826772D01*
X9507874Y354331D02*
X9783465Y354331D01*
X9389764Y354331D02*
X9350394Y354331D01*
X9783465Y354331D02*
X9783465Y826772D01*
X9507874Y826772D01*
X9389764Y826772D02*
X9350394Y826772D01*
D12*
X2189500Y760539D02*
X2189500Y714500D01*
X2189500Y760539D02*
X2212520Y760539D01*
X2220193Y752866D01*
X2220193Y737520D01*
X2212520Y729846D01*
X2189500Y729846D01*
X2204846Y729846D02*
X2220193Y714500D01*
X2235539Y745193D02*
X2250886Y760539D01*
X2250886Y714500D01*
X2266232Y714500D02*
X2235539Y714500D01*
X2281578Y752866D02*
X2289252Y760539D01*
X2304598Y760539D01*
X2312271Y752866D01*
X2312271Y745193D01*
X2304598Y737520D01*
X2312271Y729846D01*
X2312271Y722173D01*
X2304598Y714500D01*
X2289252Y714500D01*
X2281578Y722173D01*
X2281578Y729846D01*
X2289252Y737520D01*
X2281578Y745193D01*
X2281578Y752866D01*
X2289252Y737520D02*
X2304598Y737520D01*
X2188882Y939500D02*
X2188882Y985539D01*
X2188882Y939500D02*
X2211902Y939500D01*
X2219575Y947173D01*
X2219575Y977866D01*
X2211902Y985539D01*
X2188882Y985539D01*
X2234921Y985539D02*
X2234921Y939500D01*
X2265614Y939500D02*
X2234921Y985539D01*
X2265614Y985539D02*
X2265614Y939500D01*
X2280961Y939500D02*
X2280961Y985539D01*
X2303980Y985539D01*
X2311653Y977866D01*
X2311653Y962520D01*
X2303980Y954846D01*
X2280961Y954846D01*
X1639500Y760539D02*
X1639500Y714500D01*
X1639500Y760539D02*
X1662520Y760539D01*
X1670193Y752866D01*
X1670193Y737520D01*
X1662520Y729846D01*
X1639500Y729846D01*
X1654846Y729846D02*
X1670193Y714500D01*
X1685539Y745193D02*
X1700886Y760539D01*
X1700886Y714500D01*
X1716232Y714500D02*
X1685539Y714500D01*
X1731578Y760539D02*
X1762271Y760539D01*
X1762271Y752866D01*
X1731578Y722173D01*
X1731578Y714500D01*
X1626382Y939500D02*
X1626382Y985539D01*
X1626382Y939500D02*
X1649402Y939500D01*
X1657075Y947173D01*
X1657075Y977866D01*
X1649402Y985539D01*
X1626382Y985539D01*
X1672421Y985539D02*
X1672421Y939500D01*
X1703114Y939500D02*
X1672421Y985539D01*
X1703114Y985539D02*
X1703114Y939500D01*
X1718461Y939500D02*
X1718461Y985539D01*
X1741480Y985539D01*
X1749153Y977866D01*
X1749153Y962520D01*
X1741480Y954846D01*
X1718461Y954846D01*
D19*
X1991488Y828300D02*
X2058512Y828300D01*
D14*
X2000337Y969500D02*
X2000337Y1006532D01*
X2000337Y969500D02*
X2018853Y969500D01*
X2025025Y975672D01*
X2025025Y1000360D01*
X2018853Y1006532D01*
X2000337Y1006532D01*
X2037169Y1000360D02*
X2043340Y1006532D01*
X2055684Y1006532D01*
X2061856Y1000360D01*
X2061856Y994188D01*
X2055684Y988016D01*
X2049512Y988016D01*
X2055684Y988016D02*
X2061856Y981844D01*
X2061856Y975672D01*
X2055684Y969500D01*
X2043340Y969500D01*
X2037169Y975672D01*
D19*
X2091488Y828300D02*
X2158512Y828300D01*
D14*
X2100337Y969500D02*
X2100337Y1006532D01*
X2100337Y969500D02*
X2118853Y969500D01*
X2125025Y975672D01*
X2125025Y1000360D01*
X2118853Y1006532D01*
X2100337Y1006532D01*
X2155684Y1006532D02*
X2155684Y969500D01*
X2137169Y988016D02*
X2155684Y1006532D01*
X2161856Y988016D02*
X2137169Y988016D01*
D19*
X1958512Y828300D02*
X1891488Y828300D01*
D14*
X1900337Y969500D02*
X1900337Y1006532D01*
X1900337Y969500D02*
X1918853Y969500D01*
X1925025Y975672D01*
X1925025Y1000360D01*
X1918853Y1006532D01*
X1900337Y1006532D01*
X1937169Y969500D02*
X1961856Y969500D01*
X1937169Y969500D02*
X1961856Y994188D01*
X1961856Y1000360D01*
X1955684Y1006532D01*
X1943340Y1006532D01*
X1937169Y1000360D01*
D19*
X1858512Y828300D02*
X1791488Y828300D01*
D14*
X1800337Y969500D02*
X1800337Y1006532D01*
X1800337Y969500D02*
X1818853Y969500D01*
X1825025Y975672D01*
X1825025Y1000360D01*
X1818853Y1006532D01*
X1800337Y1006532D01*
X1837169Y994188D02*
X1849512Y1006532D01*
X1849512Y969500D01*
X1837169Y969500D02*
X1861856Y969500D01*
D18*
X3250197Y819488D02*
X3250197Y480512D01*
X3250197Y819488D02*
X3269882Y819488D01*
X3399803Y819488D01*
X3269882Y819488D02*
X3269882Y480512D01*
X3399803Y480512D01*
X3269882Y480512D02*
X3250197Y480512D01*
X3399803Y480512D02*
X3399803Y819488D01*
D15*
X3290000Y800000D02*
X3290002Y800141D01*
X3290008Y800282D01*
X3290018Y800422D01*
X3290032Y800562D01*
X3290050Y800702D01*
X3290071Y800841D01*
X3290097Y800980D01*
X3290126Y801118D01*
X3290160Y801254D01*
X3290197Y801390D01*
X3290238Y801525D01*
X3290283Y801659D01*
X3290332Y801791D01*
X3290384Y801922D01*
X3290440Y802051D01*
X3290500Y802178D01*
X3290563Y802304D01*
X3290629Y802428D01*
X3290700Y802551D01*
X3290773Y802671D01*
X3290850Y802789D01*
X3290930Y802905D01*
X3291014Y803018D01*
X3291100Y803129D01*
X3291190Y803238D01*
X3291283Y803344D01*
X3291378Y803447D01*
X3291477Y803548D01*
X3291578Y803646D01*
X3291682Y803741D01*
X3291789Y803833D01*
X3291898Y803922D01*
X3292010Y804007D01*
X3292124Y804090D01*
X3292240Y804170D01*
X3292359Y804246D01*
X3292480Y804318D01*
X3292602Y804388D01*
X3292727Y804453D01*
X3292853Y804516D01*
X3292981Y804574D01*
X3293111Y804629D01*
X3293242Y804681D01*
X3293375Y804728D01*
X3293509Y804772D01*
X3293644Y804813D01*
X3293780Y804849D01*
X3293917Y804881D01*
X3294055Y804910D01*
X3294193Y804935D01*
X3294333Y804955D01*
X3294473Y804972D01*
X3294613Y804985D01*
X3294754Y804994D01*
X3294894Y804999D01*
X3295035Y805000D01*
X3295176Y804997D01*
X3295317Y804990D01*
X3295457Y804979D01*
X3295597Y804964D01*
X3295737Y804945D01*
X3295876Y804923D01*
X3296014Y804896D01*
X3296152Y804866D01*
X3296288Y804831D01*
X3296424Y804793D01*
X3296558Y804751D01*
X3296692Y804705D01*
X3296824Y804656D01*
X3296954Y804602D01*
X3297083Y804545D01*
X3297210Y804485D01*
X3297336Y804421D01*
X3297459Y804353D01*
X3297581Y804282D01*
X3297701Y804208D01*
X3297818Y804130D01*
X3297933Y804049D01*
X3298046Y803965D01*
X3298157Y803878D01*
X3298265Y803787D01*
X3298370Y803694D01*
X3298473Y803597D01*
X3298573Y803498D01*
X3298670Y803396D01*
X3298764Y803291D01*
X3298855Y803184D01*
X3298943Y803074D01*
X3299028Y802962D01*
X3299110Y802847D01*
X3299189Y802730D01*
X3299264Y802611D01*
X3299336Y802490D01*
X3299404Y802367D01*
X3299469Y802242D01*
X3299531Y802115D01*
X3299588Y801986D01*
X3299643Y801856D01*
X3299693Y801725D01*
X3299740Y801592D01*
X3299783Y801458D01*
X3299822Y801322D01*
X3299857Y801186D01*
X3299889Y801049D01*
X3299916Y800911D01*
X3299940Y800772D01*
X3299960Y800632D01*
X3299976Y800492D01*
X3299988Y800352D01*
X3299996Y800211D01*
X3300000Y800070D01*
X3300000Y799930D01*
X3299996Y799789D01*
X3299988Y799648D01*
X3299976Y799508D01*
X3299960Y799368D01*
X3299940Y799228D01*
X3299916Y799089D01*
X3299889Y798951D01*
X3299857Y798814D01*
X3299822Y798678D01*
X3299783Y798542D01*
X3299740Y798408D01*
X3299693Y798275D01*
X3299643Y798144D01*
X3299588Y798014D01*
X3299531Y797885D01*
X3299469Y797758D01*
X3299404Y797633D01*
X3299336Y797510D01*
X3299264Y797389D01*
X3299189Y797270D01*
X3299110Y797153D01*
X3299028Y797038D01*
X3298943Y796926D01*
X3298855Y796816D01*
X3298764Y796709D01*
X3298670Y796604D01*
X3298573Y796502D01*
X3298473Y796403D01*
X3298370Y796306D01*
X3298265Y796213D01*
X3298157Y796122D01*
X3298046Y796035D01*
X3297933Y795951D01*
X3297818Y795870D01*
X3297701Y795792D01*
X3297581Y795718D01*
X3297459Y795647D01*
X3297336Y795579D01*
X3297210Y795515D01*
X3297083Y795455D01*
X3296954Y795398D01*
X3296824Y795344D01*
X3296692Y795295D01*
X3296558Y795249D01*
X3296424Y795207D01*
X3296288Y795169D01*
X3296152Y795134D01*
X3296014Y795104D01*
X3295876Y795077D01*
X3295737Y795055D01*
X3295597Y795036D01*
X3295457Y795021D01*
X3295317Y795010D01*
X3295176Y795003D01*
X3295035Y795000D01*
X3294894Y795001D01*
X3294754Y795006D01*
X3294613Y795015D01*
X3294473Y795028D01*
X3294333Y795045D01*
X3294193Y795065D01*
X3294055Y795090D01*
X3293917Y795119D01*
X3293780Y795151D01*
X3293644Y795187D01*
X3293509Y795228D01*
X3293375Y795272D01*
X3293242Y795319D01*
X3293111Y795371D01*
X3292981Y795426D01*
X3292853Y795484D01*
X3292727Y795547D01*
X3292602Y795612D01*
X3292480Y795682D01*
X3292359Y795754D01*
X3292240Y795830D01*
X3292124Y795910D01*
X3292010Y795993D01*
X3291898Y796078D01*
X3291789Y796167D01*
X3291682Y796259D01*
X3291578Y796354D01*
X3291477Y796452D01*
X3291378Y796553D01*
X3291283Y796656D01*
X3291190Y796762D01*
X3291100Y796871D01*
X3291014Y796982D01*
X3290930Y797095D01*
X3290850Y797211D01*
X3290773Y797329D01*
X3290700Y797449D01*
X3290629Y797572D01*
X3290563Y797696D01*
X3290500Y797822D01*
X3290440Y797949D01*
X3290384Y798078D01*
X3290332Y798209D01*
X3290283Y798341D01*
X3290238Y798475D01*
X3290197Y798610D01*
X3290160Y798746D01*
X3290126Y798882D01*
X3290097Y799020D01*
X3290071Y799159D01*
X3290050Y799298D01*
X3290032Y799438D01*
X3290018Y799578D01*
X3290008Y799718D01*
X3290002Y799859D01*
X3290000Y800000D01*
D12*
X3252000Y465539D02*
X3252000Y427173D01*
X3259673Y419500D01*
X3275020Y419500D01*
X3282693Y427173D01*
X3282693Y465539D01*
X3298039Y419500D02*
X3328732Y419500D01*
X3298039Y419500D02*
X3328732Y450193D01*
X3328732Y457866D01*
X3321059Y465539D01*
X3305712Y465539D01*
X3298039Y457866D01*
X3539461Y313882D02*
X3585500Y313882D01*
X3539461Y313882D02*
X3539461Y336902D01*
X3547134Y344575D01*
X3562480Y344575D01*
X3570154Y336902D01*
X3570154Y313882D01*
X3570154Y329228D02*
X3585500Y344575D01*
X3547134Y359921D02*
X3539461Y367594D01*
X3539461Y382941D01*
X3547134Y390614D01*
X3554807Y390614D01*
X3562480Y382941D01*
X3562480Y375268D01*
X3562480Y382941D02*
X3570154Y390614D01*
X3577827Y390614D01*
X3585500Y382941D01*
X3585500Y367594D01*
X3577827Y359921D01*
X3539461Y405961D02*
X3539461Y436653D01*
X3539461Y405961D02*
X3562480Y405961D01*
X3554807Y421307D01*
X3554807Y428980D01*
X3562480Y436653D01*
X3577827Y436653D01*
X3585500Y428980D01*
X3585500Y413634D01*
X3577827Y405961D01*
X3626961Y313882D02*
X3673000Y313882D01*
X3626961Y313882D02*
X3626961Y336902D01*
X3634634Y344575D01*
X3649980Y344575D01*
X3657654Y336902D01*
X3657654Y313882D01*
X3657654Y329228D02*
X3673000Y344575D01*
X3634634Y359921D02*
X3626961Y367594D01*
X3626961Y382941D01*
X3634634Y390614D01*
X3642307Y390614D01*
X3649980Y382941D01*
X3649980Y375268D01*
X3649980Y382941D02*
X3657654Y390614D01*
X3665327Y390614D01*
X3673000Y382941D01*
X3673000Y367594D01*
X3665327Y359921D01*
X3634634Y421307D02*
X3626961Y436653D01*
X3634634Y421307D02*
X3649980Y405961D01*
X3665327Y405961D01*
X3673000Y413634D01*
X3673000Y428980D01*
X3665327Y436653D01*
X3657654Y436653D01*
X3649980Y428980D01*
X3649980Y405961D01*
X627000Y3889500D02*
X627000Y3935539D01*
X650020Y3935539D01*
X657693Y3927866D01*
X657693Y3912520D01*
X650020Y3904846D01*
X627000Y3904846D01*
X642346Y3904846D02*
X657693Y3889500D01*
X673039Y3920193D02*
X688386Y3935539D01*
X688386Y3889500D01*
X703732Y3889500D02*
X673039Y3889500D01*
X3626961Y838882D02*
X3673000Y838882D01*
X3626961Y838882D02*
X3626961Y861902D01*
X3634634Y869575D01*
X3649980Y869575D01*
X3657654Y861902D01*
X3657654Y838882D01*
X3657654Y854228D02*
X3673000Y869575D01*
X3673000Y884921D02*
X3673000Y915614D01*
X3673000Y884921D02*
X3642307Y915614D01*
X3634634Y915614D01*
X3626961Y907941D01*
X3626961Y892594D01*
X3634634Y884921D01*
X3673000Y930961D02*
X3673000Y961653D01*
X3673000Y930961D02*
X3642307Y961653D01*
X3634634Y961653D01*
X3626961Y953980D01*
X3626961Y938634D01*
X3634634Y930961D01*
X3585500Y838882D02*
X3539461Y838882D01*
X3539461Y861902D01*
X3547134Y869575D01*
X3562480Y869575D01*
X3570154Y861902D01*
X3570154Y838882D01*
X3570154Y854228D02*
X3585500Y869575D01*
X3585500Y884921D02*
X3585500Y915614D01*
X3585500Y884921D02*
X3554807Y915614D01*
X3547134Y915614D01*
X3539461Y907941D01*
X3539461Y892594D01*
X3547134Y884921D01*
X3554807Y930961D02*
X3539461Y946307D01*
X3585500Y946307D01*
X3585500Y930961D02*
X3585500Y961653D01*
D18*
X4075197Y819488D02*
X4075197Y480512D01*
X4075197Y819488D02*
X4094882Y819488D01*
X4224803Y819488D01*
X4094882Y819488D02*
X4094882Y480512D01*
X4224803Y480512D01*
X4094882Y480512D02*
X4075197Y480512D01*
X4224803Y480512D02*
X4224803Y819488D01*
D15*
X4115000Y800000D02*
X4115002Y800141D01*
X4115008Y800282D01*
X4115018Y800422D01*
X4115032Y800562D01*
X4115050Y800702D01*
X4115071Y800841D01*
X4115097Y800980D01*
X4115126Y801118D01*
X4115160Y801254D01*
X4115197Y801390D01*
X4115238Y801525D01*
X4115283Y801659D01*
X4115332Y801791D01*
X4115384Y801922D01*
X4115440Y802051D01*
X4115500Y802178D01*
X4115563Y802304D01*
X4115629Y802428D01*
X4115700Y802551D01*
X4115773Y802671D01*
X4115850Y802789D01*
X4115930Y802905D01*
X4116014Y803018D01*
X4116100Y803129D01*
X4116190Y803238D01*
X4116283Y803344D01*
X4116378Y803447D01*
X4116477Y803548D01*
X4116578Y803646D01*
X4116682Y803741D01*
X4116789Y803833D01*
X4116898Y803922D01*
X4117010Y804007D01*
X4117124Y804090D01*
X4117240Y804170D01*
X4117359Y804246D01*
X4117480Y804318D01*
X4117602Y804388D01*
X4117727Y804453D01*
X4117853Y804516D01*
X4117981Y804574D01*
X4118111Y804629D01*
X4118242Y804681D01*
X4118375Y804728D01*
X4118509Y804772D01*
X4118644Y804813D01*
X4118780Y804849D01*
X4118917Y804881D01*
X4119055Y804910D01*
X4119193Y804935D01*
X4119333Y804955D01*
X4119473Y804972D01*
X4119613Y804985D01*
X4119754Y804994D01*
X4119894Y804999D01*
X4120035Y805000D01*
X4120176Y804997D01*
X4120317Y804990D01*
X4120457Y804979D01*
X4120597Y804964D01*
X4120737Y804945D01*
X4120876Y804923D01*
X4121014Y804896D01*
X4121152Y804866D01*
X4121288Y804831D01*
X4121424Y804793D01*
X4121558Y804751D01*
X4121692Y804705D01*
X4121824Y804656D01*
X4121954Y804602D01*
X4122083Y804545D01*
X4122210Y804485D01*
X4122336Y804421D01*
X4122459Y804353D01*
X4122581Y804282D01*
X4122701Y804208D01*
X4122818Y804130D01*
X4122933Y804049D01*
X4123046Y803965D01*
X4123157Y803878D01*
X4123265Y803787D01*
X4123370Y803694D01*
X4123473Y803597D01*
X4123573Y803498D01*
X4123670Y803396D01*
X4123764Y803291D01*
X4123855Y803184D01*
X4123943Y803074D01*
X4124028Y802962D01*
X4124110Y802847D01*
X4124189Y802730D01*
X4124264Y802611D01*
X4124336Y802490D01*
X4124404Y802367D01*
X4124469Y802242D01*
X4124531Y802115D01*
X4124588Y801986D01*
X4124643Y801856D01*
X4124693Y801725D01*
X4124740Y801592D01*
X4124783Y801458D01*
X4124822Y801322D01*
X4124857Y801186D01*
X4124889Y801049D01*
X4124916Y800911D01*
X4124940Y800772D01*
X4124960Y800632D01*
X4124976Y800492D01*
X4124988Y800352D01*
X4124996Y800211D01*
X4125000Y800070D01*
X4125000Y799930D01*
X4124996Y799789D01*
X4124988Y799648D01*
X4124976Y799508D01*
X4124960Y799368D01*
X4124940Y799228D01*
X4124916Y799089D01*
X4124889Y798951D01*
X4124857Y798814D01*
X4124822Y798678D01*
X4124783Y798542D01*
X4124740Y798408D01*
X4124693Y798275D01*
X4124643Y798144D01*
X4124588Y798014D01*
X4124531Y797885D01*
X4124469Y797758D01*
X4124404Y797633D01*
X4124336Y797510D01*
X4124264Y797389D01*
X4124189Y797270D01*
X4124110Y797153D01*
X4124028Y797038D01*
X4123943Y796926D01*
X4123855Y796816D01*
X4123764Y796709D01*
X4123670Y796604D01*
X4123573Y796502D01*
X4123473Y796403D01*
X4123370Y796306D01*
X4123265Y796213D01*
X4123157Y796122D01*
X4123046Y796035D01*
X4122933Y795951D01*
X4122818Y795870D01*
X4122701Y795792D01*
X4122581Y795718D01*
X4122459Y795647D01*
X4122336Y795579D01*
X4122210Y795515D01*
X4122083Y795455D01*
X4121954Y795398D01*
X4121824Y795344D01*
X4121692Y795295D01*
X4121558Y795249D01*
X4121424Y795207D01*
X4121288Y795169D01*
X4121152Y795134D01*
X4121014Y795104D01*
X4120876Y795077D01*
X4120737Y795055D01*
X4120597Y795036D01*
X4120457Y795021D01*
X4120317Y795010D01*
X4120176Y795003D01*
X4120035Y795000D01*
X4119894Y795001D01*
X4119754Y795006D01*
X4119613Y795015D01*
X4119473Y795028D01*
X4119333Y795045D01*
X4119193Y795065D01*
X4119055Y795090D01*
X4118917Y795119D01*
X4118780Y795151D01*
X4118644Y795187D01*
X4118509Y795228D01*
X4118375Y795272D01*
X4118242Y795319D01*
X4118111Y795371D01*
X4117981Y795426D01*
X4117853Y795484D01*
X4117727Y795547D01*
X4117602Y795612D01*
X4117480Y795682D01*
X4117359Y795754D01*
X4117240Y795830D01*
X4117124Y795910D01*
X4117010Y795993D01*
X4116898Y796078D01*
X4116789Y796167D01*
X4116682Y796259D01*
X4116578Y796354D01*
X4116477Y796452D01*
X4116378Y796553D01*
X4116283Y796656D01*
X4116190Y796762D01*
X4116100Y796871D01*
X4116014Y796982D01*
X4115930Y797095D01*
X4115850Y797211D01*
X4115773Y797329D01*
X4115700Y797449D01*
X4115629Y797572D01*
X4115563Y797696D01*
X4115500Y797822D01*
X4115440Y797949D01*
X4115384Y798078D01*
X4115332Y798209D01*
X4115283Y798341D01*
X4115238Y798475D01*
X4115197Y798610D01*
X4115160Y798746D01*
X4115126Y798882D01*
X4115097Y799020D01*
X4115071Y799159D01*
X4115050Y799298D01*
X4115032Y799438D01*
X4115018Y799578D01*
X4115008Y799718D01*
X4115002Y799859D01*
X4115000Y800000D01*
D12*
X4077000Y465539D02*
X4077000Y427173D01*
X4084673Y419500D01*
X4100020Y419500D01*
X4107693Y427173D01*
X4107693Y465539D01*
X4123039Y457866D02*
X4130712Y465539D01*
X4146059Y465539D01*
X4153732Y457866D01*
X4153732Y450193D01*
X4146059Y442520D01*
X4138386Y442520D01*
X4146059Y442520D02*
X4153732Y434846D01*
X4153732Y427173D01*
X4146059Y419500D01*
X4130712Y419500D01*
X4123039Y427173D01*
X4364461Y313882D02*
X4410500Y313882D01*
X4364461Y313882D02*
X4364461Y336902D01*
X4372134Y344575D01*
X4387480Y344575D01*
X4395154Y336902D01*
X4395154Y313882D01*
X4395154Y329228D02*
X4410500Y344575D01*
X4372134Y359921D02*
X4364461Y367594D01*
X4364461Y382941D01*
X4372134Y390614D01*
X4379807Y390614D01*
X4387480Y382941D01*
X4387480Y375268D01*
X4387480Y382941D02*
X4395154Y390614D01*
X4402827Y390614D01*
X4410500Y382941D01*
X4410500Y367594D01*
X4402827Y359921D01*
X4364461Y405961D02*
X4364461Y436653D01*
X4372134Y436653D01*
X4402827Y405961D01*
X4410500Y405961D01*
X4451961Y313882D02*
X4498000Y313882D01*
X4451961Y313882D02*
X4451961Y336902D01*
X4459634Y344575D01*
X4474980Y344575D01*
X4482654Y336902D01*
X4482654Y313882D01*
X4482654Y329228D02*
X4498000Y344575D01*
X4459634Y359921D02*
X4451961Y367594D01*
X4451961Y382941D01*
X4459634Y390614D01*
X4467307Y390614D01*
X4474980Y382941D01*
X4474980Y375268D01*
X4474980Y382941D02*
X4482654Y390614D01*
X4490327Y390614D01*
X4498000Y382941D01*
X4498000Y367594D01*
X4490327Y359921D01*
X4459634Y405961D02*
X4451961Y413634D01*
X4451961Y428980D01*
X4459634Y436653D01*
X4467307Y436653D01*
X4474980Y428980D01*
X4482654Y436653D01*
X4490327Y436653D01*
X4498000Y428980D01*
X4498000Y413634D01*
X4490327Y405961D01*
X4482654Y405961D01*
X4474980Y413634D01*
X4467307Y405961D01*
X4459634Y405961D01*
X4474980Y413634D02*
X4474980Y428980D01*
X4498000Y838882D02*
X4451961Y838882D01*
X4451961Y861902D01*
X4459634Y869575D01*
X4474980Y869575D01*
X4482654Y861902D01*
X4482654Y838882D01*
X4482654Y854228D02*
X4498000Y869575D01*
X4498000Y884921D02*
X4498000Y915614D01*
X4498000Y884921D02*
X4467307Y915614D01*
X4459634Y915614D01*
X4451961Y907941D01*
X4451961Y892594D01*
X4459634Y884921D01*
X4451961Y953980D02*
X4498000Y953980D01*
X4474980Y930961D02*
X4451961Y953980D01*
X4474980Y961653D02*
X4474980Y930961D01*
X4410500Y838882D02*
X4364461Y838882D01*
X4364461Y861902D01*
X4372134Y869575D01*
X4387480Y869575D01*
X4395154Y861902D01*
X4395154Y838882D01*
X4395154Y854228D02*
X4410500Y869575D01*
X4410500Y884921D02*
X4410500Y915614D01*
X4410500Y884921D02*
X4379807Y915614D01*
X4372134Y915614D01*
X4364461Y907941D01*
X4364461Y892594D01*
X4372134Y884921D01*
X4372134Y930961D02*
X4364461Y938634D01*
X4364461Y953980D01*
X4372134Y961653D01*
X4379807Y961653D01*
X4387480Y953980D01*
X4387480Y946307D01*
X4387480Y953980D02*
X4395154Y961653D01*
X4402827Y961653D01*
X4410500Y953980D01*
X4410500Y938634D01*
X4402827Y930961D01*
D18*
X4900197Y819488D02*
X4900197Y480512D01*
X4900197Y819488D02*
X4919882Y819488D01*
X5049803Y819488D01*
X4919882Y819488D02*
X4919882Y480512D01*
X5049803Y480512D01*
X4919882Y480512D02*
X4900197Y480512D01*
X5049803Y480512D02*
X5049803Y819488D01*
D15*
X4940000Y800000D02*
X4940002Y800141D01*
X4940008Y800282D01*
X4940018Y800422D01*
X4940032Y800562D01*
X4940050Y800702D01*
X4940071Y800841D01*
X4940097Y800980D01*
X4940126Y801118D01*
X4940160Y801254D01*
X4940197Y801390D01*
X4940238Y801525D01*
X4940283Y801659D01*
X4940332Y801791D01*
X4940384Y801922D01*
X4940440Y802051D01*
X4940500Y802178D01*
X4940563Y802304D01*
X4940629Y802428D01*
X4940700Y802551D01*
X4940773Y802671D01*
X4940850Y802789D01*
X4940930Y802905D01*
X4941014Y803018D01*
X4941100Y803129D01*
X4941190Y803238D01*
X4941283Y803344D01*
X4941378Y803447D01*
X4941477Y803548D01*
X4941578Y803646D01*
X4941682Y803741D01*
X4941789Y803833D01*
X4941898Y803922D01*
X4942010Y804007D01*
X4942124Y804090D01*
X4942240Y804170D01*
X4942359Y804246D01*
X4942480Y804318D01*
X4942602Y804388D01*
X4942727Y804453D01*
X4942853Y804516D01*
X4942981Y804574D01*
X4943111Y804629D01*
X4943242Y804681D01*
X4943375Y804728D01*
X4943509Y804772D01*
X4943644Y804813D01*
X4943780Y804849D01*
X4943917Y804881D01*
X4944055Y804910D01*
X4944193Y804935D01*
X4944333Y804955D01*
X4944473Y804972D01*
X4944613Y804985D01*
X4944754Y804994D01*
X4944894Y804999D01*
X4945035Y805000D01*
X4945176Y804997D01*
X4945317Y804990D01*
X4945457Y804979D01*
X4945597Y804964D01*
X4945737Y804945D01*
X4945876Y804923D01*
X4946014Y804896D01*
X4946152Y804866D01*
X4946288Y804831D01*
X4946424Y804793D01*
X4946558Y804751D01*
X4946692Y804705D01*
X4946824Y804656D01*
X4946954Y804602D01*
X4947083Y804545D01*
X4947210Y804485D01*
X4947336Y804421D01*
X4947459Y804353D01*
X4947581Y804282D01*
X4947701Y804208D01*
X4947818Y804130D01*
X4947933Y804049D01*
X4948046Y803965D01*
X4948157Y803878D01*
X4948265Y803787D01*
X4948370Y803694D01*
X4948473Y803597D01*
X4948573Y803498D01*
X4948670Y803396D01*
X4948764Y803291D01*
X4948855Y803184D01*
X4948943Y803074D01*
X4949028Y802962D01*
X4949110Y802847D01*
X4949189Y802730D01*
X4949264Y802611D01*
X4949336Y802490D01*
X4949404Y802367D01*
X4949469Y802242D01*
X4949531Y802115D01*
X4949588Y801986D01*
X4949643Y801856D01*
X4949693Y801725D01*
X4949740Y801592D01*
X4949783Y801458D01*
X4949822Y801322D01*
X4949857Y801186D01*
X4949889Y801049D01*
X4949916Y800911D01*
X4949940Y800772D01*
X4949960Y800632D01*
X4949976Y800492D01*
X4949988Y800352D01*
X4949996Y800211D01*
X4950000Y800070D01*
X4950000Y799930D01*
X4949996Y799789D01*
X4949988Y799648D01*
X4949976Y799508D01*
X4949960Y799368D01*
X4949940Y799228D01*
X4949916Y799089D01*
X4949889Y798951D01*
X4949857Y798814D01*
X4949822Y798678D01*
X4949783Y798542D01*
X4949740Y798408D01*
X4949693Y798275D01*
X4949643Y798144D01*
X4949588Y798014D01*
X4949531Y797885D01*
X4949469Y797758D01*
X4949404Y797633D01*
X4949336Y797510D01*
X4949264Y797389D01*
X4949189Y797270D01*
X4949110Y797153D01*
X4949028Y797038D01*
X4948943Y796926D01*
X4948855Y796816D01*
X4948764Y796709D01*
X4948670Y796604D01*
X4948573Y796502D01*
X4948473Y796403D01*
X4948370Y796306D01*
X4948265Y796213D01*
X4948157Y796122D01*
X4948046Y796035D01*
X4947933Y795951D01*
X4947818Y795870D01*
X4947701Y795792D01*
X4947581Y795718D01*
X4947459Y795647D01*
X4947336Y795579D01*
X4947210Y795515D01*
X4947083Y795455D01*
X4946954Y795398D01*
X4946824Y795344D01*
X4946692Y795295D01*
X4946558Y795249D01*
X4946424Y795207D01*
X4946288Y795169D01*
X4946152Y795134D01*
X4946014Y795104D01*
X4945876Y795077D01*
X4945737Y795055D01*
X4945597Y795036D01*
X4945457Y795021D01*
X4945317Y795010D01*
X4945176Y795003D01*
X4945035Y795000D01*
X4944894Y795001D01*
X4944754Y795006D01*
X4944613Y795015D01*
X4944473Y795028D01*
X4944333Y795045D01*
X4944193Y795065D01*
X4944055Y795090D01*
X4943917Y795119D01*
X4943780Y795151D01*
X4943644Y795187D01*
X4943509Y795228D01*
X4943375Y795272D01*
X4943242Y795319D01*
X4943111Y795371D01*
X4942981Y795426D01*
X4942853Y795484D01*
X4942727Y795547D01*
X4942602Y795612D01*
X4942480Y795682D01*
X4942359Y795754D01*
X4942240Y795830D01*
X4942124Y795910D01*
X4942010Y795993D01*
X4941898Y796078D01*
X4941789Y796167D01*
X4941682Y796259D01*
X4941578Y796354D01*
X4941477Y796452D01*
X4941378Y796553D01*
X4941283Y796656D01*
X4941190Y796762D01*
X4941100Y796871D01*
X4941014Y796982D01*
X4940930Y797095D01*
X4940850Y797211D01*
X4940773Y797329D01*
X4940700Y797449D01*
X4940629Y797572D01*
X4940563Y797696D01*
X4940500Y797822D01*
X4940440Y797949D01*
X4940384Y798078D01*
X4940332Y798209D01*
X4940283Y798341D01*
X4940238Y798475D01*
X4940197Y798610D01*
X4940160Y798746D01*
X4940126Y798882D01*
X4940097Y799020D01*
X4940071Y799159D01*
X4940050Y799298D01*
X4940032Y799438D01*
X4940018Y799578D01*
X4940008Y799718D01*
X4940002Y799859D01*
X4940000Y800000D01*
D12*
X4739500Y815539D02*
X4739500Y777173D01*
X4747173Y769500D01*
X4762520Y769500D01*
X4770193Y777173D01*
X4770193Y815539D01*
X4808559Y815539D02*
X4808559Y769500D01*
X4785539Y792520D02*
X4808559Y815539D01*
X4816232Y792520D02*
X4785539Y792520D01*
X5189461Y313882D02*
X5235500Y313882D01*
X5189461Y313882D02*
X5189461Y336902D01*
X5197134Y344575D01*
X5212480Y344575D01*
X5220154Y336902D01*
X5220154Y313882D01*
X5220154Y329228D02*
X5235500Y344575D01*
X5197134Y359921D02*
X5189461Y367594D01*
X5189461Y382941D01*
X5197134Y390614D01*
X5204807Y390614D01*
X5212480Y382941D01*
X5212480Y375268D01*
X5212480Y382941D02*
X5220154Y390614D01*
X5227827Y390614D01*
X5235500Y382941D01*
X5235500Y367594D01*
X5227827Y359921D01*
X5227827Y405961D02*
X5235500Y413634D01*
X5235500Y428980D01*
X5227827Y436653D01*
X5197134Y436653D01*
X5189461Y428980D01*
X5189461Y413634D01*
X5197134Y405961D01*
X5204807Y405961D01*
X5212480Y413634D01*
X5212480Y436653D01*
X5276961Y313882D02*
X5323000Y313882D01*
X5276961Y313882D02*
X5276961Y336902D01*
X5284634Y344575D01*
X5299980Y344575D01*
X5307654Y336902D01*
X5307654Y313882D01*
X5307654Y329228D02*
X5323000Y344575D01*
X5323000Y382941D02*
X5276961Y382941D01*
X5299980Y359921D01*
X5299980Y390614D01*
X5315327Y405961D02*
X5284634Y405961D01*
X5276961Y413634D01*
X5276961Y428980D01*
X5284634Y436653D01*
X5315327Y436653D01*
X5323000Y428980D01*
X5323000Y413634D01*
X5315327Y405961D01*
X5284634Y436653D01*
X3027000Y3889500D02*
X3027000Y3935539D01*
X3050020Y3935539D01*
X3057693Y3927866D01*
X3057693Y3912520D01*
X3050020Y3904846D01*
X3027000Y3904846D01*
X3042346Y3904846D02*
X3057693Y3889500D01*
X3073039Y3935539D02*
X3103732Y3935539D01*
X3073039Y3935539D02*
X3073039Y3912520D01*
X3088386Y3920193D01*
X3096059Y3920193D01*
X3103732Y3912520D01*
X3103732Y3897173D01*
X3096059Y3889500D01*
X3080712Y3889500D01*
X3073039Y3897173D01*
X5276961Y838882D02*
X5323000Y838882D01*
X5276961Y838882D02*
X5276961Y861902D01*
X5284634Y869575D01*
X5299980Y869575D01*
X5307654Y861902D01*
X5307654Y838882D01*
X5307654Y854228D02*
X5323000Y869575D01*
X5323000Y884921D02*
X5323000Y915614D01*
X5323000Y884921D02*
X5292307Y915614D01*
X5284634Y915614D01*
X5276961Y907941D01*
X5276961Y892594D01*
X5284634Y884921D01*
X5284634Y946307D02*
X5276961Y961653D01*
X5284634Y946307D02*
X5299980Y930961D01*
X5315327Y930961D01*
X5323000Y938634D01*
X5323000Y953980D01*
X5315327Y961653D01*
X5307654Y961653D01*
X5299980Y953980D01*
X5299980Y930961D01*
X5235500Y838882D02*
X5189461Y838882D01*
X5189461Y861902D01*
X5197134Y869575D01*
X5212480Y869575D01*
X5220154Y861902D01*
X5220154Y838882D01*
X5220154Y854228D02*
X5235500Y869575D01*
X5235500Y884921D02*
X5235500Y915614D01*
X5235500Y884921D02*
X5204807Y915614D01*
X5197134Y915614D01*
X5189461Y907941D01*
X5189461Y892594D01*
X5197134Y884921D01*
X5189461Y930961D02*
X5189461Y961653D01*
X5189461Y930961D02*
X5212480Y930961D01*
X5204807Y946307D01*
X5204807Y953980D01*
X5212480Y961653D01*
X5227827Y961653D01*
X5235500Y953980D01*
X5235500Y938634D01*
X5227827Y930961D01*
D18*
X5725197Y819488D02*
X5725197Y480512D01*
X5725197Y819488D02*
X5744882Y819488D01*
X5874803Y819488D01*
X5744882Y819488D02*
X5744882Y480512D01*
X5874803Y480512D01*
X5744882Y480512D02*
X5725197Y480512D01*
X5874803Y480512D02*
X5874803Y819488D01*
D15*
X5765000Y800000D02*
X5765002Y800141D01*
X5765008Y800282D01*
X5765018Y800422D01*
X5765032Y800562D01*
X5765050Y800702D01*
X5765071Y800841D01*
X5765097Y800980D01*
X5765126Y801118D01*
X5765160Y801254D01*
X5765197Y801390D01*
X5765238Y801525D01*
X5765283Y801659D01*
X5765332Y801791D01*
X5765384Y801922D01*
X5765440Y802051D01*
X5765500Y802178D01*
X5765563Y802304D01*
X5765629Y802428D01*
X5765700Y802551D01*
X5765773Y802671D01*
X5765850Y802789D01*
X5765930Y802905D01*
X5766014Y803018D01*
X5766100Y803129D01*
X5766190Y803238D01*
X5766283Y803344D01*
X5766378Y803447D01*
X5766477Y803548D01*
X5766578Y803646D01*
X5766682Y803741D01*
X5766789Y803833D01*
X5766898Y803922D01*
X5767010Y804007D01*
X5767124Y804090D01*
X5767240Y804170D01*
X5767359Y804246D01*
X5767480Y804318D01*
X5767602Y804388D01*
X5767727Y804453D01*
X5767853Y804516D01*
X5767981Y804574D01*
X5768111Y804629D01*
X5768242Y804681D01*
X5768375Y804728D01*
X5768509Y804772D01*
X5768644Y804813D01*
X5768780Y804849D01*
X5768917Y804881D01*
X5769055Y804910D01*
X5769193Y804935D01*
X5769333Y804955D01*
X5769473Y804972D01*
X5769613Y804985D01*
X5769754Y804994D01*
X5769894Y804999D01*
X5770035Y805000D01*
X5770176Y804997D01*
X5770317Y804990D01*
X5770457Y804979D01*
X5770597Y804964D01*
X5770737Y804945D01*
X5770876Y804923D01*
X5771014Y804896D01*
X5771152Y804866D01*
X5771288Y804831D01*
X5771424Y804793D01*
X5771558Y804751D01*
X5771692Y804705D01*
X5771824Y804656D01*
X5771954Y804602D01*
X5772083Y804545D01*
X5772210Y804485D01*
X5772336Y804421D01*
X5772459Y804353D01*
X5772581Y804282D01*
X5772701Y804208D01*
X5772818Y804130D01*
X5772933Y804049D01*
X5773046Y803965D01*
X5773157Y803878D01*
X5773265Y803787D01*
X5773370Y803694D01*
X5773473Y803597D01*
X5773573Y803498D01*
X5773670Y803396D01*
X5773764Y803291D01*
X5773855Y803184D01*
X5773943Y803074D01*
X5774028Y802962D01*
X5774110Y802847D01*
X5774189Y802730D01*
X5774264Y802611D01*
X5774336Y802490D01*
X5774404Y802367D01*
X5774469Y802242D01*
X5774531Y802115D01*
X5774588Y801986D01*
X5774643Y801856D01*
X5774693Y801725D01*
X5774740Y801592D01*
X5774783Y801458D01*
X5774822Y801322D01*
X5774857Y801186D01*
X5774889Y801049D01*
X5774916Y800911D01*
X5774940Y800772D01*
X5774960Y800632D01*
X5774976Y800492D01*
X5774988Y800352D01*
X5774996Y800211D01*
X5775000Y800070D01*
X5775000Y799930D01*
X5774996Y799789D01*
X5774988Y799648D01*
X5774976Y799508D01*
X5774960Y799368D01*
X5774940Y799228D01*
X5774916Y799089D01*
X5774889Y798951D01*
X5774857Y798814D01*
X5774822Y798678D01*
X5774783Y798542D01*
X5774740Y798408D01*
X5774693Y798275D01*
X5774643Y798144D01*
X5774588Y798014D01*
X5774531Y797885D01*
X5774469Y797758D01*
X5774404Y797633D01*
X5774336Y797510D01*
X5774264Y797389D01*
X5774189Y797270D01*
X5774110Y797153D01*
X5774028Y797038D01*
X5773943Y796926D01*
X5773855Y796816D01*
X5773764Y796709D01*
X5773670Y796604D01*
X5773573Y796502D01*
X5773473Y796403D01*
X5773370Y796306D01*
X5773265Y796213D01*
X5773157Y796122D01*
X5773046Y796035D01*
X5772933Y795951D01*
X5772818Y795870D01*
X5772701Y795792D01*
X5772581Y795718D01*
X5772459Y795647D01*
X5772336Y795579D01*
X5772210Y795515D01*
X5772083Y795455D01*
X5771954Y795398D01*
X5771824Y795344D01*
X5771692Y795295D01*
X5771558Y795249D01*
X5771424Y795207D01*
X5771288Y795169D01*
X5771152Y795134D01*
X5771014Y795104D01*
X5770876Y795077D01*
X5770737Y795055D01*
X5770597Y795036D01*
X5770457Y795021D01*
X5770317Y795010D01*
X5770176Y795003D01*
X5770035Y795000D01*
X5769894Y795001D01*
X5769754Y795006D01*
X5769613Y795015D01*
X5769473Y795028D01*
X5769333Y795045D01*
X5769193Y795065D01*
X5769055Y795090D01*
X5768917Y795119D01*
X5768780Y795151D01*
X5768644Y795187D01*
X5768509Y795228D01*
X5768375Y795272D01*
X5768242Y795319D01*
X5768111Y795371D01*
X5767981Y795426D01*
X5767853Y795484D01*
X5767727Y795547D01*
X5767602Y795612D01*
X5767480Y795682D01*
X5767359Y795754D01*
X5767240Y795830D01*
X5767124Y795910D01*
X5767010Y795993D01*
X5766898Y796078D01*
X5766789Y796167D01*
X5766682Y796259D01*
X5766578Y796354D01*
X5766477Y796452D01*
X5766378Y796553D01*
X5766283Y796656D01*
X5766190Y796762D01*
X5766100Y796871D01*
X5766014Y796982D01*
X5765930Y797095D01*
X5765850Y797211D01*
X5765773Y797329D01*
X5765700Y797449D01*
X5765629Y797572D01*
X5765563Y797696D01*
X5765500Y797822D01*
X5765440Y797949D01*
X5765384Y798078D01*
X5765332Y798209D01*
X5765283Y798341D01*
X5765238Y798475D01*
X5765197Y798610D01*
X5765160Y798746D01*
X5765126Y798882D01*
X5765097Y799020D01*
X5765071Y799159D01*
X5765050Y799298D01*
X5765032Y799438D01*
X5765018Y799578D01*
X5765008Y799718D01*
X5765002Y799859D01*
X5765000Y800000D01*
D12*
X5727000Y465539D02*
X5727000Y427173D01*
X5734673Y419500D01*
X5750020Y419500D01*
X5757693Y427173D01*
X5757693Y465539D01*
X5773039Y465539D02*
X5803732Y465539D01*
X5773039Y465539D02*
X5773039Y442520D01*
X5788386Y450193D01*
X5796059Y450193D01*
X5803732Y442520D01*
X5803732Y427173D01*
X5796059Y419500D01*
X5780712Y419500D01*
X5773039Y427173D01*
X6014461Y313882D02*
X6060500Y313882D01*
X6014461Y313882D02*
X6014461Y336902D01*
X6022134Y344575D01*
X6037480Y344575D01*
X6045154Y336902D01*
X6045154Y313882D01*
X6045154Y329228D02*
X6060500Y344575D01*
X6060500Y382941D02*
X6014461Y382941D01*
X6037480Y359921D01*
X6037480Y390614D01*
X6029807Y405961D02*
X6014461Y421307D01*
X6060500Y421307D01*
X6060500Y405961D02*
X6060500Y436653D01*
X6101961Y313882D02*
X6148000Y313882D01*
X6101961Y313882D02*
X6101961Y336902D01*
X6109634Y344575D01*
X6124980Y344575D01*
X6132654Y336902D01*
X6132654Y313882D01*
X6132654Y329228D02*
X6148000Y344575D01*
X6148000Y382941D02*
X6101961Y382941D01*
X6124980Y359921D01*
X6124980Y390614D01*
X6148000Y405961D02*
X6148000Y436653D01*
X6148000Y405961D02*
X6117307Y436653D01*
X6109634Y436653D01*
X6101961Y428980D01*
X6101961Y413634D01*
X6109634Y405961D01*
X4227000Y3889500D02*
X4227000Y3935539D01*
X4250020Y3935539D01*
X4257693Y3927866D01*
X4257693Y3912520D01*
X4250020Y3904846D01*
X4227000Y3904846D01*
X4242346Y3904846D02*
X4257693Y3889500D01*
X4273039Y3935539D02*
X4303732Y3935539D01*
X4303732Y3927866D01*
X4273039Y3897173D01*
X4273039Y3889500D01*
X6101961Y838882D02*
X6148000Y838882D01*
X6101961Y838882D02*
X6101961Y861902D01*
X6109634Y869575D01*
X6124980Y869575D01*
X6132654Y861902D01*
X6132654Y838882D01*
X6132654Y854228D02*
X6148000Y869575D01*
X6148000Y884921D02*
X6148000Y915614D01*
X6148000Y884921D02*
X6117307Y915614D01*
X6109634Y915614D01*
X6101961Y907941D01*
X6101961Y892594D01*
X6109634Y884921D01*
X6109634Y930961D02*
X6101961Y938634D01*
X6101961Y953980D01*
X6109634Y961653D01*
X6117307Y961653D01*
X6124980Y953980D01*
X6132654Y961653D01*
X6140327Y961653D01*
X6148000Y953980D01*
X6148000Y938634D01*
X6140327Y930961D01*
X6132654Y930961D01*
X6124980Y938634D01*
X6117307Y930961D01*
X6109634Y930961D01*
X6124980Y938634D02*
X6124980Y953980D01*
X6060500Y838882D02*
X6014461Y838882D01*
X6014461Y861902D01*
X6022134Y869575D01*
X6037480Y869575D01*
X6045154Y861902D01*
X6045154Y838882D01*
X6045154Y854228D02*
X6060500Y869575D01*
X6060500Y884921D02*
X6060500Y915614D01*
X6060500Y884921D02*
X6029807Y915614D01*
X6022134Y915614D01*
X6014461Y907941D01*
X6014461Y892594D01*
X6022134Y884921D01*
X6014461Y930961D02*
X6014461Y961653D01*
X6022134Y961653D01*
X6052827Y930961D01*
X6060500Y930961D01*
D18*
X6550197Y819488D02*
X6550197Y480512D01*
X6550197Y819488D02*
X6569882Y819488D01*
X6699803Y819488D01*
X6569882Y819488D02*
X6569882Y480512D01*
X6699803Y480512D01*
X6569882Y480512D02*
X6550197Y480512D01*
X6699803Y480512D02*
X6699803Y819488D01*
D15*
X6590000Y800000D02*
X6590002Y800141D01*
X6590008Y800282D01*
X6590018Y800422D01*
X6590032Y800562D01*
X6590050Y800702D01*
X6590071Y800841D01*
X6590097Y800980D01*
X6590126Y801118D01*
X6590160Y801254D01*
X6590197Y801390D01*
X6590238Y801525D01*
X6590283Y801659D01*
X6590332Y801791D01*
X6590384Y801922D01*
X6590440Y802051D01*
X6590500Y802178D01*
X6590563Y802304D01*
X6590629Y802428D01*
X6590700Y802551D01*
X6590773Y802671D01*
X6590850Y802789D01*
X6590930Y802905D01*
X6591014Y803018D01*
X6591100Y803129D01*
X6591190Y803238D01*
X6591283Y803344D01*
X6591378Y803447D01*
X6591477Y803548D01*
X6591578Y803646D01*
X6591682Y803741D01*
X6591789Y803833D01*
X6591898Y803922D01*
X6592010Y804007D01*
X6592124Y804090D01*
X6592240Y804170D01*
X6592359Y804246D01*
X6592480Y804318D01*
X6592602Y804388D01*
X6592727Y804453D01*
X6592853Y804516D01*
X6592981Y804574D01*
X6593111Y804629D01*
X6593242Y804681D01*
X6593375Y804728D01*
X6593509Y804772D01*
X6593644Y804813D01*
X6593780Y804849D01*
X6593917Y804881D01*
X6594055Y804910D01*
X6594193Y804935D01*
X6594333Y804955D01*
X6594473Y804972D01*
X6594613Y804985D01*
X6594754Y804994D01*
X6594894Y804999D01*
X6595035Y805000D01*
X6595176Y804997D01*
X6595317Y804990D01*
X6595457Y804979D01*
X6595597Y804964D01*
X6595737Y804945D01*
X6595876Y804923D01*
X6596014Y804896D01*
X6596152Y804866D01*
X6596288Y804831D01*
X6596424Y804793D01*
X6596558Y804751D01*
X6596692Y804705D01*
X6596824Y804656D01*
X6596954Y804602D01*
X6597083Y804545D01*
X6597210Y804485D01*
X6597336Y804421D01*
X6597459Y804353D01*
X6597581Y804282D01*
X6597701Y804208D01*
X6597818Y804130D01*
X6597933Y804049D01*
X6598046Y803965D01*
X6598157Y803878D01*
X6598265Y803787D01*
X6598370Y803694D01*
X6598473Y803597D01*
X6598573Y803498D01*
X6598670Y803396D01*
X6598764Y803291D01*
X6598855Y803184D01*
X6598943Y803074D01*
X6599028Y802962D01*
X6599110Y802847D01*
X6599189Y802730D01*
X6599264Y802611D01*
X6599336Y802490D01*
X6599404Y802367D01*
X6599469Y802242D01*
X6599531Y802115D01*
X6599588Y801986D01*
X6599643Y801856D01*
X6599693Y801725D01*
X6599740Y801592D01*
X6599783Y801458D01*
X6599822Y801322D01*
X6599857Y801186D01*
X6599889Y801049D01*
X6599916Y800911D01*
X6599940Y800772D01*
X6599960Y800632D01*
X6599976Y800492D01*
X6599988Y800352D01*
X6599996Y800211D01*
X6600000Y800070D01*
X6600000Y799930D01*
X6599996Y799789D01*
X6599988Y799648D01*
X6599976Y799508D01*
X6599960Y799368D01*
X6599940Y799228D01*
X6599916Y799089D01*
X6599889Y798951D01*
X6599857Y798814D01*
X6599822Y798678D01*
X6599783Y798542D01*
X6599740Y798408D01*
X6599693Y798275D01*
X6599643Y798144D01*
X6599588Y798014D01*
X6599531Y797885D01*
X6599469Y797758D01*
X6599404Y797633D01*
X6599336Y797510D01*
X6599264Y797389D01*
X6599189Y797270D01*
X6599110Y797153D01*
X6599028Y797038D01*
X6598943Y796926D01*
X6598855Y796816D01*
X6598764Y796709D01*
X6598670Y796604D01*
X6598573Y796502D01*
X6598473Y796403D01*
X6598370Y796306D01*
X6598265Y796213D01*
X6598157Y796122D01*
X6598046Y796035D01*
X6597933Y795951D01*
X6597818Y795870D01*
X6597701Y795792D01*
X6597581Y795718D01*
X6597459Y795647D01*
X6597336Y795579D01*
X6597210Y795515D01*
X6597083Y795455D01*
X6596954Y795398D01*
X6596824Y795344D01*
X6596692Y795295D01*
X6596558Y795249D01*
X6596424Y795207D01*
X6596288Y795169D01*
X6596152Y795134D01*
X6596014Y795104D01*
X6595876Y795077D01*
X6595737Y795055D01*
X6595597Y795036D01*
X6595457Y795021D01*
X6595317Y795010D01*
X6595176Y795003D01*
X6595035Y795000D01*
X6594894Y795001D01*
X6594754Y795006D01*
X6594613Y795015D01*
X6594473Y795028D01*
X6594333Y795045D01*
X6594193Y795065D01*
X6594055Y795090D01*
X6593917Y795119D01*
X6593780Y795151D01*
X6593644Y795187D01*
X6593509Y795228D01*
X6593375Y795272D01*
X6593242Y795319D01*
X6593111Y795371D01*
X6592981Y795426D01*
X6592853Y795484D01*
X6592727Y795547D01*
X6592602Y795612D01*
X6592480Y795682D01*
X6592359Y795754D01*
X6592240Y795830D01*
X6592124Y795910D01*
X6592010Y795993D01*
X6591898Y796078D01*
X6591789Y796167D01*
X6591682Y796259D01*
X6591578Y796354D01*
X6591477Y796452D01*
X6591378Y796553D01*
X6591283Y796656D01*
X6591190Y796762D01*
X6591100Y796871D01*
X6591014Y796982D01*
X6590930Y797095D01*
X6590850Y797211D01*
X6590773Y797329D01*
X6590700Y797449D01*
X6590629Y797572D01*
X6590563Y797696D01*
X6590500Y797822D01*
X6590440Y797949D01*
X6590384Y798078D01*
X6590332Y798209D01*
X6590283Y798341D01*
X6590238Y798475D01*
X6590197Y798610D01*
X6590160Y798746D01*
X6590126Y798882D01*
X6590097Y799020D01*
X6590071Y799159D01*
X6590050Y799298D01*
X6590032Y799438D01*
X6590018Y799578D01*
X6590008Y799718D01*
X6590002Y799859D01*
X6590000Y800000D01*
D12*
X6552000Y465539D02*
X6552000Y427173D01*
X6559673Y419500D01*
X6575020Y419500D01*
X6582693Y427173D01*
X6582693Y465539D01*
X6613386Y457866D02*
X6628732Y465539D01*
X6613386Y457866D02*
X6598039Y442520D01*
X6598039Y427173D01*
X6605712Y419500D01*
X6621059Y419500D01*
X6628732Y427173D01*
X6628732Y434846D01*
X6621059Y442520D01*
X6598039Y442520D01*
X6839461Y313882D02*
X6885500Y313882D01*
X6839461Y313882D02*
X6839461Y336902D01*
X6847134Y344575D01*
X6862480Y344575D01*
X6870154Y336902D01*
X6870154Y313882D01*
X6870154Y329228D02*
X6885500Y344575D01*
X6885500Y382941D02*
X6839461Y382941D01*
X6862480Y359921D01*
X6862480Y390614D01*
X6847134Y405961D02*
X6839461Y413634D01*
X6839461Y428980D01*
X6847134Y436653D01*
X6854807Y436653D01*
X6862480Y428980D01*
X6862480Y421307D01*
X6862480Y428980D02*
X6870154Y436653D01*
X6877827Y436653D01*
X6885500Y428980D01*
X6885500Y413634D01*
X6877827Y405961D01*
X6926961Y313882D02*
X6973000Y313882D01*
X6926961Y313882D02*
X6926961Y336902D01*
X6934634Y344575D01*
X6949980Y344575D01*
X6957654Y336902D01*
X6957654Y313882D01*
X6957654Y329228D02*
X6973000Y344575D01*
X6973000Y382941D02*
X6926961Y382941D01*
X6949980Y359921D01*
X6949980Y390614D01*
X6926961Y428980D02*
X6973000Y428980D01*
X6949980Y405961D02*
X6926961Y428980D01*
X6949980Y436653D02*
X6949980Y405961D01*
X5427000Y3889500D02*
X5427000Y3935539D01*
X5450020Y3935539D01*
X5457693Y3927866D01*
X5457693Y3912520D01*
X5450020Y3904846D01*
X5427000Y3904846D01*
X5442346Y3904846D02*
X5457693Y3889500D01*
X5473039Y3897173D02*
X5480712Y3889500D01*
X5496059Y3889500D01*
X5503732Y3897173D01*
X5503732Y3927866D01*
X5496059Y3935539D01*
X5480712Y3935539D01*
X5473039Y3927866D01*
X5473039Y3920193D01*
X5480712Y3912520D01*
X5503732Y3912520D01*
X6926961Y838882D02*
X6973000Y838882D01*
X6926961Y838882D02*
X6926961Y861902D01*
X6934634Y869575D01*
X6949980Y869575D01*
X6957654Y861902D01*
X6957654Y838882D01*
X6957654Y854228D02*
X6973000Y869575D01*
X6934634Y884921D02*
X6926961Y892594D01*
X6926961Y907941D01*
X6934634Y915614D01*
X6942307Y915614D01*
X6949980Y907941D01*
X6949980Y900268D01*
X6949980Y907941D02*
X6957654Y915614D01*
X6965327Y915614D01*
X6973000Y907941D01*
X6973000Y892594D01*
X6965327Y884921D01*
X6965327Y930961D02*
X6934634Y930961D01*
X6926961Y938634D01*
X6926961Y953980D01*
X6934634Y961653D01*
X6965327Y961653D01*
X6973000Y953980D01*
X6973000Y938634D01*
X6965327Y930961D01*
X6934634Y961653D01*
X6885500Y838882D02*
X6839461Y838882D01*
X6839461Y861902D01*
X6847134Y869575D01*
X6862480Y869575D01*
X6870154Y861902D01*
X6870154Y838882D01*
X6870154Y854228D02*
X6885500Y869575D01*
X6885500Y884921D02*
X6885500Y915614D01*
X6885500Y884921D02*
X6854807Y915614D01*
X6847134Y915614D01*
X6839461Y907941D01*
X6839461Y892594D01*
X6847134Y884921D01*
X6877827Y930961D02*
X6885500Y938634D01*
X6885500Y953980D01*
X6877827Y961653D01*
X6847134Y961653D01*
X6839461Y953980D01*
X6839461Y938634D01*
X6847134Y930961D01*
X6854807Y930961D01*
X6862480Y938634D01*
X6862480Y961653D01*
D18*
X7375197Y819488D02*
X7375197Y480512D01*
X7375197Y819488D02*
X7394882Y819488D01*
X7524803Y819488D01*
X7394882Y819488D02*
X7394882Y480512D01*
X7524803Y480512D01*
X7394882Y480512D02*
X7375197Y480512D01*
X7524803Y480512D02*
X7524803Y819488D01*
D15*
X7415000Y800000D02*
X7415002Y800141D01*
X7415008Y800282D01*
X7415018Y800422D01*
X7415032Y800562D01*
X7415050Y800702D01*
X7415071Y800841D01*
X7415097Y800980D01*
X7415126Y801118D01*
X7415160Y801254D01*
X7415197Y801390D01*
X7415238Y801525D01*
X7415283Y801659D01*
X7415332Y801791D01*
X7415384Y801922D01*
X7415440Y802051D01*
X7415500Y802178D01*
X7415563Y802304D01*
X7415629Y802428D01*
X7415700Y802551D01*
X7415773Y802671D01*
X7415850Y802789D01*
X7415930Y802905D01*
X7416014Y803018D01*
X7416100Y803129D01*
X7416190Y803238D01*
X7416283Y803344D01*
X7416378Y803447D01*
X7416477Y803548D01*
X7416578Y803646D01*
X7416682Y803741D01*
X7416789Y803833D01*
X7416898Y803922D01*
X7417010Y804007D01*
X7417124Y804090D01*
X7417240Y804170D01*
X7417359Y804246D01*
X7417480Y804318D01*
X7417602Y804388D01*
X7417727Y804453D01*
X7417853Y804516D01*
X7417981Y804574D01*
X7418111Y804629D01*
X7418242Y804681D01*
X7418375Y804728D01*
X7418509Y804772D01*
X7418644Y804813D01*
X7418780Y804849D01*
X7418917Y804881D01*
X7419055Y804910D01*
X7419193Y804935D01*
X7419333Y804955D01*
X7419473Y804972D01*
X7419613Y804985D01*
X7419754Y804994D01*
X7419894Y804999D01*
X7420035Y805000D01*
X7420176Y804997D01*
X7420317Y804990D01*
X7420457Y804979D01*
X7420597Y804964D01*
X7420737Y804945D01*
X7420876Y804923D01*
X7421014Y804896D01*
X7421152Y804866D01*
X7421288Y804831D01*
X7421424Y804793D01*
X7421558Y804751D01*
X7421692Y804705D01*
X7421824Y804656D01*
X7421954Y804602D01*
X7422083Y804545D01*
X7422210Y804485D01*
X7422336Y804421D01*
X7422459Y804353D01*
X7422581Y804282D01*
X7422701Y804208D01*
X7422818Y804130D01*
X7422933Y804049D01*
X7423046Y803965D01*
X7423157Y803878D01*
X7423265Y803787D01*
X7423370Y803694D01*
X7423473Y803597D01*
X7423573Y803498D01*
X7423670Y803396D01*
X7423764Y803291D01*
X7423855Y803184D01*
X7423943Y803074D01*
X7424028Y802962D01*
X7424110Y802847D01*
X7424189Y802730D01*
X7424264Y802611D01*
X7424336Y802490D01*
X7424404Y802367D01*
X7424469Y802242D01*
X7424531Y802115D01*
X7424588Y801986D01*
X7424643Y801856D01*
X7424693Y801725D01*
X7424740Y801592D01*
X7424783Y801458D01*
X7424822Y801322D01*
X7424857Y801186D01*
X7424889Y801049D01*
X7424916Y800911D01*
X7424940Y800772D01*
X7424960Y800632D01*
X7424976Y800492D01*
X7424988Y800352D01*
X7424996Y800211D01*
X7425000Y800070D01*
X7425000Y799930D01*
X7424996Y799789D01*
X7424988Y799648D01*
X7424976Y799508D01*
X7424960Y799368D01*
X7424940Y799228D01*
X7424916Y799089D01*
X7424889Y798951D01*
X7424857Y798814D01*
X7424822Y798678D01*
X7424783Y798542D01*
X7424740Y798408D01*
X7424693Y798275D01*
X7424643Y798144D01*
X7424588Y798014D01*
X7424531Y797885D01*
X7424469Y797758D01*
X7424404Y797633D01*
X7424336Y797510D01*
X7424264Y797389D01*
X7424189Y797270D01*
X7424110Y797153D01*
X7424028Y797038D01*
X7423943Y796926D01*
X7423855Y796816D01*
X7423764Y796709D01*
X7423670Y796604D01*
X7423573Y796502D01*
X7423473Y796403D01*
X7423370Y796306D01*
X7423265Y796213D01*
X7423157Y796122D01*
X7423046Y796035D01*
X7422933Y795951D01*
X7422818Y795870D01*
X7422701Y795792D01*
X7422581Y795718D01*
X7422459Y795647D01*
X7422336Y795579D01*
X7422210Y795515D01*
X7422083Y795455D01*
X7421954Y795398D01*
X7421824Y795344D01*
X7421692Y795295D01*
X7421558Y795249D01*
X7421424Y795207D01*
X7421288Y795169D01*
X7421152Y795134D01*
X7421014Y795104D01*
X7420876Y795077D01*
X7420737Y795055D01*
X7420597Y795036D01*
X7420457Y795021D01*
X7420317Y795010D01*
X7420176Y795003D01*
X7420035Y795000D01*
X7419894Y795001D01*
X7419754Y795006D01*
X7419613Y795015D01*
X7419473Y795028D01*
X7419333Y795045D01*
X7419193Y795065D01*
X7419055Y795090D01*
X7418917Y795119D01*
X7418780Y795151D01*
X7418644Y795187D01*
X7418509Y795228D01*
X7418375Y795272D01*
X7418242Y795319D01*
X7418111Y795371D01*
X7417981Y795426D01*
X7417853Y795484D01*
X7417727Y795547D01*
X7417602Y795612D01*
X7417480Y795682D01*
X7417359Y795754D01*
X7417240Y795830D01*
X7417124Y795910D01*
X7417010Y795993D01*
X7416898Y796078D01*
X7416789Y796167D01*
X7416682Y796259D01*
X7416578Y796354D01*
X7416477Y796452D01*
X7416378Y796553D01*
X7416283Y796656D01*
X7416190Y796762D01*
X7416100Y796871D01*
X7416014Y796982D01*
X7415930Y797095D01*
X7415850Y797211D01*
X7415773Y797329D01*
X7415700Y797449D01*
X7415629Y797572D01*
X7415563Y797696D01*
X7415500Y797822D01*
X7415440Y797949D01*
X7415384Y798078D01*
X7415332Y798209D01*
X7415283Y798341D01*
X7415238Y798475D01*
X7415197Y798610D01*
X7415160Y798746D01*
X7415126Y798882D01*
X7415097Y799020D01*
X7415071Y799159D01*
X7415050Y799298D01*
X7415032Y799438D01*
X7415018Y799578D01*
X7415008Y799718D01*
X7415002Y799859D01*
X7415000Y800000D01*
D12*
X7377000Y465539D02*
X7377000Y427173D01*
X7384673Y419500D01*
X7400020Y419500D01*
X7407693Y427173D01*
X7407693Y465539D01*
X7423039Y465539D02*
X7453732Y465539D01*
X7453732Y457866D01*
X7423039Y427173D01*
X7423039Y419500D01*
X7514500Y414500D02*
X7514500Y460539D01*
X7537520Y460539D01*
X7545193Y452866D01*
X7545193Y437520D01*
X7537520Y429846D01*
X7514500Y429846D01*
X7529846Y429846D02*
X7545193Y414500D01*
X7583559Y414500D02*
X7583559Y460539D01*
X7560539Y437520D01*
X7591232Y437520D01*
X7606578Y460539D02*
X7637271Y460539D01*
X7606578Y460539D02*
X7606578Y437520D01*
X7621925Y445193D01*
X7629598Y445193D01*
X7637271Y437520D01*
X7637271Y422173D01*
X7629598Y414500D01*
X7614252Y414500D01*
X7606578Y422173D01*
X7826961Y451382D02*
X7873000Y451382D01*
X7826961Y451382D02*
X7826961Y474402D01*
X7834634Y482075D01*
X7849980Y482075D01*
X7857654Y474402D01*
X7857654Y451382D01*
X7857654Y466728D02*
X7873000Y482075D01*
X7873000Y520441D02*
X7826961Y520441D01*
X7849980Y497421D01*
X7849980Y528114D01*
X7834634Y558807D02*
X7826961Y574153D01*
X7834634Y558807D02*
X7849980Y543461D01*
X7865327Y543461D01*
X7873000Y551134D01*
X7873000Y566480D01*
X7865327Y574153D01*
X7857654Y574153D01*
X7849980Y566480D01*
X7849980Y543461D01*
X6627000Y3889500D02*
X6627000Y3935539D01*
X6650020Y3935539D01*
X6657693Y3927866D01*
X6657693Y3912520D01*
X6650020Y3904846D01*
X6627000Y3904846D01*
X6642346Y3904846D02*
X6657693Y3889500D01*
X6673039Y3920193D02*
X6688386Y3935539D01*
X6688386Y3889500D01*
X6703732Y3889500D02*
X6673039Y3889500D01*
X6719078Y3920193D02*
X6734425Y3935539D01*
X6734425Y3889500D01*
X6749771Y3889500D02*
X6719078Y3889500D01*
X7751961Y838882D02*
X7798000Y838882D01*
X7751961Y838882D02*
X7751961Y861902D01*
X7759634Y869575D01*
X7774980Y869575D01*
X7782654Y861902D01*
X7782654Y838882D01*
X7782654Y854228D02*
X7798000Y869575D01*
X7759634Y884921D02*
X7751961Y892594D01*
X7751961Y907941D01*
X7759634Y915614D01*
X7767307Y915614D01*
X7774980Y907941D01*
X7774980Y900268D01*
X7774980Y907941D02*
X7782654Y915614D01*
X7790327Y915614D01*
X7798000Y907941D01*
X7798000Y892594D01*
X7790327Y884921D01*
X7798000Y930961D02*
X7798000Y961653D01*
X7798000Y930961D02*
X7767307Y961653D01*
X7759634Y961653D01*
X7751961Y953980D01*
X7751961Y938634D01*
X7759634Y930961D01*
X7710500Y838882D02*
X7664461Y838882D01*
X7664461Y861902D01*
X7672134Y869575D01*
X7687480Y869575D01*
X7695154Y861902D01*
X7695154Y838882D01*
X7695154Y854228D02*
X7710500Y869575D01*
X7672134Y884921D02*
X7664461Y892594D01*
X7664461Y907941D01*
X7672134Y915614D01*
X7679807Y915614D01*
X7687480Y907941D01*
X7687480Y900268D01*
X7687480Y907941D02*
X7695154Y915614D01*
X7702827Y915614D01*
X7710500Y907941D01*
X7710500Y892594D01*
X7702827Y884921D01*
X7679807Y930961D02*
X7664461Y946307D01*
X7710500Y946307D01*
X7710500Y930961D02*
X7710500Y961653D01*
D18*
X8200197Y819488D02*
X8200197Y480512D01*
X8200197Y819488D02*
X8219882Y819488D01*
X8349803Y819488D01*
X8219882Y819488D02*
X8219882Y480512D01*
X8349803Y480512D01*
X8219882Y480512D02*
X8200197Y480512D01*
X8349803Y480512D02*
X8349803Y819488D01*
D15*
X8240000Y800000D02*
X8240002Y800141D01*
X8240008Y800282D01*
X8240018Y800422D01*
X8240032Y800562D01*
X8240050Y800702D01*
X8240071Y800841D01*
X8240097Y800980D01*
X8240126Y801118D01*
X8240160Y801254D01*
X8240197Y801390D01*
X8240238Y801525D01*
X8240283Y801659D01*
X8240332Y801791D01*
X8240384Y801922D01*
X8240440Y802051D01*
X8240500Y802178D01*
X8240563Y802304D01*
X8240629Y802428D01*
X8240700Y802551D01*
X8240773Y802671D01*
X8240850Y802789D01*
X8240930Y802905D01*
X8241014Y803018D01*
X8241100Y803129D01*
X8241190Y803238D01*
X8241283Y803344D01*
X8241378Y803447D01*
X8241477Y803548D01*
X8241578Y803646D01*
X8241682Y803741D01*
X8241789Y803833D01*
X8241898Y803922D01*
X8242010Y804007D01*
X8242124Y804090D01*
X8242240Y804170D01*
X8242359Y804246D01*
X8242480Y804318D01*
X8242602Y804388D01*
X8242727Y804453D01*
X8242853Y804516D01*
X8242981Y804574D01*
X8243111Y804629D01*
X8243242Y804681D01*
X8243375Y804728D01*
X8243509Y804772D01*
X8243644Y804813D01*
X8243780Y804849D01*
X8243917Y804881D01*
X8244055Y804910D01*
X8244193Y804935D01*
X8244333Y804955D01*
X8244473Y804972D01*
X8244613Y804985D01*
X8244754Y804994D01*
X8244894Y804999D01*
X8245035Y805000D01*
X8245176Y804997D01*
X8245317Y804990D01*
X8245457Y804979D01*
X8245597Y804964D01*
X8245737Y804945D01*
X8245876Y804923D01*
X8246014Y804896D01*
X8246152Y804866D01*
X8246288Y804831D01*
X8246424Y804793D01*
X8246558Y804751D01*
X8246692Y804705D01*
X8246824Y804656D01*
X8246954Y804602D01*
X8247083Y804545D01*
X8247210Y804485D01*
X8247336Y804421D01*
X8247459Y804353D01*
X8247581Y804282D01*
X8247701Y804208D01*
X8247818Y804130D01*
X8247933Y804049D01*
X8248046Y803965D01*
X8248157Y803878D01*
X8248265Y803787D01*
X8248370Y803694D01*
X8248473Y803597D01*
X8248573Y803498D01*
X8248670Y803396D01*
X8248764Y803291D01*
X8248855Y803184D01*
X8248943Y803074D01*
X8249028Y802962D01*
X8249110Y802847D01*
X8249189Y802730D01*
X8249264Y802611D01*
X8249336Y802490D01*
X8249404Y802367D01*
X8249469Y802242D01*
X8249531Y802115D01*
X8249588Y801986D01*
X8249643Y801856D01*
X8249693Y801725D01*
X8249740Y801592D01*
X8249783Y801458D01*
X8249822Y801322D01*
X8249857Y801186D01*
X8249889Y801049D01*
X8249916Y800911D01*
X8249940Y800772D01*
X8249960Y800632D01*
X8249976Y800492D01*
X8249988Y800352D01*
X8249996Y800211D01*
X8250000Y800070D01*
X8250000Y799930D01*
X8249996Y799789D01*
X8249988Y799648D01*
X8249976Y799508D01*
X8249960Y799368D01*
X8249940Y799228D01*
X8249916Y799089D01*
X8249889Y798951D01*
X8249857Y798814D01*
X8249822Y798678D01*
X8249783Y798542D01*
X8249740Y798408D01*
X8249693Y798275D01*
X8249643Y798144D01*
X8249588Y798014D01*
X8249531Y797885D01*
X8249469Y797758D01*
X8249404Y797633D01*
X8249336Y797510D01*
X8249264Y797389D01*
X8249189Y797270D01*
X8249110Y797153D01*
X8249028Y797038D01*
X8248943Y796926D01*
X8248855Y796816D01*
X8248764Y796709D01*
X8248670Y796604D01*
X8248573Y796502D01*
X8248473Y796403D01*
X8248370Y796306D01*
X8248265Y796213D01*
X8248157Y796122D01*
X8248046Y796035D01*
X8247933Y795951D01*
X8247818Y795870D01*
X8247701Y795792D01*
X8247581Y795718D01*
X8247459Y795647D01*
X8247336Y795579D01*
X8247210Y795515D01*
X8247083Y795455D01*
X8246954Y795398D01*
X8246824Y795344D01*
X8246692Y795295D01*
X8246558Y795249D01*
X8246424Y795207D01*
X8246288Y795169D01*
X8246152Y795134D01*
X8246014Y795104D01*
X8245876Y795077D01*
X8245737Y795055D01*
X8245597Y795036D01*
X8245457Y795021D01*
X8245317Y795010D01*
X8245176Y795003D01*
X8245035Y795000D01*
X8244894Y795001D01*
X8244754Y795006D01*
X8244613Y795015D01*
X8244473Y795028D01*
X8244333Y795045D01*
X8244193Y795065D01*
X8244055Y795090D01*
X8243917Y795119D01*
X8243780Y795151D01*
X8243644Y795187D01*
X8243509Y795228D01*
X8243375Y795272D01*
X8243242Y795319D01*
X8243111Y795371D01*
X8242981Y795426D01*
X8242853Y795484D01*
X8242727Y795547D01*
X8242602Y795612D01*
X8242480Y795682D01*
X8242359Y795754D01*
X8242240Y795830D01*
X8242124Y795910D01*
X8242010Y795993D01*
X8241898Y796078D01*
X8241789Y796167D01*
X8241682Y796259D01*
X8241578Y796354D01*
X8241477Y796452D01*
X8241378Y796553D01*
X8241283Y796656D01*
X8241190Y796762D01*
X8241100Y796871D01*
X8241014Y796982D01*
X8240930Y797095D01*
X8240850Y797211D01*
X8240773Y797329D01*
X8240700Y797449D01*
X8240629Y797572D01*
X8240563Y797696D01*
X8240500Y797822D01*
X8240440Y797949D01*
X8240384Y798078D01*
X8240332Y798209D01*
X8240283Y798341D01*
X8240238Y798475D01*
X8240197Y798610D01*
X8240160Y798746D01*
X8240126Y798882D01*
X8240097Y799020D01*
X8240071Y799159D01*
X8240050Y799298D01*
X8240032Y799438D01*
X8240018Y799578D01*
X8240008Y799718D01*
X8240002Y799859D01*
X8240000Y800000D01*
D12*
X8202000Y465539D02*
X8202000Y427173D01*
X8209673Y419500D01*
X8225020Y419500D01*
X8232693Y427173D01*
X8232693Y465539D01*
X8248039Y457866D02*
X8255712Y465539D01*
X8271059Y465539D01*
X8278732Y457866D01*
X8278732Y450193D01*
X8271059Y442520D01*
X8278732Y434846D01*
X8278732Y427173D01*
X8271059Y419500D01*
X8255712Y419500D01*
X8248039Y427173D01*
X8248039Y434846D01*
X8255712Y442520D01*
X8248039Y450193D01*
X8248039Y457866D01*
X8255712Y442520D02*
X8271059Y442520D01*
X8489461Y301382D02*
X8535500Y301382D01*
X8489461Y301382D02*
X8489461Y324402D01*
X8497134Y332075D01*
X8512480Y332075D01*
X8520154Y324402D01*
X8520154Y301382D01*
X8520154Y316728D02*
X8535500Y332075D01*
X8535500Y370441D02*
X8489461Y370441D01*
X8512480Y347421D01*
X8512480Y378114D01*
X8489461Y393461D02*
X8489461Y424153D01*
X8497134Y424153D01*
X8527827Y393461D01*
X8535500Y393461D01*
X8576961Y301382D02*
X8623000Y301382D01*
X8576961Y301382D02*
X8576961Y324402D01*
X8584634Y332075D01*
X8599980Y332075D01*
X8607654Y324402D01*
X8607654Y301382D01*
X8607654Y316728D02*
X8623000Y332075D01*
X8623000Y370441D02*
X8576961Y370441D01*
X8599980Y347421D01*
X8599980Y378114D01*
X8584634Y393461D02*
X8576961Y401134D01*
X8576961Y416480D01*
X8584634Y424153D01*
X8592307Y424153D01*
X8599980Y416480D01*
X8607654Y424153D01*
X8615327Y424153D01*
X8623000Y416480D01*
X8623000Y401134D01*
X8615327Y393461D01*
X8607654Y393461D01*
X8599980Y401134D01*
X8592307Y393461D01*
X8584634Y393461D01*
X8599980Y401134D02*
X8599980Y416480D01*
X7827000Y3889500D02*
X7827000Y3935539D01*
X7850020Y3935539D01*
X7857693Y3927866D01*
X7857693Y3912520D01*
X7850020Y3904846D01*
X7827000Y3904846D01*
X7842346Y3904846D02*
X7857693Y3889500D01*
X7873039Y3920193D02*
X7888386Y3935539D01*
X7888386Y3889500D01*
X7903732Y3889500D02*
X7873039Y3889500D01*
X7919078Y3927866D02*
X7926752Y3935539D01*
X7942098Y3935539D01*
X7949771Y3927866D01*
X7949771Y3920193D01*
X7942098Y3912520D01*
X7934425Y3912520D01*
X7942098Y3912520D02*
X7949771Y3904846D01*
X7949771Y3897173D01*
X7942098Y3889500D01*
X7926752Y3889500D01*
X7919078Y3897173D01*
X8576961Y838882D02*
X8623000Y838882D01*
X8576961Y838882D02*
X8576961Y861902D01*
X8584634Y869575D01*
X8599980Y869575D01*
X8607654Y861902D01*
X8607654Y838882D01*
X8607654Y854228D02*
X8623000Y869575D01*
X8584634Y884921D02*
X8576961Y892594D01*
X8576961Y907941D01*
X8584634Y915614D01*
X8592307Y915614D01*
X8599980Y907941D01*
X8599980Y900268D01*
X8599980Y907941D02*
X8607654Y915614D01*
X8615327Y915614D01*
X8623000Y907941D01*
X8623000Y892594D01*
X8615327Y884921D01*
X8623000Y953980D02*
X8576961Y953980D01*
X8599980Y930961D01*
X8599980Y961653D01*
X8535500Y838882D02*
X8489461Y838882D01*
X8489461Y861902D01*
X8497134Y869575D01*
X8512480Y869575D01*
X8520154Y861902D01*
X8520154Y838882D01*
X8520154Y854228D02*
X8535500Y869575D01*
X8497134Y884921D02*
X8489461Y892594D01*
X8489461Y907941D01*
X8497134Y915614D01*
X8504807Y915614D01*
X8512480Y907941D01*
X8512480Y900268D01*
X8512480Y907941D02*
X8520154Y915614D01*
X8527827Y915614D01*
X8535500Y907941D01*
X8535500Y892594D01*
X8527827Y884921D01*
X8497134Y930961D02*
X8489461Y938634D01*
X8489461Y953980D01*
X8497134Y961653D01*
X8504807Y961653D01*
X8512480Y953980D01*
X8512480Y946307D01*
X8512480Y953980D02*
X8520154Y961653D01*
X8527827Y961653D01*
X8535500Y953980D01*
X8535500Y938634D01*
X8527827Y930961D01*
D18*
X9025197Y819488D02*
X9025197Y480512D01*
X9025197Y819488D02*
X9044882Y819488D01*
X9174803Y819488D01*
X9044882Y819488D02*
X9044882Y480512D01*
X9174803Y480512D01*
X9044882Y480512D02*
X9025197Y480512D01*
X9174803Y480512D02*
X9174803Y819488D01*
D15*
X9065000Y800000D02*
X9065002Y800141D01*
X9065008Y800282D01*
X9065018Y800422D01*
X9065032Y800562D01*
X9065050Y800702D01*
X9065071Y800841D01*
X9065097Y800980D01*
X9065126Y801118D01*
X9065160Y801254D01*
X9065197Y801390D01*
X9065238Y801525D01*
X9065283Y801659D01*
X9065332Y801791D01*
X9065384Y801922D01*
X9065440Y802051D01*
X9065500Y802178D01*
X9065563Y802304D01*
X9065629Y802428D01*
X9065700Y802551D01*
X9065773Y802671D01*
X9065850Y802789D01*
X9065930Y802905D01*
X9066014Y803018D01*
X9066100Y803129D01*
X9066190Y803238D01*
X9066283Y803344D01*
X9066378Y803447D01*
X9066477Y803548D01*
X9066578Y803646D01*
X9066682Y803741D01*
X9066789Y803833D01*
X9066898Y803922D01*
X9067010Y804007D01*
X9067124Y804090D01*
X9067240Y804170D01*
X9067359Y804246D01*
X9067480Y804318D01*
X9067602Y804388D01*
X9067727Y804453D01*
X9067853Y804516D01*
X9067981Y804574D01*
X9068111Y804629D01*
X9068242Y804681D01*
X9068375Y804728D01*
X9068509Y804772D01*
X9068644Y804813D01*
X9068780Y804849D01*
X9068917Y804881D01*
X9069055Y804910D01*
X9069193Y804935D01*
X9069333Y804955D01*
X9069473Y804972D01*
X9069613Y804985D01*
X9069754Y804994D01*
X9069894Y804999D01*
X9070035Y805000D01*
X9070176Y804997D01*
X9070317Y804990D01*
X9070457Y804979D01*
X9070597Y804964D01*
X9070737Y804945D01*
X9070876Y804923D01*
X9071014Y804896D01*
X9071152Y804866D01*
X9071288Y804831D01*
X9071424Y804793D01*
X9071558Y804751D01*
X9071692Y804705D01*
X9071824Y804656D01*
X9071954Y804602D01*
X9072083Y804545D01*
X9072210Y804485D01*
X9072336Y804421D01*
X9072459Y804353D01*
X9072581Y804282D01*
X9072701Y804208D01*
X9072818Y804130D01*
X9072933Y804049D01*
X9073046Y803965D01*
X9073157Y803878D01*
X9073265Y803787D01*
X9073370Y803694D01*
X9073473Y803597D01*
X9073573Y803498D01*
X9073670Y803396D01*
X9073764Y803291D01*
X9073855Y803184D01*
X9073943Y803074D01*
X9074028Y802962D01*
X9074110Y802847D01*
X9074189Y802730D01*
X9074264Y802611D01*
X9074336Y802490D01*
X9074404Y802367D01*
X9074469Y802242D01*
X9074531Y802115D01*
X9074588Y801986D01*
X9074643Y801856D01*
X9074693Y801725D01*
X9074740Y801592D01*
X9074783Y801458D01*
X9074822Y801322D01*
X9074857Y801186D01*
X9074889Y801049D01*
X9074916Y800911D01*
X9074940Y800772D01*
X9074960Y800632D01*
X9074976Y800492D01*
X9074988Y800352D01*
X9074996Y800211D01*
X9075000Y800070D01*
X9075000Y799930D01*
X9074996Y799789D01*
X9074988Y799648D01*
X9074976Y799508D01*
X9074960Y799368D01*
X9074940Y799228D01*
X9074916Y799089D01*
X9074889Y798951D01*
X9074857Y798814D01*
X9074822Y798678D01*
X9074783Y798542D01*
X9074740Y798408D01*
X9074693Y798275D01*
X9074643Y798144D01*
X9074588Y798014D01*
X9074531Y797885D01*
X9074469Y797758D01*
X9074404Y797633D01*
X9074336Y797510D01*
X9074264Y797389D01*
X9074189Y797270D01*
X9074110Y797153D01*
X9074028Y797038D01*
X9073943Y796926D01*
X9073855Y796816D01*
X9073764Y796709D01*
X9073670Y796604D01*
X9073573Y796502D01*
X9073473Y796403D01*
X9073370Y796306D01*
X9073265Y796213D01*
X9073157Y796122D01*
X9073046Y796035D01*
X9072933Y795951D01*
X9072818Y795870D01*
X9072701Y795792D01*
X9072581Y795718D01*
X9072459Y795647D01*
X9072336Y795579D01*
X9072210Y795515D01*
X9072083Y795455D01*
X9071954Y795398D01*
X9071824Y795344D01*
X9071692Y795295D01*
X9071558Y795249D01*
X9071424Y795207D01*
X9071288Y795169D01*
X9071152Y795134D01*
X9071014Y795104D01*
X9070876Y795077D01*
X9070737Y795055D01*
X9070597Y795036D01*
X9070457Y795021D01*
X9070317Y795010D01*
X9070176Y795003D01*
X9070035Y795000D01*
X9069894Y795001D01*
X9069754Y795006D01*
X9069613Y795015D01*
X9069473Y795028D01*
X9069333Y795045D01*
X9069193Y795065D01*
X9069055Y795090D01*
X9068917Y795119D01*
X9068780Y795151D01*
X9068644Y795187D01*
X9068509Y795228D01*
X9068375Y795272D01*
X9068242Y795319D01*
X9068111Y795371D01*
X9067981Y795426D01*
X9067853Y795484D01*
X9067727Y795547D01*
X9067602Y795612D01*
X9067480Y795682D01*
X9067359Y795754D01*
X9067240Y795830D01*
X9067124Y795910D01*
X9067010Y795993D01*
X9066898Y796078D01*
X9066789Y796167D01*
X9066682Y796259D01*
X9066578Y796354D01*
X9066477Y796452D01*
X9066378Y796553D01*
X9066283Y796656D01*
X9066190Y796762D01*
X9066100Y796871D01*
X9066014Y796982D01*
X9065930Y797095D01*
X9065850Y797211D01*
X9065773Y797329D01*
X9065700Y797449D01*
X9065629Y797572D01*
X9065563Y797696D01*
X9065500Y797822D01*
X9065440Y797949D01*
X9065384Y798078D01*
X9065332Y798209D01*
X9065283Y798341D01*
X9065238Y798475D01*
X9065197Y798610D01*
X9065160Y798746D01*
X9065126Y798882D01*
X9065097Y799020D01*
X9065071Y799159D01*
X9065050Y799298D01*
X9065032Y799438D01*
X9065018Y799578D01*
X9065008Y799718D01*
X9065002Y799859D01*
X9065000Y800000D01*
D12*
X9027000Y465539D02*
X9027000Y427173D01*
X9034673Y419500D01*
X9050020Y419500D01*
X9057693Y427173D01*
X9057693Y465539D01*
X9073039Y427173D02*
X9080712Y419500D01*
X9096059Y419500D01*
X9103732Y427173D01*
X9103732Y457866D01*
X9096059Y465539D01*
X9080712Y465539D01*
X9073039Y457866D01*
X9073039Y450193D01*
X9080712Y442520D01*
X9103732Y442520D01*
X9314461Y26382D02*
X9360500Y26382D01*
X9314461Y26382D02*
X9314461Y49402D01*
X9322134Y57075D01*
X9337480Y57075D01*
X9345154Y49402D01*
X9345154Y26382D01*
X9345154Y41728D02*
X9360500Y57075D01*
X9314461Y72421D02*
X9314461Y103114D01*
X9314461Y72421D02*
X9337480Y72421D01*
X9329807Y87768D01*
X9329807Y95441D01*
X9337480Y103114D01*
X9352827Y103114D01*
X9360500Y95441D01*
X9360500Y80094D01*
X9352827Y72421D01*
X9352827Y118461D02*
X9322134Y118461D01*
X9314461Y126134D01*
X9314461Y141480D01*
X9322134Y149153D01*
X9352827Y149153D01*
X9360500Y141480D01*
X9360500Y126134D01*
X9352827Y118461D01*
X9322134Y149153D01*
X9401961Y26382D02*
X9448000Y26382D01*
X9401961Y26382D02*
X9401961Y49402D01*
X9409634Y57075D01*
X9424980Y57075D01*
X9432654Y49402D01*
X9432654Y26382D01*
X9432654Y41728D02*
X9448000Y57075D01*
X9401961Y72421D02*
X9401961Y103114D01*
X9401961Y72421D02*
X9424980Y72421D01*
X9417307Y87768D01*
X9417307Y95441D01*
X9424980Y103114D01*
X9440327Y103114D01*
X9448000Y95441D01*
X9448000Y80094D01*
X9440327Y72421D01*
X9417307Y118461D02*
X9401961Y133807D01*
X9448000Y133807D01*
X9448000Y118461D02*
X9448000Y149153D01*
X9027000Y3889500D02*
X9027000Y3935539D01*
X9050020Y3935539D01*
X9057693Y3927866D01*
X9057693Y3912520D01*
X9050020Y3904846D01*
X9027000Y3904846D01*
X9042346Y3904846D02*
X9057693Y3889500D01*
X9073039Y3920193D02*
X9088386Y3935539D01*
X9088386Y3889500D01*
X9103732Y3889500D02*
X9073039Y3889500D01*
X9119078Y3935539D02*
X9149771Y3935539D01*
X9119078Y3935539D02*
X9119078Y3912520D01*
X9134425Y3920193D01*
X9142098Y3920193D01*
X9149771Y3912520D01*
X9149771Y3897173D01*
X9142098Y3889500D01*
X9126752Y3889500D01*
X9119078Y3897173D01*
X9402000Y1073039D02*
X9402000Y1027000D01*
X9402000Y1073039D02*
X9425020Y1073039D01*
X9432693Y1065366D01*
X9432693Y1050020D01*
X9425020Y1042346D01*
X9402000Y1042346D01*
X9417346Y1042346D02*
X9432693Y1027000D01*
X9448039Y1027000D02*
X9478732Y1027000D01*
X9448039Y1027000D02*
X9478732Y1057693D01*
X9478732Y1065366D01*
X9471059Y1073039D01*
X9455712Y1073039D01*
X9448039Y1065366D01*
X9494078Y1065366D02*
X9494078Y1034673D01*
X9494078Y1065366D02*
X9501752Y1073039D01*
X9517098Y1073039D01*
X9524771Y1065366D01*
X9524771Y1034673D01*
X9517098Y1027000D01*
X9501752Y1027000D01*
X9494078Y1034673D01*
X9524771Y1065366D01*
X9252000Y1073039D02*
X9252000Y1027000D01*
X9252000Y1073039D02*
X9275020Y1073039D01*
X9282693Y1065366D01*
X9282693Y1050020D01*
X9275020Y1042346D01*
X9252000Y1042346D01*
X9267346Y1042346D02*
X9282693Y1027000D01*
X9298039Y1057693D02*
X9313386Y1073039D01*
X9313386Y1027000D01*
X9328732Y1027000D02*
X9298039Y1027000D01*
X9344078Y1034673D02*
X9351752Y1027000D01*
X9367098Y1027000D01*
X9374771Y1034673D01*
X9374771Y1065366D01*
X9367098Y1073039D01*
X9351752Y1073039D01*
X9344078Y1065366D01*
X9344078Y1057693D01*
X9351752Y1050020D01*
X9374771Y1050020D01*
X3319799Y990366D02*
X3312126Y998039D01*
X3296779Y998039D01*
X3289106Y990366D01*
X3289106Y959673D01*
X3296779Y952000D01*
X3312126Y952000D01*
X3319799Y959673D01*
X3335146Y952000D02*
X3365838Y952000D01*
X3335146Y952000D02*
X3365838Y982693D01*
X3365838Y990366D01*
X3358165Y998039D01*
X3342819Y998039D01*
X3335146Y990366D01*
X4137520Y998039D02*
X4145193Y990366D01*
X4137520Y998039D02*
X4122173Y998039D01*
X4114500Y990366D01*
X4114500Y959673D01*
X4122173Y952000D01*
X4137520Y952000D01*
X4145193Y959673D01*
X4160539Y990366D02*
X4168212Y998039D01*
X4183559Y998039D01*
X4191232Y990366D01*
X4191232Y982693D01*
X4183559Y975020D01*
X4175886Y975020D01*
X4183559Y975020D02*
X4191232Y967346D01*
X4191232Y959673D01*
X4183559Y952000D01*
X4168212Y952000D01*
X4160539Y959673D01*
X4962520Y998039D02*
X4970193Y990366D01*
X4962520Y998039D02*
X4947173Y998039D01*
X4939500Y990366D01*
X4939500Y959673D01*
X4947173Y952000D01*
X4962520Y952000D01*
X4970193Y959673D01*
X5008559Y952000D02*
X5008559Y998039D01*
X4985539Y975020D01*
X5016232Y975020D01*
X5787520Y998039D02*
X5795193Y990366D01*
X5787520Y998039D02*
X5772173Y998039D01*
X5764500Y990366D01*
X5764500Y959673D01*
X5772173Y952000D01*
X5787520Y952000D01*
X5795193Y959673D01*
X5810539Y998039D02*
X5841232Y998039D01*
X5810539Y998039D02*
X5810539Y975020D01*
X5825886Y982693D01*
X5833559Y982693D01*
X5841232Y975020D01*
X5841232Y959673D01*
X5833559Y952000D01*
X5818212Y952000D01*
X5810539Y959673D01*
X6612520Y998039D02*
X6620193Y990366D01*
X6612520Y998039D02*
X6597173Y998039D01*
X6589500Y990366D01*
X6589500Y959673D01*
X6597173Y952000D01*
X6612520Y952000D01*
X6620193Y959673D01*
X6650886Y990366D02*
X6666232Y998039D01*
X6650886Y990366D02*
X6635539Y975020D01*
X6635539Y959673D01*
X6643212Y952000D01*
X6658559Y952000D01*
X6666232Y959673D01*
X6666232Y967346D01*
X6658559Y975020D01*
X6635539Y975020D01*
X7437520Y998039D02*
X7445193Y990366D01*
X7437520Y998039D02*
X7422173Y998039D01*
X7414500Y990366D01*
X7414500Y959673D01*
X7422173Y952000D01*
X7437520Y952000D01*
X7445193Y959673D01*
X7460539Y998039D02*
X7491232Y998039D01*
X7491232Y990366D01*
X7460539Y959673D01*
X7460539Y952000D01*
X8262520Y998039D02*
X8270193Y990366D01*
X8262520Y998039D02*
X8247173Y998039D01*
X8239500Y990366D01*
X8239500Y959673D01*
X8247173Y952000D01*
X8262520Y952000D01*
X8270193Y959673D01*
X8285539Y990366D02*
X8293212Y998039D01*
X8308559Y998039D01*
X8316232Y990366D01*
X8316232Y982693D01*
X8308559Y975020D01*
X8316232Y967346D01*
X8316232Y959673D01*
X8308559Y952000D01*
X8293212Y952000D01*
X8285539Y959673D01*
X8285539Y967346D01*
X8293212Y975020D01*
X8285539Y982693D01*
X8285539Y990366D01*
X8293212Y975020D02*
X8308559Y975020D01*
X9087520Y998039D02*
X9095193Y990366D01*
X9087520Y998039D02*
X9072173Y998039D01*
X9064500Y990366D01*
X9064500Y959673D01*
X9072173Y952000D01*
X9087520Y952000D01*
X9095193Y959673D01*
X9110539Y959673D02*
X9118212Y952000D01*
X9133559Y952000D01*
X9141232Y959673D01*
X9141232Y990366D01*
X9133559Y998039D01*
X9118212Y998039D01*
X9110539Y990366D01*
X9110539Y982693D01*
X9118212Y975020D01*
X9141232Y975020D01*
X1227000Y3889500D02*
X1227000Y3935539D01*
X1250020Y3935539D01*
X1257693Y3927866D01*
X1257693Y3912520D01*
X1250020Y3904846D01*
X1227000Y3904846D01*
X1242346Y3904846D02*
X1257693Y3889500D01*
X1273039Y3889500D02*
X1303732Y3889500D01*
X1273039Y3889500D02*
X1303732Y3920193D01*
X1303732Y3927866D01*
X1296059Y3935539D01*
X1280712Y3935539D01*
X1273039Y3927866D01*
X2427000Y3935539D02*
X2427000Y3889500D01*
X2427000Y3935539D02*
X2450020Y3935539D01*
X2457693Y3927866D01*
X2457693Y3912520D01*
X2450020Y3904846D01*
X2427000Y3904846D01*
X2442346Y3904846D02*
X2457693Y3889500D01*
X2496059Y3889500D02*
X2496059Y3935539D01*
X2473039Y3912520D01*
X2503732Y3912520D01*
X4827000Y3889500D02*
X4827000Y3935539D01*
X4850020Y3935539D01*
X4857693Y3927866D01*
X4857693Y3912520D01*
X4850020Y3904846D01*
X4827000Y3904846D01*
X4842346Y3904846D02*
X4857693Y3889500D01*
X4873039Y3927866D02*
X4880712Y3935539D01*
X4896059Y3935539D01*
X4903732Y3927866D01*
X4903732Y3920193D01*
X4896059Y3912520D01*
X4903732Y3904846D01*
X4903732Y3897173D01*
X4896059Y3889500D01*
X4880712Y3889500D01*
X4873039Y3897173D01*
X4873039Y3904846D01*
X4880712Y3912520D01*
X4873039Y3920193D01*
X4873039Y3927866D01*
X4880712Y3912520D02*
X4896059Y3912520D01*
X3627000Y3889500D02*
X3627000Y3935539D01*
X3650020Y3935539D01*
X3657693Y3927866D01*
X3657693Y3912520D01*
X3650020Y3904846D01*
X3627000Y3904846D01*
X3642346Y3904846D02*
X3657693Y3889500D01*
X3688386Y3927866D02*
X3703732Y3935539D01*
X3688386Y3927866D02*
X3673039Y3912520D01*
X3673039Y3897173D01*
X3680712Y3889500D01*
X3696059Y3889500D01*
X3703732Y3897173D01*
X3703732Y3904846D01*
X3696059Y3912520D01*
X3673039Y3912520D01*
X6027000Y3889500D02*
X6027000Y3935539D01*
X6050020Y3935539D01*
X6057693Y3927866D01*
X6057693Y3912520D01*
X6050020Y3904846D01*
X6027000Y3904846D01*
X6042346Y3904846D02*
X6057693Y3889500D01*
X6073039Y3920193D02*
X6088386Y3935539D01*
X6088386Y3889500D01*
X6103732Y3889500D02*
X6073039Y3889500D01*
X6119078Y3897173D02*
X6119078Y3927866D01*
X6126752Y3935539D01*
X6142098Y3935539D01*
X6149771Y3927866D01*
X6149771Y3897173D01*
X6142098Y3889500D01*
X6126752Y3889500D01*
X6119078Y3897173D01*
X6149771Y3927866D01*
X7227000Y3935539D02*
X7227000Y3889500D01*
X7227000Y3935539D02*
X7250020Y3935539D01*
X7257693Y3927866D01*
X7257693Y3912520D01*
X7250020Y3904846D01*
X7227000Y3904846D01*
X7242346Y3904846D02*
X7257693Y3889500D01*
X7273039Y3920193D02*
X7288386Y3935539D01*
X7288386Y3889500D01*
X7303732Y3889500D02*
X7273039Y3889500D01*
X7319078Y3889500D02*
X7349771Y3889500D01*
X7319078Y3889500D02*
X7349771Y3920193D01*
X7349771Y3927866D01*
X7342098Y3935539D01*
X7326752Y3935539D01*
X7319078Y3927866D01*
X8427000Y3935539D02*
X8427000Y3889500D01*
X8427000Y3935539D02*
X8450020Y3935539D01*
X8457693Y3927866D01*
X8457693Y3912520D01*
X8450020Y3904846D01*
X8427000Y3904846D01*
X8442346Y3904846D02*
X8457693Y3889500D01*
X8473039Y3920193D02*
X8488386Y3935539D01*
X8488386Y3889500D01*
X8503732Y3889500D02*
X8473039Y3889500D01*
X8542098Y3889500D02*
X8542098Y3935539D01*
X8519078Y3912520D01*
X8549771Y3912520D01*
X9614500Y3548039D02*
X9614500Y3502000D01*
X9614500Y3548039D02*
X9637520Y3548039D01*
X9645193Y3540366D01*
X9645193Y3525020D01*
X9637520Y3517346D01*
X9614500Y3517346D01*
X9629846Y3517346D02*
X9645193Y3502000D01*
X9660539Y3532693D02*
X9675886Y3548039D01*
X9675886Y3502000D01*
X9691232Y3502000D02*
X9660539Y3502000D01*
X9721925Y3540366D02*
X9737271Y3548039D01*
X9721925Y3540366D02*
X9706578Y3525020D01*
X9706578Y3509673D01*
X9714252Y3502000D01*
X9729598Y3502000D01*
X9737271Y3509673D01*
X9737271Y3517346D01*
X9729598Y3525020D01*
X9706578Y3525020D01*
X1827000Y3889500D02*
X1827000Y3935539D01*
X1850020Y3935539D01*
X1857693Y3927866D01*
X1857693Y3912520D01*
X1850020Y3904846D01*
X1827000Y3904846D01*
X1842346Y3904846D02*
X1857693Y3889500D01*
X1873039Y3927866D02*
X1880712Y3935539D01*
X1896059Y3935539D01*
X1903732Y3927866D01*
X1903732Y3920193D01*
X1896059Y3912520D01*
X1888386Y3912520D01*
X1896059Y3912520D02*
X1903732Y3904846D01*
X1903732Y3897173D01*
X1896059Y3889500D01*
X1880712Y3889500D01*
X1873039Y3897173D01*
D18*
X1751280Y495276D02*
X2223720Y495276D01*
X1751280Y337795D02*
X1751280Y62205D01*
X1751280Y455906D02*
X1751280Y495276D01*
X1751280Y62205D02*
X2223720Y62205D01*
X2223720Y337795D01*
X2223720Y455906D02*
X2223720Y495276D01*
D20*
X2463587Y956689D03*
D21*
X2500394Y957087D02*
X2500394Y946846D01*
X2500394Y957087D02*
X2799606Y957087D01*
X2799606Y946846D01*
X2500394Y353154D02*
X2500394Y342913D01*
X2799606Y342913D01*
X2799606Y353154D01*
D12*
X2505961Y327071D02*
X2505961Y288705D01*
X2513634Y281031D01*
X2528980Y281031D01*
X2536654Y288705D01*
X2536654Y327071D01*
X2552000Y311724D02*
X2567346Y327071D01*
X2567346Y281031D01*
X2552000Y281031D02*
X2582693Y281031D01*
X2490614Y1127866D02*
X2482941Y1135539D01*
X2467594Y1135539D01*
X2459921Y1127866D01*
X2459921Y1097173D01*
X2467594Y1089500D01*
X2482941Y1089500D01*
X2490614Y1097173D01*
X2505961Y1120193D02*
X2521307Y1135539D01*
X2521307Y1089500D01*
X2505961Y1089500D02*
X2536653Y1089500D01*
D18*
X100000Y625000D02*
X100000Y525000D01*
X100000Y625000D02*
X50000Y625000D01*
X50000Y925000D01*
X1450000Y925000D01*
X1450000Y225000D01*
X50000Y225000D01*
X50000Y525000D01*
X100000Y525000D01*
M02*
