G04 EAGLE Gerber X2 export*
%TF.Part,Single*%
%TF.FileFunction,Soldermask,Bot*%
%TF.FilePolarity,Negative*%
%TF.GenerationSoftware,Autodesk,EAGLE,9.1.3*%
%TF.CreationDate,2018-09-30T16:15:49Z*%
G75*
%MOIN*%
%FSLAX36Y36*%
%LPD*%
%AMOC8*
5,1,8,0,0,1.08239X$1,22.5*%
G01*
%ADD10C,0.103425*%
%ADD11C,0.083740*%
%ADD12P,0.075725X8X292.500000*%
%ADD13C,0.091000*%
%ADD14C,0.052244*%
%ADD15C,0.075866*%
%ADD16P,0.146719X8X202.500000*%
%ADD17P,0.146719X8X292.500000*%
%ADD18P,0.146719X8X22.500000*%
%ADD19C,0.062000*%
%ADD20C,0.032780*%


D10*
X100000Y100000D03*
X9700000Y100000D03*
X100000Y4650000D03*
X9700000Y4650000D03*
X2500000Y2500000D03*
X7300000Y2500000D03*
X4900000Y100000D03*
X4900000Y4650000D03*
D11*
X9400000Y3484252D03*
X9400000Y1614173D03*
D12*
X9547638Y3877953D03*
X9449213Y3877953D03*
X9350787Y3877953D03*
X9252362Y3877953D03*
X9252362Y1122047D03*
X9449213Y1122047D03*
D11*
X8800000Y3484252D03*
X8800000Y1614173D03*
D12*
X8947638Y3877953D03*
X8849213Y3877953D03*
X8750787Y3877953D03*
X8652362Y3877953D03*
X8652362Y1122047D03*
X8849213Y1122047D03*
D11*
X8200000Y3484252D03*
X8200000Y1614173D03*
D12*
X8347638Y3877953D03*
X8249213Y3877953D03*
X8150787Y3877953D03*
X8052362Y3877953D03*
X8052362Y1122047D03*
X8249213Y1122047D03*
D11*
X7600000Y3484252D03*
X7600000Y1614173D03*
D12*
X7747638Y3877953D03*
X7649213Y3877953D03*
X7550787Y3877953D03*
X7452362Y3877953D03*
X7452362Y1122047D03*
X7649213Y1122047D03*
D11*
X7000000Y3484252D03*
X7000000Y1614173D03*
D12*
X7147638Y3877953D03*
X7049213Y3877953D03*
X6950787Y3877953D03*
X6852362Y3877953D03*
X6852362Y1122047D03*
X7049213Y1122047D03*
D11*
X6400000Y3484252D03*
X6400000Y1614173D03*
D12*
X6547638Y3877953D03*
X6449213Y3877953D03*
X6350787Y3877953D03*
X6252362Y3877953D03*
X6252362Y1122047D03*
X6449213Y1122047D03*
D11*
X5800000Y3484252D03*
X5800000Y1614173D03*
D12*
X5947638Y3877953D03*
X5849213Y3877953D03*
X5750787Y3877953D03*
X5652362Y3877953D03*
X5652362Y1122047D03*
X5849213Y1122047D03*
D11*
X5200000Y3484252D03*
X5200000Y1614173D03*
D12*
X5347638Y3877953D03*
X5249213Y3877953D03*
X5150787Y3877953D03*
X5052362Y3877953D03*
X5052362Y1122047D03*
X5249213Y1122047D03*
D11*
X4600000Y3484252D03*
X4600000Y1614173D03*
D12*
X4747638Y3877953D03*
X4649213Y3877953D03*
X4550787Y3877953D03*
X4452362Y3877953D03*
X4452362Y1122047D03*
X4649213Y1122047D03*
D11*
X4000000Y3484252D03*
X4000000Y1614173D03*
D12*
X4147638Y3877953D03*
X4049213Y3877953D03*
X3950787Y3877953D03*
X3852362Y3877953D03*
X3852362Y1122047D03*
X4049213Y1122047D03*
D11*
X3400000Y3484252D03*
X3400000Y1614173D03*
D12*
X3547638Y3877953D03*
X3449213Y3877953D03*
X3350787Y3877953D03*
X3252362Y3877953D03*
X3252362Y1122047D03*
X3449213Y1122047D03*
D11*
X2800000Y3484252D03*
X2800000Y1614173D03*
D12*
X2947638Y3877953D03*
X2849213Y3877953D03*
X2750787Y3877953D03*
X2652362Y3877953D03*
X2652362Y1122047D03*
X2849213Y1122047D03*
D11*
X2200000Y3484252D03*
X2200000Y1614173D03*
D12*
X2347638Y3877953D03*
X2249213Y3877953D03*
X2150787Y3877953D03*
X2052362Y3877953D03*
X2052362Y1122047D03*
X2249213Y1122047D03*
D11*
X1600000Y3484252D03*
X1600000Y1614173D03*
D12*
X1747638Y3877953D03*
X1649213Y3877953D03*
X1550787Y3877953D03*
X1452362Y3877953D03*
X1452362Y1122047D03*
X1649213Y1122047D03*
D11*
X1000000Y3484252D03*
X1000000Y1614173D03*
D12*
X1147638Y3877953D03*
X1049213Y3877953D03*
X950787Y3877953D03*
X852362Y3877953D03*
X852362Y1122047D03*
X1049213Y1122047D03*
D11*
X400000Y3484252D03*
X400000Y1614173D03*
D12*
X547638Y3877953D03*
X449213Y3877953D03*
X350787Y3877953D03*
X252362Y3877953D03*
X252362Y1122047D03*
X449213Y1122047D03*
D13*
X9645669Y590551D03*
X9448819Y492126D03*
X9448819Y393701D03*
X9448819Y688976D03*
X9448819Y787402D03*
D14*
X9645669Y393701D03*
X9744094Y393701D03*
X9744094Y787402D03*
X9645669Y787402D03*
X9448819Y590551D03*
X8978740Y185630D03*
X8978740Y264370D03*
X8900000Y185630D03*
X8900000Y264370D03*
X8821260Y185630D03*
X8821260Y264370D03*
D15*
X8718898Y225000D03*
X9081102Y225000D03*
D16*
X417323Y4564075D03*
D17*
X212598Y4131004D03*
D18*
X425197Y4044390D03*
D16*
X1000000Y4564075D03*
D17*
X795276Y4131004D03*
D18*
X1007874Y4044390D03*
D16*
X1600000Y4564075D03*
D17*
X1395276Y4131004D03*
D18*
X1607874Y4044390D03*
D16*
X2200000Y4564075D03*
D17*
X1995276Y4131004D03*
D18*
X2207874Y4044390D03*
D16*
X2800000Y4564075D03*
D17*
X2595276Y4131004D03*
D18*
X2807874Y4044390D03*
D16*
X3400000Y4564075D03*
D17*
X3195276Y4131004D03*
D18*
X3407874Y4044390D03*
D16*
X4000000Y4564075D03*
D17*
X3795276Y4131004D03*
D18*
X4007874Y4044390D03*
D16*
X4575000Y4564075D03*
D17*
X4370276Y4131004D03*
D18*
X4582874Y4044390D03*
D16*
X5225000Y4564075D03*
D17*
X5020276Y4131004D03*
D18*
X5232874Y4044390D03*
D16*
X5800000Y4564075D03*
D17*
X5595276Y4131004D03*
D18*
X5807874Y4044390D03*
D16*
X6400000Y4564075D03*
D17*
X6195276Y4131004D03*
D18*
X6407874Y4044390D03*
D16*
X7000000Y4564075D03*
D17*
X6795276Y4131004D03*
D18*
X7007874Y4044390D03*
D16*
X7600000Y4564075D03*
D17*
X7395276Y4131004D03*
D18*
X7607874Y4044390D03*
D16*
X8200000Y4564075D03*
D17*
X7995276Y4131004D03*
D18*
X8207874Y4044390D03*
D16*
X8800000Y4564075D03*
D17*
X8595276Y4131004D03*
D18*
X8807874Y4044390D03*
D16*
X9381890Y4564075D03*
D17*
X9177165Y4131004D03*
D18*
X9389764Y4044390D03*
D13*
X1987500Y200000D03*
X1889075Y396850D03*
X1790650Y396850D03*
X2085925Y396850D03*
X2184350Y396850D03*
D14*
X1790650Y200000D03*
X1790650Y101575D03*
X2184350Y101575D03*
X2184350Y200000D03*
X1987500Y396850D03*
D19*
X100000Y275000D03*
X200000Y275000D03*
X300000Y275000D03*
X400000Y275000D03*
X500000Y275000D03*
X600000Y275000D03*
X700000Y275000D03*
X800000Y275000D03*
X900000Y275000D03*
X1000000Y275000D03*
X1100000Y275000D03*
X1200000Y275000D03*
X1300000Y275000D03*
X1400000Y275000D03*
X1400000Y875000D03*
X1300000Y875000D03*
X1200000Y875000D03*
X1100000Y875000D03*
X1000000Y875000D03*
X900000Y875000D03*
X800000Y875000D03*
X700000Y875000D03*
X600000Y875000D03*
X500000Y875000D03*
X400000Y875000D03*
X300000Y875000D03*
X200000Y875000D03*
X100000Y875000D03*
D20*
X7450000Y1050000D03*
X1987500Y525000D03*
X3350000Y1050000D03*
X5100000Y900000D03*
X3162500Y462500D03*
X2550000Y525000D03*
X3375000Y462500D03*
X2550000Y575000D03*
X3987500Y462500D03*
X2550000Y625000D03*
X4200000Y462500D03*
X2550000Y675000D03*
X5637500Y462500D03*
X2550000Y825000D03*
X5812500Y500000D03*
X2550000Y875000D03*
X6462500Y462500D03*
X3012500Y650000D03*
X6637500Y500000D03*
X2962500Y650000D03*
X7287500Y462500D03*
X2900000Y637500D03*
X7462500Y500000D03*
X2900000Y675000D03*
X8112500Y462500D03*
X2900000Y725000D03*
X8287500Y500000D03*
X2900000Y775000D03*
X8937500Y462500D03*
X2900000Y825000D03*
X9112500Y500000D03*
X2900000Y875000D03*
X9050000Y1225000D03*
X8075000Y1225000D03*
X7275000Y1225000D03*
X6437500Y1225000D03*
X5612500Y1225000D03*
X4800000Y1225000D03*
X4037500Y1225000D03*
X3062500Y1225000D03*
X54890Y1000000D03*
X1925000Y725000D03*
X2550000Y725000D03*
X4775000Y462500D03*
X4975000Y500000D03*
X2550000Y775000D03*
X2362500Y925000D03*
M02*
