G04 EAGLE Gerber RS-274X export*
G75*
%MOMM*%
%FSLAX34Y34*%
%LPD*%
%AMOC8*
5,1,8,0,0,1.08239X$1,22.5*%
G01*
%ADD10C,2.627000*%
%ADD11C,2.127000*%
%ADD12P,1.923407X8X292.500000*%
%ADD13R,1.427000X1.627000*%
%ADD14C,2.311400*%
%ADD15C,1.327000*%
%ADD16C,1.927000*%
%ADD17R,1.627000X1.427000*%
%ADD18R,1.927000X1.727000*%
%ADD19P,3.726669X8X202.500000*%
%ADD20P,3.726669X8X292.500000*%
%ADD21P,3.726669X8X22.500000*%
%ADD22R,2.327000X0.727000*%
%ADD23R,2.183000X0.728900*%
%ADD24C,1.574800*%
%ADD25C,0.832600*%

G36*
X27192Y1132520D02*
X27192Y1132520D01*
X27235Y1132532D01*
X27301Y1132539D01*
X28984Y1132990D01*
X29025Y1133009D01*
X29088Y1133028D01*
X30668Y1133765D01*
X30705Y1133791D01*
X30764Y1133820D01*
X32192Y1134820D01*
X32223Y1134852D01*
X32276Y1134891D01*
X33509Y1136124D01*
X33534Y1136160D01*
X33580Y1136208D01*
X34580Y1137636D01*
X34598Y1137677D01*
X34635Y1137732D01*
X35372Y1139312D01*
X35383Y1139355D01*
X35410Y1139416D01*
X35861Y1141099D01*
X35863Y1141131D01*
X35870Y1141152D01*
X35870Y1141167D01*
X35880Y1141208D01*
X36032Y1142945D01*
X36028Y1142989D01*
X36032Y1143055D01*
X35880Y1144792D01*
X35868Y1144835D01*
X35861Y1144901D01*
X35410Y1146584D01*
X35391Y1146625D01*
X35372Y1146688D01*
X34635Y1148268D01*
X34609Y1148305D01*
X34580Y1148364D01*
X33580Y1149792D01*
X33548Y1149823D01*
X33509Y1149876D01*
X32276Y1151109D01*
X32240Y1151134D01*
X32192Y1151180D01*
X30764Y1152180D01*
X30723Y1152198D01*
X30668Y1152235D01*
X29088Y1152972D01*
X29045Y1152983D01*
X28984Y1153010D01*
X27301Y1153461D01*
X27256Y1153464D01*
X27192Y1153480D01*
X25455Y1153632D01*
X25411Y1153628D01*
X25345Y1153632D01*
X23608Y1153480D01*
X23565Y1153468D01*
X23499Y1153461D01*
X21816Y1153010D01*
X21775Y1152991D01*
X21712Y1152972D01*
X20132Y1152235D01*
X20095Y1152209D01*
X20036Y1152180D01*
X18608Y1151180D01*
X18577Y1151148D01*
X18524Y1151109D01*
X17291Y1149876D01*
X17266Y1149840D01*
X17220Y1149792D01*
X16220Y1148364D01*
X16202Y1148323D01*
X16165Y1148268D01*
X15428Y1146688D01*
X15417Y1146645D01*
X15390Y1146584D01*
X14939Y1144901D01*
X14936Y1144856D01*
X14920Y1144792D01*
X14768Y1143055D01*
X14772Y1143011D01*
X14768Y1142945D01*
X14920Y1141208D01*
X14932Y1141165D01*
X14936Y1141131D01*
X14936Y1141115D01*
X14938Y1141110D01*
X14939Y1141099D01*
X15390Y1139416D01*
X15409Y1139375D01*
X15428Y1139312D01*
X16165Y1137732D01*
X16191Y1137695D01*
X16220Y1137636D01*
X17220Y1136208D01*
X17252Y1136177D01*
X17291Y1136124D01*
X18524Y1134891D01*
X18560Y1134866D01*
X18608Y1134820D01*
X20036Y1133820D01*
X20077Y1133802D01*
X20132Y1133765D01*
X21712Y1133028D01*
X21755Y1133017D01*
X21816Y1132990D01*
X23499Y1132539D01*
X23544Y1132536D01*
X23608Y1132520D01*
X25345Y1132368D01*
X25389Y1132372D01*
X25455Y1132368D01*
X27192Y1132520D01*
G37*
G36*
X2465592Y53020D02*
X2465592Y53020D01*
X2465635Y53032D01*
X2465701Y53039D01*
X2467384Y53490D01*
X2467425Y53509D01*
X2467488Y53528D01*
X2469068Y54265D01*
X2469105Y54291D01*
X2469164Y54320D01*
X2470592Y55320D01*
X2470623Y55352D01*
X2470676Y55391D01*
X2471909Y56624D01*
X2471934Y56660D01*
X2471980Y56708D01*
X2472980Y58136D01*
X2472998Y58177D01*
X2473035Y58232D01*
X2473772Y59812D01*
X2473783Y59855D01*
X2473810Y59916D01*
X2474261Y61599D01*
X2474263Y61631D01*
X2474270Y61652D01*
X2474270Y61667D01*
X2474280Y61708D01*
X2474432Y63445D01*
X2474428Y63489D01*
X2474432Y63555D01*
X2474280Y65292D01*
X2474268Y65335D01*
X2474261Y65401D01*
X2473810Y67084D01*
X2473791Y67125D01*
X2473772Y67188D01*
X2473035Y68768D01*
X2473009Y68805D01*
X2472980Y68864D01*
X2471980Y70292D01*
X2471948Y70323D01*
X2471909Y70376D01*
X2470676Y71609D01*
X2470640Y71634D01*
X2470592Y71680D01*
X2469164Y72680D01*
X2469123Y72698D01*
X2469068Y72735D01*
X2467488Y73472D01*
X2467445Y73483D01*
X2467384Y73510D01*
X2465701Y73961D01*
X2465656Y73964D01*
X2465592Y73980D01*
X2463855Y74132D01*
X2463811Y74128D01*
X2463745Y74132D01*
X2462008Y73980D01*
X2461965Y73968D01*
X2461899Y73961D01*
X2460216Y73510D01*
X2460175Y73491D01*
X2460112Y73472D01*
X2458532Y72735D01*
X2458495Y72709D01*
X2458436Y72680D01*
X2457008Y71680D01*
X2456977Y71648D01*
X2456924Y71609D01*
X2455691Y70376D01*
X2455666Y70340D01*
X2455620Y70292D01*
X2454620Y68864D01*
X2454602Y68823D01*
X2454565Y68768D01*
X2453828Y67188D01*
X2453817Y67145D01*
X2453790Y67084D01*
X2453339Y65401D01*
X2453336Y65356D01*
X2453320Y65292D01*
X2453168Y63555D01*
X2453172Y63511D01*
X2453168Y63445D01*
X2453320Y61708D01*
X2453332Y61665D01*
X2453336Y61631D01*
X2453336Y61615D01*
X2453338Y61610D01*
X2453339Y61599D01*
X2453790Y59916D01*
X2453809Y59875D01*
X2453828Y59812D01*
X2454565Y58232D01*
X2454591Y58195D01*
X2454620Y58136D01*
X2455620Y56708D01*
X2455652Y56677D01*
X2455691Y56624D01*
X2456924Y55391D01*
X2456960Y55366D01*
X2457008Y55320D01*
X2458436Y54320D01*
X2458477Y54302D01*
X2458532Y54265D01*
X2460112Y53528D01*
X2460155Y53517D01*
X2460216Y53490D01*
X2461899Y53039D01*
X2461944Y53036D01*
X2462008Y53020D01*
X2463745Y52868D01*
X2463789Y52872D01*
X2463855Y52868D01*
X2465592Y53020D01*
G37*
D10*
X25400Y25400D03*
X2463800Y25400D03*
X25400Y1181100D03*
X2463800Y1181100D03*
X635000Y635000D03*
X1854200Y635000D03*
X1244600Y25400D03*
X1244600Y1181100D03*
D11*
X2387600Y885000D03*
X2387600Y410000D03*
D12*
X2425100Y985000D03*
X2400100Y985000D03*
X2375100Y985000D03*
X2350100Y985000D03*
X2350100Y285000D03*
X2400100Y285000D03*
D11*
X2235200Y885000D03*
X2235200Y410000D03*
D12*
X2272700Y985000D03*
X2247700Y985000D03*
X2222700Y985000D03*
X2197700Y985000D03*
X2197700Y285000D03*
X2247700Y285000D03*
D11*
X2082800Y885000D03*
X2082800Y410000D03*
D12*
X2120300Y985000D03*
X2095300Y985000D03*
X2070300Y985000D03*
X2045300Y985000D03*
X2045300Y285000D03*
X2095300Y285000D03*
D11*
X1930400Y885000D03*
X1930400Y410000D03*
D12*
X1967900Y985000D03*
X1942900Y985000D03*
X1917900Y985000D03*
X1892900Y985000D03*
X1892900Y285000D03*
X1942900Y285000D03*
D11*
X1778000Y885000D03*
X1778000Y410000D03*
D12*
X1815500Y985000D03*
X1790500Y985000D03*
X1765500Y985000D03*
X1740500Y985000D03*
X1740500Y285000D03*
X1790500Y285000D03*
D11*
X1625600Y885000D03*
X1625600Y410000D03*
D12*
X1663100Y985000D03*
X1638100Y985000D03*
X1613100Y985000D03*
X1588100Y985000D03*
X1588100Y285000D03*
X1638100Y285000D03*
D11*
X1473200Y885000D03*
X1473200Y410000D03*
D12*
X1510700Y985000D03*
X1485700Y985000D03*
X1460700Y985000D03*
X1435700Y985000D03*
X1435700Y285000D03*
X1485700Y285000D03*
D11*
X1320800Y885000D03*
X1320800Y410000D03*
D12*
X1358300Y985000D03*
X1333300Y985000D03*
X1308300Y985000D03*
X1283300Y985000D03*
X1283300Y285000D03*
X1333300Y285000D03*
D11*
X1168400Y885000D03*
X1168400Y410000D03*
D12*
X1205900Y985000D03*
X1180900Y985000D03*
X1155900Y985000D03*
X1130900Y985000D03*
X1130900Y285000D03*
X1180900Y285000D03*
D11*
X1016000Y885000D03*
X1016000Y410000D03*
D12*
X1053500Y985000D03*
X1028500Y985000D03*
X1003500Y985000D03*
X978500Y985000D03*
X978500Y285000D03*
X1028500Y285000D03*
D11*
X863600Y885000D03*
X863600Y410000D03*
D12*
X901100Y985000D03*
X876100Y985000D03*
X851100Y985000D03*
X826100Y985000D03*
X826100Y285000D03*
X876100Y285000D03*
D11*
X711200Y885000D03*
X711200Y410000D03*
D12*
X748700Y985000D03*
X723700Y985000D03*
X698700Y985000D03*
X673700Y985000D03*
X673700Y285000D03*
X723700Y285000D03*
D11*
X558800Y885000D03*
X558800Y410000D03*
D12*
X596300Y985000D03*
X571300Y985000D03*
X546300Y985000D03*
X521300Y985000D03*
X521300Y285000D03*
X571300Y285000D03*
D11*
X406400Y885000D03*
X406400Y410000D03*
D12*
X443900Y985000D03*
X418900Y985000D03*
X393900Y985000D03*
X368900Y985000D03*
X368900Y285000D03*
X418900Y285000D03*
D11*
X254000Y885000D03*
X254000Y410000D03*
D12*
X291500Y985000D03*
X266500Y985000D03*
X241500Y985000D03*
X216500Y985000D03*
X216500Y285000D03*
X266500Y285000D03*
D11*
X101600Y885000D03*
X101600Y410000D03*
D12*
X139100Y985000D03*
X114100Y985000D03*
X89100Y985000D03*
X64100Y985000D03*
X64100Y285000D03*
X114100Y285000D03*
D13*
X2130400Y25400D03*
X2111400Y25400D03*
X2130400Y57150D03*
X2111400Y57150D03*
D14*
X2450000Y150000D03*
X2400000Y125000D03*
X2400000Y100000D03*
X2400000Y175000D03*
X2400000Y200000D03*
D15*
X2450000Y100000D03*
X2475000Y100000D03*
X2475000Y200000D03*
X2450000Y200000D03*
X2400000Y150000D03*
X2280600Y47150D03*
X2280600Y67150D03*
X2260600Y47150D03*
X2260600Y67150D03*
X2240600Y47150D03*
X2240600Y67150D03*
D16*
X2214600Y57150D03*
X2306600Y57150D03*
D17*
X565150Y225400D03*
X565150Y206400D03*
X438150Y225400D03*
X438150Y206400D03*
D18*
X514350Y200150D03*
X514350Y231650D03*
X539750Y200150D03*
X539750Y231650D03*
X488950Y200150D03*
X488950Y231650D03*
X463550Y200150D03*
X463550Y231650D03*
D19*
X106000Y1159275D03*
D20*
X54000Y1049275D03*
D21*
X108000Y1027275D03*
D19*
X254000Y1159275D03*
D20*
X202000Y1049275D03*
D21*
X256000Y1027275D03*
D19*
X406400Y1159275D03*
D20*
X354400Y1049275D03*
D21*
X408400Y1027275D03*
D19*
X558800Y1159275D03*
D20*
X506800Y1049275D03*
D21*
X560800Y1027275D03*
D19*
X711200Y1159275D03*
D20*
X659200Y1049275D03*
D21*
X713200Y1027275D03*
D19*
X863600Y1159275D03*
D20*
X811600Y1049275D03*
D21*
X865600Y1027275D03*
D19*
X1016000Y1159275D03*
D20*
X964000Y1049275D03*
D21*
X1018000Y1027275D03*
D19*
X1162050Y1159275D03*
D20*
X1110050Y1049275D03*
D21*
X1164050Y1027275D03*
D19*
X1327150Y1159275D03*
D20*
X1275150Y1049275D03*
D21*
X1329150Y1027275D03*
D19*
X1473200Y1159275D03*
D20*
X1421200Y1049275D03*
D21*
X1475200Y1027275D03*
D19*
X1625600Y1159275D03*
D20*
X1573600Y1049275D03*
D21*
X1627600Y1027275D03*
D19*
X1778000Y1159275D03*
D20*
X1726000Y1049275D03*
D21*
X1780000Y1027275D03*
D19*
X1930400Y1159275D03*
D20*
X1878400Y1049275D03*
D21*
X1932400Y1027275D03*
D19*
X2082800Y1159275D03*
D20*
X2030800Y1049275D03*
D21*
X2084800Y1027275D03*
D19*
X2235200Y1159275D03*
D20*
X2183200Y1049275D03*
D21*
X2237200Y1027275D03*
D19*
X2383000Y1159275D03*
D20*
X2331000Y1049275D03*
D21*
X2385000Y1027275D03*
D22*
X818550Y190500D03*
X870550Y190500D03*
X818550Y203200D03*
X818550Y177800D03*
X818550Y165100D03*
X870550Y203200D03*
X870550Y177800D03*
X870550Y165100D03*
X818550Y139700D03*
X870550Y139700D03*
X818550Y152400D03*
X818550Y127000D03*
X870550Y152400D03*
X870550Y127000D03*
D17*
X904875Y142850D03*
X904875Y123850D03*
X927100Y142850D03*
X927100Y123850D03*
D13*
X168300Y1016000D03*
X187300Y1016000D03*
D17*
X927100Y200000D03*
X927100Y181000D03*
X904875Y200000D03*
X904875Y181000D03*
D22*
X1028100Y190500D03*
X1080100Y190500D03*
X1028100Y203200D03*
X1028100Y177800D03*
X1028100Y165100D03*
X1080100Y203200D03*
X1080100Y177800D03*
X1080100Y165100D03*
X1028100Y139700D03*
X1080100Y139700D03*
X1028100Y152400D03*
X1028100Y127000D03*
X1080100Y152400D03*
X1080100Y127000D03*
D17*
X1114425Y142850D03*
X1114425Y123850D03*
X1136650Y142850D03*
X1136650Y123850D03*
X1136650Y200000D03*
X1136650Y181000D03*
X1114425Y200000D03*
X1114425Y181000D03*
D22*
X1237650Y190500D03*
X1289650Y190500D03*
X1237650Y203200D03*
X1237650Y177800D03*
X1237650Y165100D03*
X1289650Y203200D03*
X1289650Y177800D03*
X1289650Y165100D03*
X1237650Y139700D03*
X1289650Y139700D03*
X1237650Y152400D03*
X1237650Y127000D03*
X1289650Y152400D03*
X1289650Y127000D03*
D17*
X1323975Y142850D03*
X1323975Y123850D03*
X1346200Y142850D03*
X1346200Y123850D03*
D13*
X777900Y1016000D03*
X796900Y1016000D03*
D17*
X1346200Y200000D03*
X1346200Y181000D03*
X1323975Y200000D03*
X1323975Y181000D03*
D22*
X1447200Y190500D03*
X1499200Y190500D03*
X1447200Y203200D03*
X1447200Y177800D03*
X1447200Y165100D03*
X1499200Y203200D03*
X1499200Y177800D03*
X1499200Y165100D03*
X1447200Y139700D03*
X1499200Y139700D03*
X1447200Y152400D03*
X1447200Y127000D03*
X1499200Y152400D03*
X1499200Y127000D03*
D17*
X1533525Y142850D03*
X1533525Y123850D03*
X1555750Y142850D03*
X1555750Y123850D03*
D13*
X1082700Y1016000D03*
X1101700Y1016000D03*
D17*
X1555750Y200000D03*
X1555750Y181000D03*
X1533525Y200000D03*
X1533525Y181000D03*
D22*
X1656750Y190500D03*
X1708750Y190500D03*
X1656750Y203200D03*
X1656750Y177800D03*
X1656750Y165100D03*
X1708750Y203200D03*
X1708750Y177800D03*
X1708750Y165100D03*
X1656750Y139700D03*
X1708750Y139700D03*
X1656750Y152400D03*
X1656750Y127000D03*
X1708750Y152400D03*
X1708750Y127000D03*
D17*
X1743075Y142850D03*
X1743075Y123850D03*
X1765300Y142850D03*
X1765300Y123850D03*
D13*
X1387500Y1016000D03*
X1406500Y1016000D03*
D17*
X1765300Y200000D03*
X1765300Y181000D03*
X1743075Y200000D03*
X1743075Y181000D03*
D22*
X1866300Y190500D03*
X1918300Y190500D03*
X1866300Y203200D03*
X1866300Y177800D03*
X1866300Y165100D03*
X1918300Y203200D03*
X1918300Y177800D03*
X1918300Y165100D03*
X1866300Y139700D03*
X1918300Y139700D03*
X1866300Y152400D03*
X1866300Y127000D03*
X1918300Y152400D03*
X1918300Y127000D03*
D17*
X1952625Y142850D03*
X1952625Y123850D03*
X1974850Y142850D03*
X1974850Y123850D03*
D13*
X1692300Y1016000D03*
X1711300Y1016000D03*
D17*
X1974850Y200000D03*
X1974850Y181000D03*
X1952625Y200000D03*
X1952625Y181000D03*
D22*
X2075850Y190500D03*
X2127850Y190500D03*
X2075850Y203200D03*
X2075850Y177800D03*
X2075850Y165100D03*
X2127850Y203200D03*
X2127850Y177800D03*
X2127850Y165100D03*
X2075850Y139700D03*
X2127850Y139700D03*
X2075850Y152400D03*
X2075850Y127000D03*
X2127850Y152400D03*
X2127850Y127000D03*
D17*
X2162175Y142850D03*
X2162175Y123850D03*
X2184400Y142850D03*
X2184400Y123850D03*
D13*
X1997100Y1016000D03*
X2016100Y1016000D03*
D17*
X2184400Y200000D03*
X2184400Y181000D03*
X2162175Y200000D03*
X2162175Y181000D03*
D22*
X2285400Y190500D03*
X2337400Y190500D03*
X2285400Y203200D03*
X2285400Y177800D03*
X2285400Y165100D03*
X2337400Y203200D03*
X2337400Y177800D03*
X2337400Y165100D03*
X2285400Y139700D03*
X2337400Y139700D03*
X2285400Y152400D03*
X2285400Y127000D03*
X2337400Y152400D03*
X2337400Y127000D03*
D17*
X2371725Y73000D03*
X2371725Y54000D03*
X2393950Y73000D03*
X2393950Y54000D03*
D13*
X2301900Y1016000D03*
X2320900Y1016000D03*
D17*
X2393950Y244450D03*
X2393950Y225450D03*
X2371725Y244450D03*
X2371725Y225450D03*
D13*
X834950Y228600D03*
X853950Y228600D03*
X1044600Y228600D03*
X1063600Y228600D03*
X1254150Y228600D03*
X1273150Y228600D03*
X1463700Y228600D03*
X1482700Y228600D03*
X1673250Y228600D03*
X1692250Y228600D03*
X1882800Y228600D03*
X1901800Y228600D03*
X2092350Y228600D03*
X2111350Y228600D03*
X2301900Y228600D03*
X2320900Y228600D03*
X320700Y1016000D03*
X339700Y1016000D03*
X625500Y1016000D03*
X644500Y1016000D03*
X1235100Y1016000D03*
X1254100Y1016000D03*
X930300Y1016000D03*
X949300Y1016000D03*
X1539900Y1016000D03*
X1558900Y1016000D03*
X1844700Y1016000D03*
X1863700Y1016000D03*
X2149500Y1016000D03*
X2168500Y1016000D03*
D17*
X2451100Y917600D03*
X2451100Y936600D03*
D13*
X473100Y1016000D03*
X492100Y1016000D03*
D14*
X504825Y50800D03*
X479825Y100800D03*
X454825Y100800D03*
X529825Y100800D03*
X554825Y100800D03*
D15*
X454825Y50800D03*
X454825Y25800D03*
X554825Y25800D03*
X554825Y50800D03*
X504825Y100800D03*
D23*
X626683Y234950D03*
X626683Y222250D03*
X626683Y209550D03*
X626683Y196850D03*
X626683Y184150D03*
X626683Y171450D03*
X626683Y158750D03*
X626683Y146050D03*
X626683Y133350D03*
X626683Y120650D03*
X626683Y107950D03*
X626683Y95250D03*
X719517Y95250D03*
X719517Y107950D03*
X719517Y120650D03*
X719517Y133350D03*
X719517Y146050D03*
X719517Y158750D03*
X719517Y171450D03*
X719517Y184150D03*
X719517Y196850D03*
X719517Y209550D03*
X719517Y222250D03*
X719517Y234950D03*
D13*
X644500Y263525D03*
X625500Y263525D03*
D24*
X25400Y69850D03*
X50800Y69850D03*
X76200Y69850D03*
X101600Y69850D03*
X127000Y69850D03*
X152400Y69850D03*
X177800Y69850D03*
X203200Y69850D03*
X228600Y69850D03*
X254000Y69850D03*
X279400Y69850D03*
X304800Y69850D03*
X330200Y69850D03*
X355600Y69850D03*
X355600Y222250D03*
X330200Y222250D03*
X304800Y222250D03*
X279400Y222250D03*
X254000Y222250D03*
X228600Y222250D03*
X203200Y222250D03*
X177800Y222250D03*
X152400Y222250D03*
X127000Y222250D03*
X101600Y222250D03*
X76200Y222250D03*
X50800Y222250D03*
X25400Y222250D03*
D25*
X1892300Y266700D03*
X504825Y133350D03*
X2409825Y73025D03*
X850900Y266700D03*
X1295400Y228600D03*
X803275Y117475D03*
X647700Y133350D03*
X857250Y117475D03*
X647700Y146050D03*
X1012825Y117475D03*
X647700Y158750D03*
X1066800Y117475D03*
X647700Y171450D03*
X1431925Y117475D03*
X647700Y209550D03*
X1476375Y127000D03*
X647700Y222250D03*
X1641475Y117475D03*
X765175Y165100D03*
X1685925Y127000D03*
X752475Y165100D03*
X1851025Y117475D03*
X736600Y161925D03*
X1895475Y127000D03*
X736600Y171450D03*
X2060575Y117475D03*
X736600Y184150D03*
X2105025Y127000D03*
X736600Y196850D03*
X2270125Y117475D03*
X736600Y209550D03*
X2314575Y127000D03*
X736600Y222250D03*
X2298700Y311150D03*
X2051050Y311150D03*
X1847850Y311150D03*
X1635125Y311150D03*
X1425575Y311150D03*
X1219200Y311150D03*
X1025525Y311150D03*
X777875Y311150D03*
X13942Y254000D03*
X488950Y184150D03*
X647700Y184150D03*
X1212850Y117475D03*
X1263650Y127000D03*
X647700Y196850D03*
X600075Y234950D03*
M02*
