M48
;GenerationSoftware,Autodesk,EAGLE,9.1.3*%
;CreationDate,2018-08-31T20:53:22Z*%
FMAT,2
ICI,OFF
METRIC,TZ,000.000
T9C0.350
T8C0.800
T7C0.965
T6C1.100
T5C1.200
T4C1.300
T3C2.000
T2C2.300
T1C2.500
%
G90
M71
T1
X2540Y2540
X246380Y2540
X2540Y118110
X246380Y118110
X63500Y63500
X185420Y63500
X124460Y2540
X124460Y118110
T2
X238300Y115927
X223720Y102727
X218320Y104927
X223520Y115927
X208480Y102727
X203080Y104927
X208280Y115927
X193240Y102727
X187840Y104927
X193040Y115927
X178000Y102727
X172600Y104927
X177800Y115927
X162760Y102727
X157360Y104927
X162560Y115927
X147520Y102727
X142120Y104927
X147320Y115927
X132915Y102727
X25600Y102727
X132715Y115927
X116405Y102727
X111005Y104927
X116205Y115927
X101800Y102727
X96400Y104927
X101600Y115927
X86560Y102727
X81160Y104927
X86360Y115927
X71320Y102727
X65920Y104927
X71120Y115927
X56080Y102727
X50680Y104927
X55880Y115927
X40840Y102727
X35440Y104927
X40640Y115927
X233100Y104927
X238500Y102727
X10600Y115927
X5400Y104927
X10800Y102727
X25400Y115927
X20200Y104927
X127515Y104927
T3
X177800Y88500
X177800Y41000
X162560Y88500
X162560Y41000
X147320Y88500
X147320Y41000
X132080Y88500
X132080Y41000
X116840Y88500
X116840Y41000
X101600Y88500
X101600Y41000
X86360Y88500
X86360Y41000
X71120Y88500
X71120Y41000
X55880Y88500
X55880Y41000
X40640Y88500
X40640Y41000
X25400Y88500
X25400Y41000
X10160Y88500
X10160Y41000
X238760Y88500
X238760Y41000
X223520Y88500
X223520Y41000
X208280Y88500
X208280Y41000
X193040Y88500
X193040Y41000
T4
X47982Y10080
X50482Y5080
X45482Y10080
X52982Y10080
X55482Y10080
X240000Y20000
X240000Y17500
X240000Y10000
X240000Y12500
X245000Y15000
T5
X230660Y5715
X50482Y10080
X55482Y5080
X55482Y2580
X45482Y2580
X45482Y5080
X240000Y15000
X245000Y20000
X247500Y20000
X247500Y10000
X245000Y10000
X221460Y5715
T6
X212030Y98500
X209530Y98500
X207030Y98500
X204530Y98500
X204530Y28500
X209530Y28500
X196790Y98500
X194290Y98500
X191790Y98500
X189290Y98500
X189290Y28500
X194290Y28500
X181550Y98500
X179050Y98500
X176550Y98500
X174050Y98500
X174050Y28500
X179050Y28500
X166310Y98500
X163810Y98500
X161310Y98500
X158810Y98500
X158810Y28500
X163810Y28500
X151070Y98500
X148570Y98500
X146070Y98500
X143570Y98500
X143570Y28500
X148570Y28500
X135830Y98500
X133330Y98500
X130830Y98500
X128330Y98500
X224770Y28500
X133330Y28500
X120590Y98500
X118090Y98500
X115590Y98500
X113090Y98500
X113090Y28500
X118090Y28500
X105350Y98500
X102850Y98500
X100350Y98500
X97850Y98500
X97850Y28500
X102850Y28500
X90110Y98500
X87610Y98500
X85110Y98500
X82610Y98500
X82610Y28500
X87610Y28500
X74870Y98500
X72370Y98500
X69870Y98500
X67370Y98500
X67370Y28500
X72370Y28500
X59630Y98500
X57130Y98500
X54630Y98500
X52130Y98500
X52130Y28500
X57130Y28500
X44390Y98500
X41890Y98500
X39390Y98500
X36890Y98500
X36890Y28500
X41890Y28500
X29150Y98500
X26650Y98500
X24150Y98500
X21650Y98500
X21650Y28500
X26650Y28500
X13910Y98500
X11410Y98500
X8910Y98500
X6410Y98500
X6410Y28500
X11410Y28500
X219770Y28500
X219770Y98500
X222270Y98500
X224770Y98500
X227270Y98500
X128330Y28500
X235010Y28500
X235010Y98500
X237510Y98500
X240010Y98500
X242510Y98500
X240010Y28500
T7
X2540Y22225
X30480Y22225
X5080Y6985
X7620Y6985
X10160Y6985
X12700Y6985
X15240Y6985
X5080Y22225
X7620Y22225
X10160Y22225
X12700Y22225
X15240Y22225
X17780Y22225
X20320Y22225
X22860Y22225
X25400Y22225
X27940Y22225
X2540Y6985
X33020Y22225
X35560Y22225
X35560Y6985
X33020Y6985
X30480Y6985
X27940Y6985
X25400Y6985
X22860Y6985
X20320Y6985
X17780Y6985
T8
X224060Y6715
X228060Y4715
X228060Y6715
X226060Y4715
X226060Y6715
X224060Y4715
T9
X75248Y16510
X168593Y12700
X76518Y16510
X164148Y11747
X64770Y22225
X147638Y12700
X64770Y20955
X143193Y11747
X64770Y17145
X106680Y11747
X64770Y15875
X101282Y11747
X64770Y14605
X85725Y11747
X64770Y13335
X80328Y11747
X129540Y22860
X85090Y26670
X240982Y7302
X50482Y13335
X185102Y11747
X73660Y16192
X189547Y12700
X73660Y17145
X206057Y11747
X73660Y18415
X210502Y12700
X73660Y19685
X227012Y11747
X73660Y20955
X231457Y12700
X73660Y22225
X229870Y31115
X205105Y31115
X184785Y31115
X163513Y31115
X142558Y31115
X121920Y31115
X102552Y31115
X77788Y31115
X1394Y25400
X48895Y18415
X64770Y18415
X121285Y11747
X126365Y12700
X64770Y19685
X60007Y23495
X189230Y26670
M30