G04 EAGLE Gerber RS-274X export*
G75*
%MOMM*%
%FSLAX34Y34*%
%LPD*%
%AMOC8*
5,1,8,0,0,1.08239X$1,22.5*%
G01*
%ADD10C,2.627000*%
%ADD11C,2.127000*%
%ADD12P,1.923407X8X292.500000*%
%ADD13C,2.311400*%
%ADD14C,1.327000*%
%ADD15C,1.927000*%
%ADD16P,3.726669X8X202.500000*%
%ADD17P,3.726669X8X292.500000*%
%ADD18P,3.726669X8X22.500000*%
%ADD19C,1.574800*%
%ADD20C,0.832600*%


D10*
X25400Y25400D03*
X2463800Y25400D03*
X25400Y1181100D03*
X2463800Y1181100D03*
X635000Y635000D03*
X1854200Y635000D03*
X1244600Y25400D03*
X1244600Y1181100D03*
D11*
X2387600Y885000D03*
X2387600Y410000D03*
D12*
X2425100Y985000D03*
X2400100Y985000D03*
X2375100Y985000D03*
X2350100Y985000D03*
X2350100Y285000D03*
X2400100Y285000D03*
D11*
X2235200Y885000D03*
X2235200Y410000D03*
D12*
X2272700Y985000D03*
X2247700Y985000D03*
X2222700Y985000D03*
X2197700Y985000D03*
X2197700Y285000D03*
X2247700Y285000D03*
D11*
X2082800Y885000D03*
X2082800Y410000D03*
D12*
X2120300Y985000D03*
X2095300Y985000D03*
X2070300Y985000D03*
X2045300Y985000D03*
X2045300Y285000D03*
X2095300Y285000D03*
D11*
X1930400Y885000D03*
X1930400Y410000D03*
D12*
X1967900Y985000D03*
X1942900Y985000D03*
X1917900Y985000D03*
X1892900Y985000D03*
X1892900Y285000D03*
X1942900Y285000D03*
D11*
X1778000Y885000D03*
X1778000Y410000D03*
D12*
X1815500Y985000D03*
X1790500Y985000D03*
X1765500Y985000D03*
X1740500Y985000D03*
X1740500Y285000D03*
X1790500Y285000D03*
D11*
X1625600Y885000D03*
X1625600Y410000D03*
D12*
X1663100Y985000D03*
X1638100Y985000D03*
X1613100Y985000D03*
X1588100Y985000D03*
X1588100Y285000D03*
X1638100Y285000D03*
D11*
X1473200Y885000D03*
X1473200Y410000D03*
D12*
X1510700Y985000D03*
X1485700Y985000D03*
X1460700Y985000D03*
X1435700Y985000D03*
X1435700Y285000D03*
X1485700Y285000D03*
D11*
X1320800Y885000D03*
X1320800Y410000D03*
D12*
X1358300Y985000D03*
X1333300Y985000D03*
X1308300Y985000D03*
X1283300Y985000D03*
X1283300Y285000D03*
X1333300Y285000D03*
D11*
X1168400Y885000D03*
X1168400Y410000D03*
D12*
X1205900Y985000D03*
X1180900Y985000D03*
X1155900Y985000D03*
X1130900Y985000D03*
X1130900Y285000D03*
X1180900Y285000D03*
D11*
X1016000Y885000D03*
X1016000Y410000D03*
D12*
X1053500Y985000D03*
X1028500Y985000D03*
X1003500Y985000D03*
X978500Y985000D03*
X978500Y285000D03*
X1028500Y285000D03*
D11*
X863600Y885000D03*
X863600Y410000D03*
D12*
X901100Y985000D03*
X876100Y985000D03*
X851100Y985000D03*
X826100Y985000D03*
X826100Y285000D03*
X876100Y285000D03*
D11*
X711200Y885000D03*
X711200Y410000D03*
D12*
X748700Y985000D03*
X723700Y985000D03*
X698700Y985000D03*
X673700Y985000D03*
X673700Y285000D03*
X723700Y285000D03*
D11*
X558800Y885000D03*
X558800Y410000D03*
D12*
X596300Y985000D03*
X571300Y985000D03*
X546300Y985000D03*
X521300Y985000D03*
X521300Y285000D03*
X571300Y285000D03*
D11*
X406400Y885000D03*
X406400Y410000D03*
D12*
X443900Y985000D03*
X418900Y985000D03*
X393900Y985000D03*
X368900Y985000D03*
X368900Y285000D03*
X418900Y285000D03*
D11*
X254000Y885000D03*
X254000Y410000D03*
D12*
X291500Y985000D03*
X266500Y985000D03*
X241500Y985000D03*
X216500Y985000D03*
X216500Y285000D03*
X266500Y285000D03*
D11*
X101600Y885000D03*
X101600Y410000D03*
D12*
X139100Y985000D03*
X114100Y985000D03*
X89100Y985000D03*
X64100Y985000D03*
X64100Y285000D03*
X114100Y285000D03*
D13*
X2450000Y150000D03*
X2400000Y125000D03*
X2400000Y100000D03*
X2400000Y175000D03*
X2400000Y200000D03*
D14*
X2450000Y100000D03*
X2475000Y100000D03*
X2475000Y200000D03*
X2450000Y200000D03*
X2400000Y150000D03*
X2280600Y47150D03*
X2280600Y67150D03*
X2260600Y47150D03*
X2260600Y67150D03*
X2240600Y47150D03*
X2240600Y67150D03*
D15*
X2214600Y57150D03*
X2306600Y57150D03*
D16*
X106000Y1159275D03*
D17*
X54000Y1049275D03*
D18*
X108000Y1027275D03*
D16*
X254000Y1159275D03*
D17*
X202000Y1049275D03*
D18*
X256000Y1027275D03*
D16*
X406400Y1159275D03*
D17*
X354400Y1049275D03*
D18*
X408400Y1027275D03*
D16*
X558800Y1159275D03*
D17*
X506800Y1049275D03*
D18*
X560800Y1027275D03*
D16*
X711200Y1159275D03*
D17*
X659200Y1049275D03*
D18*
X713200Y1027275D03*
D16*
X863600Y1159275D03*
D17*
X811600Y1049275D03*
D18*
X865600Y1027275D03*
D16*
X1016000Y1159275D03*
D17*
X964000Y1049275D03*
D18*
X1018000Y1027275D03*
D16*
X1162050Y1159275D03*
D17*
X1110050Y1049275D03*
D18*
X1164050Y1027275D03*
D16*
X1327150Y1159275D03*
D17*
X1275150Y1049275D03*
D18*
X1329150Y1027275D03*
D16*
X1473200Y1159275D03*
D17*
X1421200Y1049275D03*
D18*
X1475200Y1027275D03*
D16*
X1625600Y1159275D03*
D17*
X1573600Y1049275D03*
D18*
X1627600Y1027275D03*
D16*
X1778000Y1159275D03*
D17*
X1726000Y1049275D03*
D18*
X1780000Y1027275D03*
D16*
X1930400Y1159275D03*
D17*
X1878400Y1049275D03*
D18*
X1932400Y1027275D03*
D16*
X2082800Y1159275D03*
D17*
X2030800Y1049275D03*
D18*
X2084800Y1027275D03*
D16*
X2235200Y1159275D03*
D17*
X2183200Y1049275D03*
D18*
X2237200Y1027275D03*
D16*
X2383000Y1159275D03*
D17*
X2331000Y1049275D03*
D18*
X2385000Y1027275D03*
D13*
X504825Y50800D03*
X479825Y100800D03*
X454825Y100800D03*
X529825Y100800D03*
X554825Y100800D03*
D14*
X454825Y50800D03*
X454825Y25800D03*
X554825Y25800D03*
X554825Y50800D03*
X504825Y100800D03*
D19*
X25400Y69850D03*
X50800Y69850D03*
X76200Y69850D03*
X101600Y69850D03*
X127000Y69850D03*
X152400Y69850D03*
X177800Y69850D03*
X203200Y69850D03*
X228600Y69850D03*
X254000Y69850D03*
X279400Y69850D03*
X304800Y69850D03*
X330200Y69850D03*
X355600Y69850D03*
X355600Y222250D03*
X330200Y222250D03*
X304800Y222250D03*
X279400Y222250D03*
X254000Y222250D03*
X228600Y222250D03*
X203200Y222250D03*
X177800Y222250D03*
X152400Y222250D03*
X127000Y222250D03*
X101600Y222250D03*
X76200Y222250D03*
X50800Y222250D03*
X25400Y222250D03*
D20*
X1892300Y266700D03*
X504825Y133350D03*
X2409825Y73025D03*
X850900Y266700D03*
X1295400Y228600D03*
X803275Y117475D03*
X647700Y133350D03*
X857250Y117475D03*
X647700Y146050D03*
X1012825Y117475D03*
X647700Y158750D03*
X1066800Y117475D03*
X647700Y171450D03*
X1431925Y117475D03*
X647700Y209550D03*
X1476375Y127000D03*
X647700Y222250D03*
X1641475Y117475D03*
X765175Y165100D03*
X1685925Y127000D03*
X752475Y165100D03*
X1851025Y117475D03*
X736600Y161925D03*
X1895475Y127000D03*
X736600Y171450D03*
X2060575Y117475D03*
X736600Y184150D03*
X2105025Y127000D03*
X736600Y196850D03*
X2270125Y117475D03*
X736600Y209550D03*
X2314575Y127000D03*
X736600Y222250D03*
X2298700Y311150D03*
X2051050Y311150D03*
X1847850Y311150D03*
X1635125Y311150D03*
X1425575Y311150D03*
X1219200Y311150D03*
X1025525Y311150D03*
X777875Y311150D03*
X13942Y254000D03*
X488950Y184150D03*
X647700Y184150D03*
X1212850Y117475D03*
X1263650Y127000D03*
X647700Y196850D03*
X600075Y234950D03*
M02*
