0
SECTION
2
HEADER
9
$INSUNITS
70
4
9
$ACADVER
1
AC1014
9
$HANDSEED
5
FFFF
0
ENDSEC
0
SECTION
2
TABLES
0
TABLE
2
VPORT
5
8
100
AcDbSymbolTable
0
ENDTAB
0
TABLE
2
LTYPE
5
5
100
AcDbSymbolTable
0
LTYPE
5
14
100
AcDbSymbolTableRecord
100
AcDbLinetypeTableRecord
2
BYBLOCK
70
0
0
LTYPE
5
15
100
AcDbSymbolTableRecord
100
AcDbLinetypeTableRecord
2
BYLAYER
70
0
0
ENDTAB
0
TABLE
2
LAYER
5
2
100
AcDbSymbolTable
70
2
0
LAYER
5
50
100
AcDbSymbolTableRecord
100
AcDbLayerTableRecord
2
0
70
0
6
CONTINUOUS
0
ENDTAB
0
TABLE
2
STYLE
5
3
100
AcDbSymbolTable
70
1
0
STYLE
5
11
100
AcDbSymbolTableRecord
100
AcDbTextStyleTableRecord
2
STANDARD
70
0
0
ENDTAB
0
TABLE
2
VIEW
5
6
100
AcDbSymbolTable
70
0
0
ENDTAB
0
TABLE
2
UCS
5
7
100
AcDbSymbolTable
70
0
0
ENDTAB
0
TABLE
2
APPID
5
9
100
AcDbSymbolTable
70
2
0
APPID
5
12
100
AcDbSymbolTableRecord
100
AcDbRegAppTableRecord
2
ACAD
70
0
0
ENDTAB
0
TABLE
2
DIMSTYLE
5
A
100
AcDbSymbolTable
70
1
0
ENDTAB
0
TABLE
2
BLOCK_RECORD
5
1
100
AcDbSymbolTable
70
1
0
BLOCK_RECORD
5
1F
100
AcDbSymbolTableRecord
100
AcDbBlockTableRecord
2
*MODEL_SPACE
0
BLOCK_RECORD
5
1B
100
AcDbSymbolTableRecord
100
AcDbBlockTableRecord
2
*PAPER_SPACE
0
ENDTAB
0
ENDSEC
0
SECTION
2
BLOCKS
0
BLOCK
5
20
100
AcDbEntity
100
AcDbBlockBegin
2
*MODEL_SPACE
0
ENDBLK
5
21
100
AcDbEntity
100
AcDbBlockEnd
0
BLOCK
5
1C
100
AcDbEntity
100
AcDbBlockBegin
2
*PAPER_SPACE
0
ENDBLK
5
1D
100
AcDbEntity
100
AcDbBlockEnd
0
ENDSEC
0
SECTION
2
ENTITIES
0
LWPOLYLINE
5
100
100
AcDbEntity
8
0
100
AcDbPolyline
90
4
70
1
43
0.0
10
-12.159999950697877
20
23.655802176665848
10
-8.1599999506978769
20
23.655802176665848
10
-8.1599999506978822
20
90.655802176665844
10
-12.159999950697877
20
90.655802176665844
0
CIRCLE
5
101
100
AcDbEntity
8
0
100
AcDbCircle
10
-2.54
20
2.54
30
0
40
0.99999999999999978
0
CIRCLE
5
102
100
AcDbEntity
8
0
100
AcDbCircle
10
-246.37999999012897
20
118.11000000003374
30
0
40
0.99999999999997868
0
LWPOLYLINE
5
103
100
AcDbEntity
8
0
100
AcDbPolyline
90
4
70
1
43
0.0
10
-221.51999995069787
20
23.655802176665848
10
-221.51999995069787
20
90.655802176665844
10
-225.51999995069787
20
90.655802176665844
10
-225.51999995069787
20
23.655802176665848
0
LWPOLYLINE
5
104
100
AcDbEntity
8
0
100
AcDbPolyline
90
4
70
1
43
0.0
10
-206.27999995069788
20
23.655802176665848
10
-206.27999995069788
20
90.655802176665844
10
-210.27999995069788
20
90.655802176665844
10
-210.27999995069788
20
23.655802176665848
0
CIRCLE
5
105
100
AcDbEntity
8
0
100
AcDbCircle
10
-208.28000642228386
20
92.655802176676275
30
0
40
0.99999999999997868
0
LWPOLYLINE
5
106
100
AcDbEntity
8
0
100
AcDbPolyline
90
4
70
1
43
0.0
10
-191.03999995069788
20
23.655802176665848
10
-191.03999995069788
20
90.655802176665844
10
-195.03999995069788
20
90.655802176665844
10
-195.03999995069788
20
23.655802176665848
0
CIRCLE
5
107
100
AcDbEntity
8
0
100
AcDbCircle
10
-177.80000642228384
20
92.655802176676275
30
0
40
0.99999999999997868
0
CIRCLE
5
108
100
AcDbEntity
8
0
100
AcDbCircle
10
-177.79989033154953
20
21.655802173661741
30
0
40
1.0000000000000142
0
LWPOLYLINE
5
109
100
AcDbEntity
8
0
100
AcDbPolyline
90
4
70
1
43
0.0
10
-175.79999995069787
20
23.655802176665848
10
-175.79999995069787
20
90.655802176665844
10
-179.79999995069787
20
90.655802176665844
10
-179.79999995069787
20
23.655802176665848
0
CIRCLE
5
110
100
AcDbEntity
8
0
100
AcDbCircle
10
-162.56000642228383
20
92.655802176676275
30
0
40
0.99999999999997868
0
CIRCLE
5
111
100
AcDbEntity
8
0
100
AcDbCircle
10
-162.55989033154958
20
21.655802173661741
30
0
40
1.0000000000000142
0
LWPOLYLINE
5
112
100
AcDbEntity
8
0
100
AcDbPolyline
90
4
70
1
43
0.0
10
-160.55999995069786
20
23.655802176665848
10
-160.55999995069789
20
90.655802176665844
10
-164.55999995069789
20
90.655802176665844
10
-164.55999995069789
20
23.655802176665848
0
CIRCLE
5
113
100
AcDbEntity
8
0
100
AcDbCircle
10
-147.31989033154957
20
21.655802173661741
30
0
40
0.99999999999999645
0
CIRCLE
5
114
100
AcDbEntity
8
0
100
AcDbCircle
10
-147.32000642228385
20
92.655802176676275
30
0
40
0.99999999999999645
0
CIRCLE
5
115
100
AcDbEntity
8
0
100
AcDbCircle
10
-116.84000642228384
20
92.655802176676275
30
0
40
0.99999999999999645
0
LWPOLYLINE
5
116
100
AcDbEntity
8
0
100
AcDbPolyline
90
4
70
1
43
0.0
10
-145.31999995069788
20
23.655802176665848
10
-145.31999995069788
20
90.655802176665844
10
-149.31999995069791
20
90.655802176665844
10
-149.31999995069791
20
23.655802176665848
0
CIRCLE
5
117
100
AcDbEntity
8
0
100
AcDbCircle
10
-208.27989033154955
20
21.655802173661741
30
0
40
1.0000000000000142
0
CIRCLE
5
118
100
AcDbEntity
8
0
100
AcDbCircle
10
-116.83989033154957
20
21.655802173661741
30
0
40
0.99999999999999645
0
LWPOLYLINE
5
119
100
AcDbEntity
8
0
100
AcDbPolyline
90
4
70
1
43
0.0
10
-114.83999995069787
20
23.655802176665848
10
-114.83999995069787
20
90.655802176665844
10
-118.83999995069787
20
90.655802176665844
10
-118.83999995069787
20
23.655802176665848
0
CIRCLE
5
120
100
AcDbEntity
8
0
100
AcDbCircle
10
-132.08000642228384
20
92.655802176676275
30
0
40
0.99999999999999645
0
CIRCLE
5
121
100
AcDbEntity
8
0
100
AcDbCircle
10
-101.60000642228384
20
92.655802176676275
30
0
40
0.99999999999999645
0
LWPOLYLINE
5
122
100
AcDbEntity
8
0
100
AcDbPolyline
90
4
70
1
43
0.0
10
-69.119999950697888
20
23.655802176665848
10
-69.119999950697888
20
90.655802176665844
10
-73.119999950697874
20
90.655802176665844
10
-73.119999950697874
20
23.655802176665848
0
CIRCLE
5
123
100
AcDbEntity
8
0
100
AcDbCircle
10
-71.11989033154957
20
21.655802173661741
30
0
40
0.99999999999999645
0
CIRCLE
5
124
100
AcDbEntity
8
0
100
AcDbCircle
10
-101.59989033154957
20
21.655802173661741
30
0
40
0.99999999999999645
0
CIRCLE
5
125
100
AcDbEntity
8
0
100
AcDbCircle
10
-2.54
20
118.11
30
0
40
1.0000000000000013
0
CIRCLE
5
126
100
AcDbEntity
8
0
100
AcDbCircle
10
-10.159890331549569
20
21.655802173661741
30
0
40
1.0000000000000009
0
CIRCLE
5
127
100
AcDbEntity
8
0
100
AcDbCircle
10
-10.160006422283836
20
92.655802176676275
30
0
40
0.99999999999999201
0
CIRCLE
5
128
100
AcDbEntity
8
0
100
AcDbCircle
10
-246.38000000000002
20
2.54
30
0
40
1.0000000000000142
0
CIRCLE
5
129
100
AcDbEntity
8
0
100
AcDbCircle
10
-25.400006422283834
20
92.655802176676275
30
0
40
0.99999999999999201
0
LWPOLYLINE
5
130
100
AcDbEntity
8
0
100
AcDbPolyline
90
4
70
1
43
0.0
10
-53.879999950697879
20
23.655802176665848
10
-53.879999950697879
20
90.655802176665844
10
-57.879999950697879
20
90.655802176665844
10
-57.879999950697879
20
23.655802176665848
0
CIRCLE
5
131
100
AcDbEntity
8
0
100
AcDbCircle
10
-55.879890331549561
20
21.655802173661741
30
0
40
0.99999999999999645
0
CIRCLE
5
132
100
AcDbEntity
8
0
100
AcDbCircle
10
-55.880006422283834
20
92.655802176676275
30
0
40
0.99999999999998757
0
LWPOLYLINE
5
133
100
AcDbEntity
8
0
100
AcDbPolyline
90
4
70
1
43
0.0
10
-38.639999950697877
20
23.655802176665848
10
-38.639999950697884
20
90.655802176665844
10
-42.639999950697877
20
90.655802176665844
10
-42.639999950697877
20
23.655802176665848
0
CIRCLE
5
134
100
AcDbEntity
8
0
100
AcDbCircle
10
-40.639890331549573
20
21.655802173661741
30
0
40
0.99999999999999645
0
LWPOLYLINE
5
135
100
AcDbEntity
8
0
100
AcDbPolyline
90
4
70
1
43
0.0
10
-99.599999950697878
20
23.655802176665848
10
-99.599999950697878
20
90.655802176665844
10
-103.59999995069788
20
90.655802176665844
10
-103.59999995069788
20
23.655802176665848
0
CIRCLE
5
136
100
AcDbEntity
8
0
100
AcDbCircle
10
-40.640006422283832
20
92.655802176676275
30
0
40
0.99999999999998757
0
CIRCLE
5
137
100
AcDbEntity
8
0
100
AcDbCircle
10
-71.120006422283836
20
92.655802176676275
30
0
40
0.99999999999998757
0
LWPOLYLINE
5
138
100
AcDbEntity
8
0
100
AcDbPolyline
90
4
70
1
43
0.0
10
-130.07999995069787
20
23.655802176665848
10
-130.07999995069787
20
90.655802176665844
10
-134.0799999506979
20
90.655802176665844
10
-134.0799999506979
20
23.655802176665848
0
CIRCLE
5
139
100
AcDbEntity
8
0
100
AcDbCircle
10
-193.03989033154954
20
21.655802173661741
30
0
40
1.0000000000000142
0
CIRCLE
5
140
100
AcDbEntity
8
0
100
AcDbCircle
10
-132.07989033154956
20
21.655802173661741
30
0
40
0.99999999999999645
0
CIRCLE
5
141
100
AcDbEntity
8
0
100
AcDbCircle
10
-193.04000642228385
20
92.655802176676275
30
0
40
0.99999999999997868
0
CIRCLE
5
142
100
AcDbEntity
8
0
100
AcDbCircle
10
-223.51989033154953
20
21.655802173661741
30
0
40
1.0000000000000142
0
CIRCLE
5
143
100
AcDbEntity
8
0
100
AcDbCircle
10
-223.52000642228381
20
92.655802176676275
30
0
40
0.99999999999997868
0
LWPOLYLINE
5
144
100
AcDbEntity
8
0
100
AcDbPolyline
90
4
70
1
43
0.0
10
-236.75999995069787
20
23.655802176665848
10
-236.75999995069787
20
90.655802176665844
10
-240.75999995069787
20
90.655802176665844
10
-240.75999995069787
20
23.655802176665848
0
CIRCLE
5
145
100
AcDbEntity
8
0
100
AcDbCircle
10
-238.75989033154954
20
21.655802173661741
30
0
40
1.0000000000000142
0
CIRCLE
5
146
100
AcDbEntity
8
0
100
AcDbCircle
10
-238.76000642228382
20
92.655802176676275
30
0
40
0.99999999999997868
0
LWPOLYLINE
5
147
100
AcDbEntity
8
0
100
AcDbPolyline
90
4
70
1
43
0.0
10
-84.359999950697869
20
23.655802176665848
10
-84.359999950697897
20
90.655802176665844
10
-88.359999950697869
20
90.655802176665844
10
-88.359999950697869
20
23.655802176665848
0
CIRCLE
5
148
100
AcDbEntity
8
0
100
AcDbCircle
10
-86.359890331549565
20
21.655802173661741
30
0
40
0.99999999999999645
0
CIRCLE
5
149
100
AcDbEntity
8
0
100
AcDbCircle
10
-86.360006422283831
20
92.655802176676275
30
0
40
0.99999999999999645
0
CIRCLE
5
150
100
AcDbEntity
8
0
100
AcDbCircle
10
-25.399890331549567
20
21.655802173661741
30
0
40
1.0000000000000009
0
CIRCLE
5
151
100
AcDbEntity
8
0
100
AcDbCircle
10
-2.54
20
21.589999999999996
30
0
40
1.000000000000002
0
LWPOLYLINE
5
152
100
AcDbEntity
8
0
100
AcDbPolyline
90
4
70
1
43
0.0
10
-23.399999950697875
20
23.655802176665848
10
-23.399999950697882
20
90.655802176665844
10
-27.399999950697875
20
90.655802176665844
10
-27.399999950697875
20
23.655802176665848
0
CIRCLE
5
153
100
AcDbEntity
8
0
100
AcDbCircle
10
-246.38000000000002
20
21.589999999999996
30
0
40
1.0000000000000142
0
LWPOLYLINE
5
154
100
AcDbEntity
8
0
100
AcDbPolyline
90
8
70
1
43
0.0
10
-246.37999999504527
20
-2.5400000000000134
42
-0.41421356237309515
10
-251.46000000000004
20
2.54000000495477
10
-251.46000000000001
20
118.10999999999999
42
-0.41421356237308277
10
-246.38000000000005
20
123.19
10
-2.5400000000000134
20
123.19
42
-0.41421356237309781
10
2.5399999999999991
20
118.10999999999996
10
2.54
20
2.5399999999999778
42
-0.41421356237309448
10
-2.5400000000000134
20
-2.54
0
ENDSEC
0
SECTION
2
OBJECTS
0
DICTIONARY
5
C
100
AcDbDictionary
3
ACAD_GROUP
350
D
3
ACAD_MLINESTYLE
350
17
0
DICTIONARY
5
D
100
AcDbDictionary
0
DICTIONARY
5
1A
330
C
100
AcDbDictionary
0
DICTIONARY
5
17
100
AcDbDictionary
0
ENDSEC
0
EOF
