0
SECTION
2
HEADER
9
$INSUNITS
70
4
9
$ACADVER
1
AC1014
9
$HANDSEED
5
FFFF
0
ENDSEC
0
SECTION
2
TABLES
0
TABLE
2
VPORT
5
8
100
AcDbSymbolTable
0
ENDTAB
0
TABLE
2
LTYPE
5
5
100
AcDbSymbolTable
0
LTYPE
5
14
100
AcDbSymbolTableRecord
100
AcDbLinetypeTableRecord
2
BYBLOCK
70
0
0
LTYPE
5
15
100
AcDbSymbolTableRecord
100
AcDbLinetypeTableRecord
2
BYLAYER
70
0
0
ENDTAB
0
TABLE
2
LAYER
5
2
100
AcDbSymbolTable
70
2
0
LAYER
5
50
100
AcDbSymbolTableRecord
100
AcDbLayerTableRecord
2
0
70
0
6
CONTINUOUS
0
ENDTAB
0
TABLE
2
STYLE
5
3
100
AcDbSymbolTable
70
1
0
STYLE
5
11
100
AcDbSymbolTableRecord
100
AcDbTextStyleTableRecord
2
STANDARD
70
0
0
ENDTAB
0
TABLE
2
VIEW
5
6
100
AcDbSymbolTable
70
0
0
ENDTAB
0
TABLE
2
UCS
5
7
100
AcDbSymbolTable
70
0
0
ENDTAB
0
TABLE
2
APPID
5
9
100
AcDbSymbolTable
70
2
0
APPID
5
12
100
AcDbSymbolTableRecord
100
AcDbRegAppTableRecord
2
ACAD
70
0
0
ENDTAB
0
TABLE
2
DIMSTYLE
5
A
100
AcDbSymbolTable
70
1
0
ENDTAB
0
TABLE
2
BLOCK_RECORD
5
1
100
AcDbSymbolTable
70
1
0
BLOCK_RECORD
5
1F
100
AcDbSymbolTableRecord
100
AcDbBlockTableRecord
2
*MODEL_SPACE
0
BLOCK_RECORD
5
1B
100
AcDbSymbolTableRecord
100
AcDbBlockTableRecord
2
*PAPER_SPACE
0
ENDTAB
0
ENDSEC
0
SECTION
2
BLOCKS
0
BLOCK
5
20
100
AcDbEntity
100
AcDbBlockBegin
2
*MODEL_SPACE
0
ENDBLK
5
21
100
AcDbEntity
100
AcDbBlockEnd
0
BLOCK
5
1C
100
AcDbEntity
100
AcDbBlockBegin
2
*PAPER_SPACE
0
ENDBLK
5
1D
100
AcDbEntity
100
AcDbBlockEnd
0
ENDSEC
0
SECTION
2
ENTITIES
0
LWPOLYLINE
5
100
100
AcDbEntity
8
0
100
AcDbPolyline
90
8
70
1
43
0.0
10
145.31999995069788
20
89.655802176665844
42
-0.41421356237309509
10
146.31999995069788
20
90.655802176665844
10
148.31999995069791
20
90.655802176665844
42
-0.41421356237309509
10
149.31999995069791
20
89.655802176665844
10
149.31999995069791
20
24.655802176665844
42
-0.41421356237309509
10
148.31999995069791
20
23.655802176665844
10
146.31999995069791
20
23.655802176665851
42
-0.4142135623730937
10
145.31999995069791
20
24.655802176665844
0
LWPOLYLINE
5
101
100
AcDbEntity
8
0
100
AcDbPolyline
90
8
70
1
43
0.0
10
221.51999995069787
20
89.655802176665844
42
-0.41421356237309509
10
222.51999995069787
20
90.655802176665844
10
224.51999995069784
20
90.655802176665858
42
-0.41421356237309509
10
225.51999995069787
20
89.655802176665844
10
225.51999995069787
20
24.655802176665844
42
-0.41421356237309509
10
224.51999995069784
20
23.655802176665844
10
222.51999995069787
20
23.655802176665834
42
-0.4142135623730937
10
221.51999995069787
20
24.655802176665844
0
LWPOLYLINE
5
102
100
AcDbEntity
8
0
100
AcDbPolyline
90
8
70
1
43
0.0
10
84.359999950697897
20
89.655802176665844
42
-0.41421356237309509
10
85.359999950697883
20
90.655802176665844
10
87.359999950697869
20
90.655802176665844
42
-0.41421356237309509
10
88.359999950697855
20
89.655802176665844
10
88.359999950697869
20
24.655802176665844
42
-0.41421356237309509
10
87.359999950697883
20
23.655802176665844
10
85.359999950697883
20
23.655802176665851
42
-0.4142135623730937
10
84.359999950697897
20
24.655802176665844
0
LWPOLYLINE
5
103
100
AcDbEntity
8
0
100
AcDbPolyline
90
8
70
1
43
0.0
10
175.7999999506979
20
89.655802176665844
42
-0.41421356237309509
10
176.7999999506979
20
90.655802176665844
10
178.79999995069784
20
90.655802176665858
42
-0.41421356237309509
10
179.79999995069787
20
89.655802176665844
10
179.79999995069787
20
24.655802176665844
42
-0.41421356237309509
10
178.79999995069784
20
23.655802176665844
10
176.7999999506979
20
23.655802176665834
42
-0.4142135623730937
10
175.79999995069787
20
24.655802176665844
0
LWPOLYLINE
5
104
100
AcDbEntity
8
0
100
AcDbPolyline
90
8
70
1
43
0.0
10
206.27999995069791
20
89.655802176665844
42
-0.41421356237309509
10
207.27999995069791
20
90.655802176665844
10
209.27999995069786
20
90.655802176665858
42
-0.41421356237309509
10
210.27999995069788
20
89.655802176665844
10
210.27999995069788
20
24.655802176665844
42
-0.41421356237309509
10
209.27999995069786
20
23.655802176665844
10
207.27999995069791
20
23.655802176665834
42
-0.4142135623730937
10
206.27999995069788
20
24.655802176665844
0
CIRCLE
5
105
100
AcDbEntity
8
0
100
AcDbCircle
10
185.41999999999999
20
57.154801267541529
30
0
40
1.25
0
LWPOLYLINE
5
106
100
AcDbEntity
8
0
100
AcDbPolyline
90
8
70
1
43
0.0
10
160.55999995069789
20
89.655802176665844
42
-0.41421356237309509
10
161.55999995069791
20
90.655802176665844
10
163.55999995069789
20
90.655802176665858
42
-0.41421356237309509
10
164.55999995069789
20
89.655802176665844
10
164.55999995069789
20
24.655802176665844
42
-0.41421356237309509
10
163.55999995069789
20
23.655802176665844
10
161.55999995069789
20
23.655802176665834
42
-0.4142135623730937
10
160.55999995069786
20
24.655802176665844
0
LWPOLYLINE
5
107
100
AcDbEntity
8
0
100
AcDbPolyline
90
8
70
1
43
0.0
10
9.1599999506978769
20
23.655802176665848
42
-0.4142135623730937
10
8.1599999506978769
20
24.655802176665844
10
8.159999950697884
20
89.655802176665844
42
-0.41421356237309509
10
9.1599999506978804
20
90.655802176665844
10
11.159999950697877
20
90.655802176665844
42
-0.41421356237309509
10
12.159999950697875
20
89.655802176665844
10
12.159999950697877
20
24.655802176665844
42
-0.41421356237309509
10
11.159999950697877
20
23.655802176665844
0
LWPOLYLINE
5
108
100
AcDbEntity
8
0
100
AcDbPolyline
90
8
70
1
43
0.0
10
53.879999950697879
20
89.655802176665844
42
-0.41421356237309509
10
54.879999950697879
20
90.655802176665844
10
56.879999950697879
20
90.655802176665844
42
-0.41421356237309509
10
57.879999950697879
20
89.655802176665844
10
57.879999950697879
20
24.655802176665844
42
-0.41421356237309509
10
56.879999950697879
20
23.655802176665844
10
54.879999950697886
20
23.655802176665851
42
-0.4142135623730937
10
53.879999950697879
20
24.655802176665844
0
CIRCLE
5
109
100
AcDbEntity
8
0
100
AcDbCircle
10
246.37999999012897
20
118.11000000003374
30
0
40
1.25
0
CIRCLE
5
110
100
AcDbEntity
8
0
100
AcDbCircle
10
2.54
20
118.11
30
0
40
1.25
0
CIRCLE
5
111
100
AcDbEntity
8
0
100
AcDbCircle
10
63.5
20
57.154801267541551
30
0
40
1.2500000000000089
0
LWPOLYLINE
5
112
100
AcDbEntity
8
0
100
AcDbPolyline
90
8
70
1
43
0.0
10
130.07999995069787
20
89.655802176665844
42
-0.41421356237309509
10
131.07999995069787
20
90.655802176665844
10
133.0799999506979
20
90.655802176665844
42
-0.41421356237309509
10
134.0799999506979
20
89.655802176665844
10
134.0799999506979
20
24.655802176665844
42
-0.41421356237309509
10
133.0799999506979
20
23.655802176665844
10
131.0799999506979
20
23.655802176665851
42
-0.4142135623730937
10
130.0799999506979
20
24.655802176665844
0
CIRCLE
5
113
100
AcDbEntity
8
0
100
AcDbCircle
10
246.38000000000002
20
2.5399999999999996
30
0
40
1.25
0
LWPOLYLINE
5
114
100
AcDbEntity
8
0
100
AcDbPolyline
90
8
70
1
43
0.0
10
114.83999995069787
20
89.655802176665844
42
-0.41421356237309509
10
115.83999995069787
20
90.655802176665844
10
117.83999995069789
20
90.655802176665844
42
-0.41421356237309509
10
118.83999995069787
20
89.655802176665844
10
118.83999995069787
20
24.655802176665844
42
-0.41421356237309509
10
117.83999995069789
20
23.655802176665844
10
115.83999995069789
20
23.655802176665851
42
-0.4142135623730937
10
114.83999995069789
20
24.655802176665844
0
CIRCLE
5
115
100
AcDbEntity
8
0
100
AcDbCircle
10
124.45999999752262
20
2.5400000024773846
30
0
40
1.25
0
LWPOLYLINE
5
116
100
AcDbEntity
8
0
100
AcDbPolyline
90
8
70
1
43
0.0
10
38.639999950697884
20
89.655802176665844
42
-0.41421356237309509
10
39.639999950697884
20
90.655802176665844
10
41.639999950697877
20
90.655802176665844
42
-0.41421356237309509
10
42.639999950697877
20
89.655802176665844
10
42.639999950697884
20
24.655802176665844
42
-0.41421356237309509
10
41.639999950697877
20
23.655802176665844
10
39.639999950697877
20
23.655802176665848
42
-0.4142135623730937
10
38.639999950697877
20
24.655802176665844
0
LWPOLYLINE
5
117
100
AcDbEntity
8
0
100
AcDbPolyline
90
8
70
1
43
0.0
10
69.119999950697888
20
89.655802176665844
42
-0.41421356237309509
10
70.119999950697874
20
90.655802176665844
10
72.119999950697874
20
90.655802176665844
42
-0.41421356237309509
10
73.119999950697874
20
89.655802176665844
10
73.119999950697888
20
24.655802176665844
42
-0.41421356237309509
10
72.119999950697874
20
23.655802176665844
10
70.119999950697874
20
23.655802176665851
42
-0.4142135623730937
10
69.119999950697888
20
24.655802176665844
0
CIRCLE
5
118
100
AcDbEntity
8
0
100
AcDbCircle
10
124.45999999999995
20
118.10999999999996
30
0
40
1.25
0
CIRCLE
5
119
100
AcDbEntity
8
0
100
AcDbCircle
10
2.54
20
2.5399999999999996
30
0
40
1.25
0
LWPOLYLINE
5
120
100
AcDbEntity
8
0
100
AcDbPolyline
90
8
70
1
43
0.0
10
191.0399999506979
20
89.655802176665844
42
-0.41421356237309509
10
192.0399999506979
20
90.655802176665844
10
194.03999995069785
20
90.655802176665858
42
-0.41421356237309509
10
195.03999995069788
20
89.655802176665844
10
195.03999995069788
20
24.655802176665844
42
-0.41421356237309509
10
194.03999995069785
20
23.655802176665844
10
192.0399999506979
20
23.655802176665834
42
-0.4142135623730937
10
191.03999995069788
20
24.655802176665844
0
LWPOLYLINE
5
121
100
AcDbEntity
8
0
100
AcDbPolyline
90
8
70
1
43
0.0
10
23.399999950697886
20
89.655802176665844
42
-0.41421356237309509
10
24.399999950697882
20
90.655802176665844
10
26.399999950697879
20
90.655802176665844
42
-0.41421356237309509
10
27.399999950697879
20
89.655802176665844
10
27.399999950697875
20
24.655802176665844
42
-0.41421356237309509
10
26.399999950697875
20
23.655802176665844
10
24.399999950697875
20
23.655802176665848
42
-0.4142135623730937
10
23.399999950697875
20
24.655802176665844
0
LWPOLYLINE
5
122
100
AcDbEntity
8
0
100
AcDbPolyline
90
8
70
1
43
0.0
10
236.75999995069787
20
89.655802176665844
42
-0.41421356237309509
10
237.75999995069787
20
90.655802176665844
10
239.75999995069785
20
90.655802176665858
42
-0.41421356237309509
10
240.75999995069787
20
89.655802176665844
10
240.75999995069787
20
24.655802176665844
42
-0.41421356237309509
10
239.75999995069785
20
23.655802176665844
10
237.75999995069787
20
23.655802176665834
42
-0.4142135623730937
10
236.75999995069787
20
24.655802176665844
0
LWPOLYLINE
5
123
100
AcDbEntity
8
0
100
AcDbPolyline
90
8
70
1
43
0.0
10
99.599999950697878
20
89.655802176665844
42
-0.41421356237309509
10
100.59999995069788
20
90.655802176665844
10
102.59999995069788
20
90.655802176665844
42
-0.41421356237309509
10
103.59999995069786
20
89.655802176665844
10
103.59999995069788
20
24.655802176665844
42
-0.41421356237309509
10
102.59999995069789
20
23.655802176665844
10
100.59999995069788
20
23.655802176665851
42
-0.4142135623730937
10
99.599999950697878
20
24.655802176665844
0
LWPOLYLINE
5
124
100
AcDbEntity
8
0
100
AcDbPolyline
90
8
70
1
43
0.0
10
251.46000000000004
20
2.5400000049547704
42
-0.41421356237309165
10
246.37999999504527
20
-2.5400000000000134
10
2.5400000000000018
20
-2.5400000000000005
42
-0.41421356237309387
10
-2.54
20
2.5399999999999778
10
-2.5400000000000089
20
118.10999999999996
42
-0.41421356237309781
10
2.5400000000000134
20
123.19000000000001
10
246.38000000000005
20
123.19000000000001
42
-0.41421356237307866
10
251.46000000000001
20
118.10999999999999
0
ENDSEC
0
SECTION
2
OBJECTS
0
DICTIONARY
5
C
100
AcDbDictionary
3
ACAD_GROUP
350
D
3
ACAD_MLINESTYLE
350
17
0
DICTIONARY
5
D
100
AcDbDictionary
0
DICTIONARY
5
1A
330
C
100
AcDbDictionary
0
DICTIONARY
5
17
100
AcDbDictionary
0
ENDSEC
0
EOF
