<?xml version="1.0" encoding="UTF-8" standalone="no"?>
<svg
   xmlns:dc="http://purl.org/dc/elements/1.1/"
   xmlns:cc="http://creativecommons.org/ns#"
   xmlns:rdf="http://www.w3.org/1999/02/22-rdf-syntax-ns#"
   xmlns:svg="http://www.w3.org/2000/svg"
   xmlns="http://www.w3.org/2000/svg"
   version="1.1"
   id="svg3355"
   height="1052.36220472"
   width="744.094488189">
  <metadata
     id="metadata3429">
    <rdf:RDF>
      <cc:Work
         rdf:about="">
        <dc:format>image/svg+xml</dc:format>
        <dc:type
           rdf:resource="http://purl.org/dc/dcmitype/StillImage" />
        <dc:title></dc:title>
      </cc:Work>
    </rdf:RDF>
  </metadata>
  <desc
     id="desc3357">/Users/twra2/Documents/eagle/projects/16n/panel/16n-125-top.dxf - scale = 1.000000, origin = (0.000000, 0.000000), auto = False</desc>
  <defs
     id="defs3359">
    <marker
       style="overflow:visible"
       refY="0.0"
       refX="0.0"
       orient="auto"
       id="DistanceX">
      <path
         id="path3362"
         style="stroke:#000000; stroke-width:0.5"
         d="M 3,-3 L -3,3 M 0,-5 L  0,5" />
    </marker>
    <pattern
       y="0"
       x="0"
       width="8"
       patternUnits="userSpaceOnUse"
       id="Hatch"
       height="8">
      <path
         id="path3365"
         stroke-width="0.25"
         stroke="#000000"
         linecap="square"
         d="M8 4 l-4,4" />
      <path
         id="path3367"
         stroke-width="0.25"
         stroke="#000000"
         linecap="square"
         d="M6 2 l-4,4" />
      <path
         id="path3369"
         stroke-width="0.25"
         stroke="#000000"
         linecap="square"
         d="M4 0 l-4,4" />
    </pattern>
    <symbol
       id="*MODEL_SPACE" />
    <symbol
       id="*PAPER_SPACE" />
  </defs>
  <g
     id="g3373">
    <path
       id="path3375"
       style="fill:none;stroke:#000000"
       d="m 550.91339,141.68417 a 3.543307,3.543307 0 0 1 3.5433,-3.54331 l 7.08662,0 a 3.543307,3.543307 0 0 1 3.5433,3.54331 l 0,230.31496 a 3.543307,3.543307 0 0 1 -3.5433,3.5433 l -7.08662,0 a 3.543307,3.543307 0 0 1 -3.5433,-3.5433 l 0,-230.31496 z" />
    <path
       id="path3377"
       style="fill:none;stroke:#000000"
       d="m 820.91339,141.68417 a 3.543307,3.543307 0 0 1 3.5433,-3.54331 l 7.08662,0 a 3.543307,3.543307 0 0 1 3.5433,3.54331 l 0,230.31496 a 3.543307,3.543307 0 0 1 -3.5433,3.5433 l -7.08662,0 a 3.543307,3.543307 0 0 1 -3.5433,-3.5433 l 0,-230.31496 z" />
    <path
       id="path3379"
       style="fill:none;stroke:#000000"
       d="m 334.91339,141.68417 a 3.543307,3.543307 0 0 1 3.5433,-3.54331 l 7.08662,0 a 3.543307,3.543307 0 0 1 3.5433,3.54331 l 0,230.31496 a 3.543307,3.543307 0 0 1 -3.5433,3.5433 l -7.08662,0 a 3.543307,3.543307 0 0 1 -3.5433,-3.5433 l 0,-230.31496 z" />
    <path
       id="path3381"
       style="fill:none;stroke:#000000"
       d="m 658.91339,141.68417 a 3.543307,3.543307 0 0 1 3.5433,-3.54331 l 7.08662,0 a 3.543307,3.543307 0 0 1 3.5433,3.54331 l 0,230.31496 a 3.543307,3.543307 0 0 1 -3.5433,3.5433 l -7.08662,0 a 3.543307,3.543307 0 0 1 -3.5433,-3.5433 l 0,-230.31496 z" />
    <path
       id="path3383"
       style="fill:none;stroke:#000000"
       d="m 766.91339,141.68417 a 3.543307,3.543307 0 0 1 3.5433,-3.54331 l 7.08662,0 a 3.543307,3.543307 0 0 1 3.5433,3.54331 l 0,230.31496 a 3.543307,3.543307 0 0 1 -3.5433,3.5433 l -7.08662,0 a 3.543307,3.543307 0 0 1 -3.5433,-3.5433 l 0,-230.31496 z" />
    <path
       id="path3385"
       style="fill:none;stroke:#000000"
       d="m 697.42913,256.84519 a 4.429134,4.429134 0 1 0 -8.85826,0 4.429134,4.429134 0 1 0 8.85826,0 z" />
    <path
       id="path3387"
       style="fill:none;stroke:#000000"
       d="m 604.91339,141.68417 a 3.543307,3.543307 0 0 1 3.5433,-3.54331 l 7.08662,0 a 3.543307,3.543307 0 0 1 3.5433,3.54331 l 0,230.31496 a 3.543307,3.543307 0 0 1 -3.5433,3.5433 l -7.08662,0 a 3.543307,3.543307 0 0 1 -3.5433,-3.5433 l 0,-230.31496 z" />
    <path
       id="path3389"
       style="fill:none;stroke:#000000"
       d="m 68.456693,375.54243 a 3.543307,3.543307 0 0 1 -3.543307,-3.5433 l 0,-230.31496 a 3.543307,3.543307 0 0 1 3.543307,-3.54331 l 7.086614,0 a 3.543307,3.543307 0 0 1 3.543307,3.54331 l 0,230.31496 a 3.543307,3.543307 0 0 1 -3.543307,3.5433 l -7.086614,0 z" />
    <path
       id="path3391"
       style="fill:none;stroke:#000000"
       d="m 226.91339,141.68417 a 3.543307,3.543307 0 0 1 3.5433,-3.54331 l 7.08662,0 a 3.543307,3.543307 0 0 1 3.5433,3.54331 l 0,230.31496 a 3.543307,3.543307 0 0 1 -3.5433,3.5433 l -7.08662,0 a 3.543307,3.543307 0 0 1 -3.5433,-3.5433 l 0,-230.31496 z" />
    <path
       id="path3393"
       style="fill:none;stroke:#000000"
       d="m 913.42913,40.86221 a 4.429134,4.429134 0 1 0 -8.85826,0 4.429134,4.429134 0 1 0 8.85826,0 z" />
    <path
       id="path3395"
       style="fill:none;stroke:#000000"
       d="m 49.429134,40.86221 a 4.429134,4.429134 0 1 0 -8.858268,0 4.429134,4.429134 0 0 0 8.858268,0 z" />
    <path
       id="path3397"
       style="fill:none;stroke:#000000"
       d="m 265.42913,256.84519 a 4.429134,4.429134 0 1 0 -8.85826,0 4.429134,4.429134 0 0 0 8.85826,0 z" />
    <path
       id="path3399"
       style="fill:none;stroke:#000000"
       d="m 496.91339,141.68417 a 3.543307,3.543307 0 0 1 3.5433,-3.54331 l 7.08662,0 a 3.543307,3.543307 0 0 1 3.5433,3.54331 l 0,230.31496 a 3.543307,3.543307 0 0 1 -3.5433,3.5433 l -7.08662,0 a 3.543307,3.543307 0 0 1 -3.5433,-3.5433 l 0,-230.31496 z" />
    <path
       id="path3401"
       style="fill:none;stroke:#000000"
       d="m 913.42913,450.3622 a 4.429134,4.429134 0 1 0 -8.85826,0 4.429134,4.429134 0 1 0 8.85826,0 z" />
    <path
       id="path3403"
       style="fill:none;stroke:#000000"
       d="m 442.91339,141.68417 a 3.543307,3.543307 0 0 1 3.5433,-3.54331 l 7.08662,0 a 3.543307,3.543307 0 0 1 3.5433,3.54331 l 0,230.31496 a 3.543307,3.543307 0 0 1 -3.5433,3.5433 l -7.08662,0 a 3.543307,3.543307 0 0 1 -3.5433,-3.5433 l 0,-230.31496 z" />
    <path
       id="path3405"
       style="fill:none;stroke:#000000"
       d="m 481.42913,450.3622 a 4.429134,4.429134 0 1 0 -8.85826,0 4.429134,4.429134 0 1 0 8.85826,0 z" />
    <path
       id="path3407"
       style="fill:none;stroke:#000000"
       d="m 172.91339,141.68417 a 3.543307,3.543307 0 0 1 3.5433,-3.54331 l 7.08662,0 a 3.543307,3.543307 0 0 1 3.5433,3.54331 l 0,230.31496 a 3.543307,3.543307 0 0 1 -3.5433,3.5433 l -7.08662,0 a 3.543307,3.543307 0 0 1 -3.5433,-3.5433 l 0,-230.31496 z" />
    <path
       id="path3409"
       style="fill:none;stroke:#000000"
       d="m 280.91339,141.68417 a 3.543307,3.543307 0 0 1 3.5433,-3.54331 l 7.08662,0 a 3.543307,3.543307 0 0 1 3.5433,3.54331 l 0,230.31496 a 3.543307,3.543307 0 0 1 -3.5433,3.5433 l -7.08662,0 a 3.543307,3.543307 0 0 1 -3.5433,-3.5433 l 0,-230.31496 z" />
    <path
       id="path3411"
       style="fill:none;stroke:#000000"
       d="m 481.42913,40.86221 a 4.429134,4.429134 0 1 0 -8.85826,0 4.429134,4.429134 0 1 0 8.85826,0 z" />
    <path
       id="path3413"
       style="fill:none;stroke:#000000"
       d="m 49.429134,450.3622 a 4.429134,4.429134 0 1 0 -8.858268,0 4.429134,4.429134 0 0 0 8.858268,0 z" />
    <path
       id="path3415"
       style="fill:none;stroke:#000000"
       d="m 712.91339,141.68417 a 3.543307,3.543307 0 0 1 3.5433,-3.54331 l 7.08662,0 a 3.543307,3.543307 0 0 1 3.5433,3.54331 l 0,230.31496 a 3.543307,3.543307 0 0 1 -3.5433,3.5433 l -7.08662,0 a 3.543307,3.543307 0 0 1 -3.5433,-3.5433 l 0,-230.31496 z" />
    <path
       id="path3417"
       style="fill:none;stroke:#000000"
       d="m 118.91339,141.68417 a 3.543307,3.543307 0 0 1 3.5433,-3.54331 l 7.08662,0 a 3.543307,3.543307 0 0 1 3.5433,3.54331 l 0,230.31496 a 3.543307,3.543307 0 0 1 -3.5433,3.5433 l -7.08662,0 a 3.543307,3.543307 0 0 1 -3.5433,-3.5433 l 0,-230.31496 z" />
    <path
       id="path3419"
       style="fill:none;stroke:#000000"
       d="m 874.91339,141.68417 a 3.543307,3.543307 0 0 1 3.5433,-3.54331 l 7.08662,0 a 3.543307,3.543307 0 0 1 3.5433,3.54331 l 0,230.31496 a 3.543307,3.543307 0 0 1 -3.5433,3.5433 l -7.08662,0 a 3.543307,3.543307 0 0 1 -3.5433,-3.5433 l 0,-230.31496 z" />
    <path
       id="path3421"
       style="fill:none;stroke:#000000"
       d="m 388.91339,141.68417 a 3.543307,3.543307 0 0 1 3.5433,-3.54331 l 7.08662,0 a 3.543307,3.543307 0 0 1 3.5433,3.54331 l 0,230.31496 a 3.543307,3.543307 0 0 1 -3.5433,3.5433 l -7.08662,0 a 3.543307,3.543307 0 0 1 -3.5433,-3.5433 l 0,-230.31496 z" />
    <path
       id="path3423"
       style="fill:none;stroke:#000000"
       d="m 152.96457,83.61221 a 1.771655,1.771655 0 1 0 -3.54331,0 1.771655,1.771655 0 0 0 3.54331,0 z" />
    <path
       id="path3425"
       style="fill:none;stroke:#000000"
       d="m 927,450.3622 a 18,18 0 0 1 -18,18 l -864,0 a 18,18 0 0 1 -18,-18 L 27,40.86221 a 18,18 0 0 1 18,-18 l 864,0 a 18,18 0 0 1 18,18 l 0,409.49999 z" />
  </g>
</svg>
